<mxfile host="65bd71144e">
    <diagram id="Mi5e6MP9vp4dKWhT8Qvf" name="Page-1">
        <mxGraphModel dx="360" dy="240" grid="1" gridSize="10" guides="1" tooltips="1" connect="1" arrows="1" fold="1" page="1" pageScale="1" pageWidth="827" pageHeight="1169" math="0" shadow="0">
            <root>
                <mxCell id="0"/>
                <mxCell id="1" parent="0"/>
                <mxCell id="2" value="" style="shape=image;verticalLabelPosition=bottom;labelBackgroundColor=default;verticalAlign=top;aspect=fixed;imageAspect=0;image=data:image/png,iVBORw0KGgoAAAANSUhEUgAAAggAAAFCCAYAAACU1yX0AAAAAXNSR0IArs4c6QAAIABJREFUeF7sfQe8FcXZ/nvOuffSQemIIiIqgqICsWEsYEFNvoix4hcbqFHRmC8RU03TmP9nvkQTYxJNsWBD0SQkBlABC2JBRewgRem9t3vvOfvPM7uzO7s7uzN72j3n3plfiHB2duadd2bnfeZtk3r11VctMsVwwHDAcMBwwHDAcMBwQOBAygAEsx4MBwwHDAcMBwwHDAeCHDAAwawJwwHDAcMBwwHDAcOBEAcMQDCLwnDAcMBwwHDAcMBwwAAEswYMBwwHDAcMBwwHDAfUHDAaBDWPTA3DAcMBwwHDAcOBFseBRADBsizaunUrtW/fnjKZTItjlhmw4YDhgOGA4YDhQEvhQCKAsGfPHpo+fTqdeOKJ1KlTp5bCIzNOwwHDAcMBwwHDgRbHAS2AAM1BLpeje++9l8455xzab7/9mpRRoCeVSjEastks+3s6nabGxkam2eDPgkSKdfmz+vp6qq2tZeNDETUj6Ie/U6jGhNOMfvAH7a5YsYIBrS5duiTmJ9rDeEE72grSnrhB84LhgOGA4YDhgOGAwAEtgLBx40Z69dVX6bDDDqMePXpQmzZtmpSJn332GQMEAAKffvopde7cmdH23nvvMYHbt29fl74dO3YQ6Ed9vAf6DzzwQPf5M888Q4MGDaLNmzcTNCTDhg1jgnfbtm20a9cuWrVqFWtv3333zXvMaHfNmjVUU1NDS5cuJdC0du1aBrRAe79+/Rh9rVu3pi1btrDnKHiG32Rl586dNGvWLOrfvz9t2LCBtm/fTqeddlreNJoXDQcMBwwHDAcMB0QOKAECTtjPPvssDR48mAmySijr169nwAAncZyk4RNxxBFHMOG7bNky+uIXv+iSCWG/YMEC2rRpExP0s2fPplatWtFXvvIVVueFF15ggADPACBOOeUU4u3jHYAHEVDkM37QuXjxYgY20B5ohIDv1asX7bPPPqz/f/3rX+y3rl27UseOHRkNAwYMoEMPPTSyyxdffJG9i/qrV6+mL3/5y/mQZ94xHDAcMBwwHDAcCHFACRCgvp47dy47oY4cObKiWAjh+PrrrzOhu9deezGAgH8fc8wxTPDW1dXRnDlzmOCFhgAn87PPPpsee+wxGj9+PNMYTJ48mcaMGUNPP/00HXnkkQworFy5kp3eFy5cyMDR3nvvzU7/48aNY+N//PHH6YQTTqDdu3czYX/88cczjUO7du1c/rz77rvU0NBA3bt3p0MOOcT9HXR89NFHdOyxx7qmEIzjtddeYyAMwh6A4q233mKaGoAEaBsAHDAHbdu2ZVqF999/n9EPYPT888/TkCFDWF+mGA4YDhgOGA4YDhSDA0qAgE4gmCDUIMgGDhxYMQ6KS5YsYWYFqNYhTAEQPvzwQ3Yyh6oemgRoQHAah+CF+QF/nzp1KtMgQIgffPDBzIb/zjvv0FlnncWEPk77UNtD4AIgfPOb32S8xvjBhw8++IDZ/gEmoJ04+eSTmbAGWECBuYD7aeDvonkCfgfr1q1jYIQXaEHefPNN2n///ZkJBM8BTgAYli9fzvoFsADvZ8yYQaeeeip9/PHH7N8AMwA+Q4cOLcZ6MG0YDhgOGA4YDhgOMA5oAQTOK6jjcUqGcIuyjZeDr9AIQKCDht69ezNBf8YZZ7gmhuHDhzOtAWgNOizOnDmTCeI+ffow8AAtA8Z13HHHMRCBAsAAoQyw8PDDDzNtAwoEOYQxNAPz589n/4XPArQXOPWjPV5k/IEvBDQc0MSgX7FAYwCTBsJIASKgwbjkkkto0aJFDHAArLzxxhtMU4BxoT84TqI9gBxoGEwxHDAcMBwwHDAcKBYHEgEECEA4xkE9zoVpsQjRbQdCFoAA/fNTM7QG3Mkv6IPA24UWBMIWKvqDDjrI7Q6qevwGbQDa4AUCeN68eUyQwwEyWKBJAPiACUCnwEkRtEGYy3iHMWBsMEd069aNaRHQNw8nxTPQihBTFIATvAPNCdo0xXDAcMBwwHDAcKCYHEgEEIrZcSFtQd2OUzsvOOnjxP75558z08Lhhx/uax6nfdTBqfyAAw5wQxlhHkDBbzAZiAV2fwj1YFu8Dp5BaMc5EYrtwYkQQCQKWEFjAYAighTxffgowNeiQ4cO7GeAJPy9UhxHC5lP867hgOGA4YDhQOVxoCoBQhQbeS6DoJCF8MVpP5jLAL/D+VBW0BbeicqpAHMD/kQJ9GJPNcweIv1xtBe7b9Oe4YDhgOGA4UDL40CzAggtb/rMiA0HDAcMBwwHDAdKwwEDEErDV9Oq4YDhgOGA4YDhQFVzwACEqp4+Q7zhgOGA4YDhgOFAaTiQenXOHKs0TZtWDQcMBwwHDAcMBwwHqpUDqddef8MAhGqdPUO34YDhgOGA4YDhQIk4kLrogosNQCgRc02zhgOGA4YDhgOGA9XKAQMQqnXmDN2GA4YDhgOGA4YDJeRAqmvXbkaDUEIGm6YNBwwHDAcMBwwHqpEDqdat2zYpQLDIohSlqpF3hmYJB1LOVFpNuqqa19TkUllqTDcSWUQ1jRnNwcVPQD7zk8kgqZjOt4q+xXoW5XKNmnTnV83K6S24dE1t/H6TIkqnUpTTbC8/as1bhgOVyIHgd0uUat22vd6XVaLx4MNOpXU2nRIRYJotKgfs6yzMBltMpgIg1Kd3sSYz2TSlG+JBgmXl9LpP+OWnMzUEAassQB8cKTqXnOUa97DMo6UqegAhRTWtWlEq5d25EqQHmVNr0kQN2dLRKuVBeG8uFatMu4YDcg5I1mBigJBrbKQcjjLFKoHNpFjNmnaahgOAepANTXkAAw3stCsIqRA3LIuy2cZiruQSMjxH2ZRzAreI0rk00ybISimFMPiZTmfi+QqiQgoEi6xctqQAQZf5ADlx6wJrBxqEbAnBTCRAsLG1KYYD5ecA30+E9ZdJpZNpENLpFA08dADt1alT+QdgejQc0OTArt276cOPPqZdu3ZHvtGxQ3u2lqPu4tDsylQzHDAcMBxolhxYtWq1JkCwYEPM0QXnf5VuueUW6fXHzZJDZlBVyYGVK1fSD3/4Q5r46GOUhjpZ1CRYFrVp05rGX38dTZgwgdq3b1+VYzREGw4YDhgOlJIDf//73/UAAsBBw55dhBsFo243LCWhpm3DgSQcwNXen3zyCQ0ZMoQytXW2ucEp2cYGOqDv/vTxxx+btZyEqaau4YDhQIviwJo1axQAgdklLBp8+CCaPHky9e7dm+rr6+mDDz6gPXv2tChmmcFWDwe2bNlCU6ZMoXXr1tGcOXNo7boNlM5kCODg8ssupfvuu4+BXazlefPmVc/ADKWGA4YDhgNl4sD8+fM1NAiWBxB69epFS5YsofXr11eEw1GZ+GS6qTIO6ACE7du3s7WM/5piOGA4YDhgOODnQGKA0LNnT1qwYAFhAzbFcKBSOaADELZu3crMEI2NpY3Pr1QeGboMBwwHDAfiOGAAglkfzZIDBiA0y2k1gzIcMBwoIweKAhDmzp1Ls2fPLiPZpivDAY8DnTt3pqFDh9LAgQPdH/MFCFOnTmVaBVMMBwwHDAdaEgcGDBhARx11FHXv3t0ddlEAwsyZM+mppybT+g0bWxI/zVjjOMDS1TrJkoqYU0vW5Ze/fDZdfNFFlMl42QXzBQgTJ06kl156mfbU11fc/OZSSOpkMxOpydMWxitkNbEs0s6gKI4O75V5tDqRUCVL+MSTPUWMGRGxBeVIcvipM8Yys910ZzgQyYH77/sjywmTtlPhslI0gPDoo4/RoiVLDfsNB1wO1GZS1JiD0CotU27+9rfo+uuupcWLFxesQQBAmDp1Gm3fsaO0ROfRemO6gSyyUyinKE2ZXE3oTgEri2yFmmmWnRTIMlJKNWUQmr5EgbKsgRYEdEIKEt7/UVNbJ50BlkUxnaJsgWlATXLYPBa4eaVJObB61UrmX7hxo3fQNwBBa0okOSi13mvZlWyAkMdmH2Ab0t5mMuHc+Y3ZHBMkBiAIDENCs6za6RIrOrEQLnA5M3CgSCPs4oISAgTQEZWGu1gAoUBWmdcNB/Q40JbI6mBRak3h+bmrGiDU1dWxmPWmKthMjcowGfdrMriwCWaGhKfBQDc1mTS1qsvQ0Ucfw55gLhYuXEir16xjJ72iA4Rp02j79srTIGTTDZQTNAg1OfmlSezOAzA+ooB/hc1IsnUAUKD77fiWStJ1o9AiiDRAjZrCnRKBgjowjRWkQTCXLiVbIKZ2/hzobpHVx6LU3OjLx3QbryqA0KtnT9q0eTM1NDRQzx49qG/fvrRu/TpasGCh7niLWs8AhOTszKRTTBAVem0uBwgLFy5iRCDB0XXXXUvP/ntaiQDCdNpR8SaGFGVyEdcWR2gRyg0MMFe64ECKBfIACHGviACBAQEhuyZf3aCXXdRUiInBAITkm4V5Iy8OWA5ASBcBIKxauaK8JoZWrVrRySedRK/Mnk1dunShvz8zmX57z+/oL399QMmM0087lbp160aPPPoYXX3VWPr88+V09tln0g033qR8txQVjE0xOVex0WLDLWizJSIOEP75z2ddgPDzn99OL770SssCCKkGslLcB0EOEKA5gAYhWArV4iSffVtroDIp2BqhmNYTggRZU3LtBcwM4VspGaDBVeUJ+9XijwEOWmwylfQ5UNUAAcM87rhj6Rd3/Jy2bd1Gl185lmVg1CknnDCcgYvbbv85HdC3L7Vr147e/+AD2nvvvalNmzaEy3jKWfh+4W545mOXs1/gC1S12JyLBRCmTPmXCxDuuAMAYXYLAwiNZKVs4Q8h5tcg4DplgAO/aaEpfA1AHxz9VEVLBmtV8noKAoQ40wZSb6dwkZdQpADBfOuqqTTPm4gDVQ0QunXtygT7aaeOpLFjr6TFS5YwNr7yymyaNn06QcPw4Ycfsd+OPOIImjDh2+zvv/rVXdS6TWv6+W230eSnn6a7f/Nbl/03jL+ehg8/ni66+JKyTokFlaNwIsK/UxqbYFmJrLDOICJgZkAkQyGFaxBaOkDIphopJwEIDBggciEgTJsCHBRFaxBcLAlAgrjSVH4PMj8EAxAK+VLNu+XmQFUDhNatW9Nv7rqLLrroArp5wi30x/vu9/HvmclP0sknn8x+e+GFF+i8Cy5yn3MNwtNPP0P3/u639F/nnEtIjdtUJWhigF1d55TUVPQ2Wb8CoxhAyKQomy3MKc4ABHs2ZQABXqAhh0TknygQlOWzfkoCDkBIHgBBBQ7QLLQH0CKIxQCEfGbevNNUHKhqgMCZdtGFF1CnTp1CACGOqaKJAb4I2cZG2rhpEx0xeDD12qcXi1UvZwmZGMrZeTX1FUBS0CBAWBWiQzAAQQIQrBSlG6Ee93MW7C93+KItbNX+BgnkvH/FJ3lRx+lBaD1T448EgVLQ1rxU00dnaG2pHGgWAAF+A7hid9SoM9g8nn/BhbR167bYORUBgljxO7fcTKecfDKdcebZ5V0TzsbLzQomqkGP/TVIOsMy/OnVl9UyAMEDCPBBSGXT5Pgq+thVTq0BtEMplnFNc2Kdapq18wMICcEBOgnmQ4BjLeBsIes1/5VeYW8a34sKm5AwOc0CIOTD5S98YRidMHw4/fquu/N5vSTviKDAAIQYFgtaBBbqiLC7vCSD3YcBCDYfLHLyGwR4WUqtgQcEbBqCrodK3VCQ1ny+TB1pnQc4AClBPwQDEIQJMgAhn9Va1ndaLEAAl9u3b0/bt28vK8PjOjOOiXpTIYKnDDuRFZYsyQAEnGgRpRAOX2S/JwRfMvs8E/zBNMhxGFBHcxBBV0JyHXQU8VaewIAPLZgPwQAEAxD0drnKqNWiAUJlTIGhohAOFCMXQksHCCwzYuB+BR2tge0X4J351YGHejOt1BrY6o7IUjSAUCA44ASKZoZmBRCMBkBvQVdxLQMQqnjyDOl2VrpCkyW1WIBg5SjH8hqERSr8DVyBLwCBYoEA2drVAgYKcMDbLRgkFAkc2GaGjONPYYflIklSUq1MRX7rBiBU5LQUk6iqBginnXpqMXlh2qpCDtipa5FNMZ74bC5L7747nzZs2BCq2PIAgpP0SHIrY+AuxLKtCC1wkEDqJ6jqjbFEoURiuGMxom7KNimmoxbNgd65HC3vmWJ3MVRlquX1a9e06Ak0g7c5AJCgOpHt2rWLLr/iSnphxoyWDRDg0JkL38ZY0cBAU2sgTmxeAKFEH5Tth4B8CClbg1BgWG6JyAw3azQEZWN1JXb0tfo99NC+ddULEDZsW01jF4+hGWunk3MJXSXy2dDUhBxIb7OoZp5Fn3xjM1085hKa/txzLQggCGISYbQkSXrkpFVuiinS0hrkAQ7yfIWZVEoFLHBxE7sG2gCEplhqps88OXBpp930wEF1+hqE2tZkdehGlpBiPL19PdGeHVT2y5o4QJj94jTKVN7tuXlOiXmtmBxo2GHRpgWNtO5321sAQLCjEdziXCFuRyKw9Dw+1jaV1kB3fhm1KtVQTGO6wl70q9B9R3cMnH4GENLp6gII2oM0FZsrBw5tk6Hlg4bSpt1dtIaYathNqe3rkGrVrZ/evIJo15amAwhznp1G6abLkqzFOFOpaThQv8uitZ820Oa/7miGAIGpBXyCP5zlMAAanGmoCnDAl0yeIEFH2IfzLhRxnQp0p9IZytTg8ibbxGCK4UClcSCY7t+jj11BqlcC+5H4UpNpEAxA0Ju7llir+QAElmpT6XDhBwjNABwUoEVQiWHZnqd6R/sbCoKaVIpqamtLd9WzNmGmouGAnAPRAKE4HDMAoTh8NK0UkQPNAyDY4EAvu6aT9Ehy6q4qrUFwDRRRi6A6DBUEEmLorKmpZWYGhDmaYjhQcRwosVOqAQgVN+OGoEoECLiKfMeOnfqTw8CBbdOLu0XQ9jVAPb8IVAlEfUJKV1MpMvMUqsF2dXihpCWKDQoaEckAX4SmuOyqdDPntVzqE2g5xtBS+9A7fBTGnZUrltOCBQto48aNbkPz58+nVOu27eO/OcuiwYcPosmTJ1PPnj1ZI1u2bHEbmTlzJj366GO0aMlSH4XcSdGYGAqbuOb8drMACHA0cJLr+AGC/7NigidPQdqUa0BbIOc5Nt6+DjgAH7TpEZmmQRvmrqa2Tq1BKPFJrinn2vRdmRwwAKEy58VQVWIONCeAILvKiAm0KgUGiYWxhhAu1nJKDBI0aQNAULZdSQChkmgp1uSadpqEA0aD0CRsN53GcaC5AAR2kVco/a+dEbEai1JIygalKYTFV9mV0W6Ypz6nEtOnSRsPd4ylpIKEMiIu0khVaorhQIEcMAChQAaa14vPgeYBEIgBAQ8geE6LxedY6VtMLHwTqvJRnfHKuUPCvqkyOZBKRKcmQEC4o51VsTqK8SuojnmqBioNQKiGWWphNJYVIKQzlM020OWXXUr33Xcfbd26lT755BNqbPRSG0+cOJESOynCjJDLugAhH2FXCdPuOucVchGShiBmt0xCc8ALSy9dIQCBpV2uscNVq6AYgFAFk1RMEkuovaoagLBvp/1p7LHfoE0711M6ZaP5VGOafv3qT9jf9+m0H/vvsF7D6ZBeA+mRt+/3TcHG7RtodzaBF3oxJ9C0lYgD5QQILIQt21g6gMD9DRJxoDIq+zz3CxGOKoAAASyCA2f4uWw2MSNKoUEAMOBpl6MIqhShzFldyHQlZrp5odlyoGoAwhf7nEZfGXwx7WrcTpPefYBNyMT//jcdcWcP9vdLjriaunXqQSf3P4M+WPUOrdux1jdpj879M63dubLZTmRzGlizAAhMRZ5cwFXKPIbC+gqVOBEgAQAtKgw0HzNDIoAAZqvAizMh6RrcyyBoOIITVcJTXKI1USl0JCLaVK5UDlQNQPjLhc/Q/FVv0+G9jqK3l7/B+HndCRNo0P/rzP6eSddQ93Y96Vsn/4h+O+NOGj30Qvb77oZdNPXjZ+izTYtJ+6KZSp2tCqfrsi9cR+3rOsZS+bvZv1COotoBAstrkId6XMmYMlWIjPkvBCRIBDHTGijarBQtQrX4ITDH2Ep1UDTgpUxfcPG6qQqAcNmQ6+nK48fTj5/9H6aKPKTHIOrX5RB68dOpNOXDJ11uXD7selq8cQFt2LGO+nU5iDq36U6n9f8y3fLs1bRi2+fF45ppScqBUw/+Ev34jF+75h6x0tbdm+n3s++kP875PyX3ygkQ4HyWbSySDwILXcxVdVKd2IRAhQAE8bQeYVKQLQz4biRNUlQKLQI0HcwPocJLOWLjK5wFhrwicqDiAULvdvvTPh360NlHjKZde3ZR7733py7tutJebbrQZ5sW0ZNvPUgzl/ybTt7nLBoxcBQ9v3gKdWy9F9Wmamlwr2G0ZusqWr59Kb2w8F+0q8H4IBRx7UibOvnAM+j6E26hIfse66pkF6x9n5557zF6aO7vteagKgECgEFz1BoEZ7kQkICbKmNMCpUIEETzB8wM+jfglPpLi2jfnNKbiPHNs9uKBwic7Ted+EN6c9lsqm/YQ9899ee0efcm+umUCbR0xwJW5awDv0qt2raihj1Z6tv9AOrVcV86oHN/enXpLPb82fnP0OKtnzTPWaywUfXrfDDdevqddMKBp9Ena9+nH//7f+jN5a9oU1l1AKGlgAPMYAEAIe2EMWovBKeirpkhseZAJER2D0ZgrOl0hkjiTJl0PKa+4UC1cKBqAMK3Tv4xZVI1tGnXenrts5do+P4jacPmdfTJhg/og/VvU9bK0ujDxzDzwkuLn6Ojeh9DJx14Ot310s+qZS6aFZ0ACTed9AP65wdP0fQF/0g0tqoBCM3NEVF3lvIACQhZhHlQFq2g6paFOyqcCQsCByAg0L7McZKFYlaBmUHFz5I8d8M4kibJLgk1kkaFFcJojXE4LRdJVdBP1QCEW0bcTtv2bKE/vXY3HdJ9EA3bbzj99Y3f0pDuw2nJtk8YcOAAYc7SWfSlARfQ/l37GYDQhIuwd6c+tHHnei2zgkhm5QMERCjY/gbVWpLa9X3jTAAQ0A/PZ8DuNWBq+mRFFc1QMDgIAIS4y7XSNbXJiK+i2nmHarI5brQvtWKRO8hpUWGJpYRvlflpVBp9FbpOqgYgjD3mRpq34k16a/kcGtD9cBq8z1CaNM8Od+TlhL6nEpzhPlz7Lo0ddiO9/dnr9OYafdV2hc5RiyOrogFClWgNogBAUUzUmgBBBAd8EWdwO2IeavooM0NRwIEAEOLAAapVU8KkxBtH3ovDAcs4lfObSYt5Qsc3x+eIrz3Hn0VrjAI4QBpqrEs4J6vmWqvtZl6pagBCM58HMzyBAxUJEKZNp+3bt9tXM2uoo8s9oToaAXYSd1IaF5wTUBWeGBF9kK8WQWZmKBo4cCZLhyfMydKcPgPLO/BNMHCgw029rySbzboOwN6yS1FGVxvl0x5wrR/m0ZgZVDNgAIKKQ+Z52TlQiQBh6r//zQBCsDT1KUQHGIDmnATUFLSFxwAECPMousAvaBES800wVRQbGIA/jB6NpElIlpSqonsZyvPxeknB7Ps0igcQsI6yTtpzpHdgkULpFIwYpGfu8V+nzkwgoI/d+WEAgmp9GICg4pB5XnYOVAtASCzkisxJHXAAYSqrB3BQMP0BkMA0FBq3MMLEAJCQtMQBj6RtifVdPmgABDvtMmgvCF4VQm7lvZvz7i1h9n3myCnnT8eOHalNmza+MaxduyYSmwEQZNmdJk6LkPeE2yqhAdDxZxEBgu0Pw0Ce0QJpraNIgNCqdWsBqGOyRdxu//uIwYNp8uTJ1LNnT1qwYAFt2bLF7XTmzJn0yKOP0qJFi3yEbNyxnsYuHkNznp1G6a1aNJpKLYwDHkDYThdedBFNf25aiAM1mRpq07oVTZnyL/YMasg77ridZs56kW0oE26eQOOvH0+LFy9238X6nDJlCq1bt47mzJlDq9esYdfi5rI5uuKKK2IvaxI1CAUL1gLnUwcYoIsocMC7Z2GHhRThfZm/QVTThZgZdMeuOyzfXOoABDTMVNNh3rlKiOB2yYlxf/f2Uk3FBWuhS5cudNhhh+UFrpT8sIjqWtXR4YcdRh07dpJWnzlrpvR3L6W4PUBbdS9fW3367EfdunZz2+narSs999xz9MILL0S0DaEOQOCPNEG2SIvUGgBoGkTZxdYPI63Ata9kaLhC1LIQqbFNgPa7fqfR8tMLGlatXMlk+8aNG90BzZ8/n1I1tWmlJm/IUcPiAcIjE2nBQn/ugS27txqAkMfiakmviADhggvOo2nTwwChtqaW2rZtGwIIM2bMoMZsI90y4Tt0ww03xgKEVatXsFM0NqCxV46LBwhTp9KO7dsLP3UXOJG6AjJoUpB1y8L2CqQHu1k+J3tEM+gCLfFWR93xy4bVt29fOvvsswsdceT7Q4YOoeOOPU76fN68eTR79uyC+obWpVWrVoE27G161+7d9Je//KWg9vEy2o9yIt29c6cNOoVVY6+fwOExdlH5PSFPO+00GjPmYrrwQqTGl7xoAQjgia0JYICK9QkzgS1M/UA3xfyEbE2WRxlaxrjYM20u5e21GdFDsUNAk9KXvP/Vq1YbgKC9XkzFsnCgEgHCNACEHTvKMv6oTnSEo0prILZdMEDIExyw7V1hZrjgggvo+9//Pr3//vuM5HfeeSekjSzmZDz//PO2BlRHi+AKqTgKVJu36rnYdpK6XGAXDP18g2OtObyxAQJENs7wjtDmJEIoJ9BMnTnqTFq2bBkddvhh9PjjjwcYCkbb/dijgYMhHxcAgsXAQRBo2uAgR4hE5gX+CzAt2I66+hDBT5BqHlTPk67YuPZkz5LWV68xAxCSzpmpX3IOGIAQZrEWOODhYAlmqCCQkMJpzctzkKBbVrW2NjqnAADCqFGj6Nvf/jatX7/e17QOL6JoUWotdAACZKUrf1WK4yhhpCNMdOok5Xp+9e0TvKidt+dejCpg3gFgDFeRa3QFgAAN4ZiLxzBTw5q1awJzbTfGBLwwNwAhAAA1GRus+ESjxP/IAAAgAElEQVQdtARZv6YgnbHNHoUBBI0BNbMqBiA0swltDsMxAMGbRR1hmERrIFsfiX0R8vQ9CPYdlxMBAGHTpk3UvXt3evjhh4sCEJTgAL1oAAQ2J8z8zYWTCAJEoc4FV74goYIAgsMXG1B6Z/rQ+oyw70fBqFGjzqTp06fRcccdT3v27KG5c9/0zTXTAgCYeLjDEfI2b2tqPMEP2mx6bHMEBzCMi6mM/Rt7mq8GoVJ216TrIml9b5wGIFTKnBs6XA5UIkCYykwMdphjESz3ytlmm5jGPlYoOGDjSeKLIFEf5+ODwPsNZlbkURCwSYPnV199Nf3pT39iYIEXHdAUZLAWONAACG7fDBsUS40f3MDz39CVC4tVSN4+1yDEtc+WqyZPOOc4QGjbrh1ddulldM/v7vGDQYYQUpRO2R+D/f/O2ymiDPMr8LqFP5GfDA+aFONb0eNvNdWKXwvlBwi7ttLVcy+m5/41lWibxg5YTbw2tBaFAw31Fm1dk6WtD+2gSnJS3FkmH4ScmMJZ4xPRqBI7L7as0xB2EXUKMTOIzopiiCQAwpNPPkkXX3wxrVy5khAVJZYkIEFrbP7GpfwK9Qm9d0mLSpCrnquI4ytHHIe8TSlACKgFkvgecMq4iQEg8+STT6ZOHTvR3//xdw/EOG4HtquijQ1EJ8k0QhZdzYENFEQlkPhv33elYk3s83z4LuN1QUSU5eWyA4StO7bRhH9cTc9Mf45wUjTFcCCKA0v/sLRiAEI5nBTtE07gfgeNT0SjinKRKc0MeWZOVHXMzQzB/AkACE888QT16tWLfvKTn9B1111HjU7CHLSpCxBsjXdCQS4xM0j78wEEcRYS9qdiUlmeR4EFRy47jwECRF8AH65ifE4mPM8cNYqmTZ/u3tcBbRHmur6+3rYUOP4H7O4TB8h6/h/QINj5NDx/CG5m8EAv9zvQXTNhdpdKuOvwKqpOqWjyzSitXrWmvFEMr7xcWKhPWb6Viu0kziGqYonWIsw+BbBP3a2/e/ce+v4Pvkevv/5aqI1yhzmWGiBEOk9pSH+NKlpzEAkSNARsvloEnlkxuHlzgADCYWbYtm0bPfbYY+44dDZ7n5jWGIOPSaJDXJRfQtg/Lia+PmqWZN90EGDoCBL/xu79KwqsxGkP/LSyFrjFy/FBkJm/RMHtwIqYdWf3YWsQPIAw4JBDaOCgQfT005PtCAbcm+DTEKTIcswNLJtiOhObtZMDTz2/gyihm1QY64DFuDbF+Y4DCLJ1wmCUhO+ydoJ0htdo2QECTgSm5MMBvhtV7w2CcaOuydSyDz0byMoG2zOcl4KlWAAhncqwRElXjh2rzoPg+CDkM3tx7zBhFyPliwUAVHQHVfFJVPP5AgSWEU8ivEWAgHwX//d//0e33norS3LF5BV3RpMOKrxBJhmL1368poKRXY3KAtVCEJ7bwtl23vSd3FNpO323k3iI+eWwyIJk+5NoYkC3iGw5d/S5hHwm69chesVe/TAruC6fDkDAtyvOlT/BkA28OLazWIikKUk5UHaAkJRAU59zoHkDhEy6hmU1bGhs0JryYgCE1atWOYmSmg4gcNVpLIDQ4khxKnFBmlSgovekzopR4ABtiQAB/0bIY/v27VliNq49CJljGAuiJXaSMQVNHlE4JKliwm6nejSB3D/FxrAeVIXtnwtgfo8FwxE6nrUCM4MAAY9GjBhBmzZtpnlvvxNilxBF6QBLL3LB00L6sxHy2IXifCEtqxUDEKpmvssFEJpm84KqEPbEhsZ6rRmpeoDADl/6ugH9mlrsi6zEIhryk3qsTaS8VhXeR1w/QYDQrVs3uvzyy+nee+91E1aFAUL8cT7JuLQAAkS9OttvgB3uOVjFphbxXAYQAASRBfWOn9/hAATLzpGE4vCbXdfkJD7Cz9AQpITUy6I2wQCE/JdSDEDIKOOs8km1nD+p5k376yi1qqyJAEIKF/jUlB0gQGuRLbOJQWVSiFrp5QAJUWl2db8+lRYBQlqnjyBAwHtXXnklffrpp/Tiiy+65HggQU/XrwMSPA2FmuP5AQR1u7r8rvZ6MoCAMSFlNVJjP/a453eiHqsMfDXNfqamtTpqVJEGoVgTLbZTSJuFvJvv4igUIFTu6QWnAWgF6hvC/gYybhVFg7B6FXOAyuZydOWV5fFB0DEpNAVAEAWnjhCNpDEms2KcSSHYXhAg4DkuhbvzzjvpmmuuoZ07d7JXbICgBw5QXzU2Uaujo+FpCX4I+e5W/vfk+2UUQMC7P/3pT+mXv/wlbd1qbvUrzhwkb6WKAELywTW/N4oBEPChlloLEcd5+UaBjbuuthXtqd+tNW3VBhDy1RoEmVGKs2chzomyyZJpEZKAA7QpAwj4/bLLLmOmmYceeiiRiYbTGQcQgoBAByAw0JHYzKC1xFtEpTiAMPDQgdTvwH70z3/+s0XwohIHqQAI8adkY2KoxClVCWd27mpCwuUgBzbFurpW1NBQr+UJXU0AoRCtQakBQpTAVJ204xaQCBB0TQo6GgTUAdBARMPtt99O69atdV4rXIMgAwMGIJR+m4gDCFg7w48fTu9/8D5t3ry59MSYHkIcKKMGoSlU8mbGw2q+ptYgRGtBoEHIZhspm1M7ulUFQEjoiKizWosF7VQAQPVcRSucFfMFB3EaBDw7++yzGFD4xz/+kRggsBN/wAkzDggoQYJz5bCKH+Z5chMDeDbgkAGEbJsACaaUnwMGIJSf503YIz5SCGi1AC4dkdFAsaamjl0EoxPqGAcQIJxumfAdGn/DDbR48WJ3KLjOd8qUKSyWfs6cObS6hD4IxTIpRM1DIUBBV/jr1pPRCC2CjjNi1PiiTAzga69ePemKK66gX/ziF04GPn0NQhAgqABA3HPjf1D4LhGnQeCtXzXuKrr/T/cX3plpITEHyggQktrPjcZBPpuFOBpWAkCIXqPIhYDUuzqOilEAYeaMmSzUbsKEW5oMIBTTpFBsgJBE6CepK9LJhWq+70dpEMTkSEjH+/HHH7OEOkmcFEWAoAIHqBtVx4CDxLJG+oIOQMCLl1xyCT3yyCPF6dS0os2BJgMI2cYctWrVmurq6rSJNRVbBgeQVjedQZxz9HjLDRCmTZtK27fbtznGlXKAA95/Ei1CPsI6n3dEoZrv+3KAYF/fywuugf79739PY8eOdezTeloETpMOOHD5LPRrgIHqC0j2HABh+nPTlfkzTjnlFHrvvfdo/XpkVzSlXBwoI0Dwn3wBEA7s15/26bVPucZq+qkSDrw8++WKBAg74m5zLIG/ge506QCFfIV1kveCQjfJu8GxeiYGni43PMrzzjufOnRoT3/961+1tQgiTbogQaxnAILuqtSrx697hkkqrvTqtQ/17NmD3nnHya6o17ypVSAHVq1cXa7LmsIA4eijj6FDDjmkwCGY15sbBx5++OGqAgjl1BoknWt2RUsBmRF1341Wxeud7KMAgjydslf7pz/9Gd1zz29p7VpENCTLpKgLELhWpFLCGeHbgfspYI4rVWnTpg27F0G34KZNnptC553Bhw+mY449lg7q358+XbRIGbLKI2Puvfd30rtZdPo0dZJzoIwAwU8cNAgGICSfsJbwhgogICQSmxc2sSlT/sVYAr+DO+64nWbOnOX4IEyg8eOL56QIE0NIg9CEWoNE66AAgIB+VCAh3pEvf4DwuEYWvXPOOYd2795NU6dO1b6HAeM55phjlELJx+OEwzj22GMTTdHGjRvZSU2ntGnTmgYMOJTatWunU92t89prc7TrH3zwwdS9W3ft+hs3baKPP/pIK0RZbPToLxxNc9+a6173HNXhnj311Lt3b/r3v581AEF7VgqvaABC4Tw0LRSZA3EAIe3kW6+prSkOQEin7VTLV14Ze5tjECBUstYgNB0FAoQ4kKBzClcBjPDyseiCCy6kJ554XLmy9tmnN339/66hpc99FllX1n/nzp0TAYTnX3iOPv/8cyU9vALaT1Lq6xto+/ZtSV5JXBcgpNKKrokBdI8ceSq98srLBiCUcRINQCgjs01XehyQAwRcxeId44oDEFazGySTAoSqAgec5QWCBJmQ1QEHceAiajXArHDhhRdpAQS0kT03S5mnubrdf9RPkjlRRg/GCFW+107gCmHBNSLpTYZ6X0PzrmUAQmXPbxMCBIuOPvroZuOD0L9/f1qxYgXt2rWrsme8CqjzAwT7HnjvNnh7AE0BEFgUg45HYCXyuIgAQRcYeNhEVz/vRSoUAyDoaC50kiTB5q+y94shmHbQg7dQOHBIyrdKXEbFpskAhGJztLjtNSFA0PNB6NixI9XX1zM7o26BrWrNmjUEx5mogjAphMyovGd1+kSmrzPPPJPZqAEQEKb34YcfFqVtnf6bWx0RILBrXSXOZ8UFCFmty5p4mKOuuKu4eSkCSMhXyKmEddAZsVCAoOqPz03UeIK/4xsPhkgG/60DNnAtcXFK88gTUzkAoXnwszhry2ulDAABjjfhY1fQSRFAoE+fPkzAQsAfeOCBLHwJjmgQvk8//bRLNT5MCHjcG96rVy/q0aMHzZw5kzZt2sTsih06dKATTzyROf0MHz6c5s6dS++//z5rH85tgwYNoiVLlrC42kIK6EBfiMTAfwE4sJF06dKF0RMHUArpt7m/C4CQyaQoHeM2XhyAkOw2x5YOEApdd1FCWxapUAhA0AUH7Jwv5DiQgQb+3G9miE6gpOJRPEBoeUKqcgCCauZa5vMyAIRPJJxNkQ0QPBMDPsB9992XCVpoC/bbbz8mZFEuvfRSdnsbLxDyqAdgAKAAQYz/vvHGG0zND4AxZMgQlk73i1/8ImsHl30cdNBB1KpVKwYqli1bxppD2t0NGzZQp06dmAYgiVBHqNFhhx1Gq1evZm0isxuupF25ciXTIpiSHwcAEGoyabn3vHMKBhCDN3e5ohjgJS8mSmppWoRiZEeU+zHIT9T5AQR7VpIAhCBIEAGD+Pekt1FGrfziaRDy+7Yq7a3KBAgtD6hFrQsFQAhugyyq2tUIJL/N0Wsv25iNDHMcOnQoi2vmQhwAYe+992YgAVoCaBW+8pWvUL9+/ejll1+mTz75hAYMGMDMCvj7CSecwP7bunVrpjWYPXs2IWxn4cKFDJSMGDGCPQc4gHYBWgtkdDz33HNp+vTpNGbMGJbDH0k5oBXgoAF+Bueffz7j5a9+9Suf2QP0nXXWWfTUU08xk0i+qthK+4Cbgp5IgCCoyA1AyHNmEpoZZOs4qQDmlAbfi8txkBwg1LgMSUofH2MUOOCgo5C7JRgQYZrUanViyXO9KV7TAgiO2DFRDKWZg7hWm0iDQI4GIZwoCZqBI488kp34uQkAAOGJJ55gwh1CHif2YEHmtWnTpjHNwp49e9hpj5sXACpQAAwAIiDMEfIDPwEUhCQBYAwcOJAWLVpEW7duZaDg3XffpeOPP566du3K6r355pu0atUqt2vEIcPMARMDwAoATUNDAwMbMG8kCYsq/9RXbo8MINRk/J4HAcHW1ACBCY1isrCchxZNkFDs5Ef+LIbxtvhCAEJyLYJFuZzgVCgxO6BNlaOiajmURnsgeOi4C9JbmY5OhZHmTbu32Bhosf/ngReHFeWIytACCA5jDUBQrbDiP08IEPzZEJNrELwBBH0QIFSPO+44piH49NNPmcoeZoZZs2a5JgZsMKgHACAW+BQAGLz22mtMawATRd++fVmVpUuXhrh23nnn0fPPP+/eMQ6zA8wF+IP30D+AhKrAJALwAPMGTBswLaDsv//+BJ+Kl156SdWEeS7hgAsQUriPwS+GudBqVgChkPu38llBGgChFMmPPFLVp2h9gJAKhDnavSTRIkCTwTFB3LgLNTMkAQg++u10mC778CzkuOvIfLtavtDVgQS+6fFSXZciGsMAhHw+4PK9kxAg+AnLHyCEfRBGjhzJ1PpwHuQFpoJXXnkl5IOA5zz0aPDgwSxaQMzRDeEMgAEzgli4cyM0C6LTI68DoIAMazA7JEkbCofI5cuXuyYROFgCNBiAkN9CtgECbnbEDaDygtNc69atmswHgVOV71ZsSzHJ2NSyMz+mBt+KAQkq81gS4St26/kxqIegBxBsBvrzICQDCNzMAYCgM+5CzAwQsCxkNyDsHYpZ/0HeRjt22gsl37lQz4C6BugVzUQ5hrKSLeCCAAK3eKtJbWY1yqduTAAQwv4I+QOEaBODbCYhtF9//XXfI6j24VcAHwGYHGD358DhgAMOYJoDpN8VC5wbYQqAmUIW3gihBA0CTAO8PZ2VBc0HNAlbtmxh1WF6AMB48cUXdV43dQIcAECoq6uN3fwwV61a1RUMEHASy+Zy7FbA++67j5mXACxFZ9WJEyeyVL5RtznmBRKiXkq2v+a/diIAgkpIusBIQwshAwe2UFOTrQYIgj+TL1GS17ZKeAZ9IEQzQxSFhZgZ2MlfMng1nWHgEEWfDGSouV3cGmJOCLTs+niwblx7BvPJKAggFJds05qEAwkAQvjtcgEEfEDBjSvK3GBvQOH64samUp/qbpK8TThNwvTBAQnvX+d6YLMqwxwoBCDMmvUim4ebb75ZeRfDKsckhPkeO25c3gCBrbkkE6mq3AQgIema59+ZzrDD3676rXiA4GegTIMQT5//6mg+ezo5UfIxM3ChrQICUeBL9z01V/OvAeWADrCzAYHdT3R9LxvlGWecQc899xxls17Ompwl909pfj4I5bYtJpl/W0uRB0AoJIrBI9Bc1pRkslpW3UIAQpLLmlauWOGCybIABBUwEKe5UJCgo4V0dvB8wIEuQIh2dIxf09EAIczEZABBDg74SVfFCwjrpGaGpABBxpl8NA9cWOsK9nx2mUKBAwcIIjjzRZMwjYPt/TByxAh62dzFkM805f1OHgDB60tPgxC8ocze+QxAyHvOmv2LzRIgJAEHbGfPc5rFfjTa0KgSSYjqZBuvqcsHIMiZGAUQwiAmGhyUCyDIc0HkNwv5goY8V1ZBr3n+J/Yc8nTUAAgILY/T3vB3R46MAgiVfBKPY1vl0x0DEDK+a0hkw9QDCIKjIIeylmUAQkGfW/N+uRoBAhNGUdOSFBzwdpLKjTydHpN2Iw6zEIEXd7IVNQhi1KGsPz2AEA8O+JhUZoZCNQgqUOVOfUSoZT5fvq7jY7BtP9+je/bq2Tz2h7PGh4+OGjVKCRB4zyNGjjC3OeazAAp4Rw0QfCcSPtn2j0OOGkqTJ09m2QMR98+d9PAM2QsfeWQiLVgoahC8xQINwogRI1nOA1MMB0QOIAlVOZwUk5oYkGlTVXwyOl9gkA9AKMDpsRCAED6lq6MB+PDiAAKue5406QnXnh0HSrKjGynzjJcoST5H4iijJ8b2zJdzhAu+JCYG3pb4ji5IsE/ahc5O/IqN00LI+o6iJ186ZSaGKIpHjDiFRbX5wty5KS14GA/71NvNFvpNisTpLSnVluF/7hexhSxlvX6DyyvAn5UrVjHZLl4VPn/+fErV1IoaBLZUQx0m1iC4Ldhhjlgcw4YN0xuIqdViOHD77bcrAUIxwhxLChCKtRHpyAdVXxptaFSJXH9cyCQVEvEahAvp8cefkPYZFGrxAEGxAwZ6iAIIwdDEpEKeA4Qk7yX94JPyP0n7pWo7EUAYKQEISQZR6ro6wr2kNOg4HiUjIAYgpO3humYBDhK83ahQDUIqFZFvP9kYTO1mxgGoeVUaBGy4hd7FUAqAIH4yRZuWKOmtAgacAA3pr1ElFiDkK0CiQAI0CMieKiv6ACEZOOB9Bc0MMqGuq0WQaRCCYyomaPArHAqZ1dJrL8AHfYBgkW1iCGgQ8vnIFIIcoc9FyyKJvnS/03zGUuJ3kgEEF6DYHNbTIHATg7BYg7tC4JH9Uek4cOh4ZEXpmhzOhmiJ+6h0aOIzlgovDNa0Si8l6193nEk2hBi+iDzRVHEC7LEQsIivgceAuzHRmu0G1z/fvGMzKTZm6eYJN9MNN9zIkm/xAhPYlClT2B0cuMirVACh6CBBtSR0NgnF0kiycnS6060jAwhYGkidHgUQbP5661euQcifaSJAiBLexQQIcSBI1w+A7Szu/hInkfRmOl/ApzvvvJ4uQEAWSiTTe+WV2bRnz+6k3ejVVwlz1dat10vT1YqjP2LsaoDgG47f4KOvQdBblPlxLonQln6Kkh/jIGbcqUQBbELamIgRC86cefEE7ws7SzgvRFJVVDRAYUlf0+nIq5n5BhvcaPlm5m1q6pGKG3cUQJgxYwY1NmRpwi230I03NhOAoIMrVezT+AQ1qqh6Sfw8Cp8XBhAKU7lwM0PcyR7PYObyheTFXB3NAXJiBklfKBwAqNJ4BqMOouiW43z9lZQcICTQIOgK/JKd8AuVTXmsFoV2JEmL2NtXrFgZ5YMAE4M9wIC8cfvQBwgiWTGLJ9HJNTCrAe2G12NSYchGLBCso1EIsj24MpO0EajL8q4Legf3cUSbAggJehSHsJ5vWpLQaL/INsk00iHLvzDdTdFOcxt9eU9U1kuZieGF52ewLIi3fOc7TQoQ+HeT5IOMrava7HQ60ti3Naro9JSojgwP5w8QVCPQkwaqEzQHCGHwLWQOdBweo0ByIiaVubI8LFGHCBX//W0UBhA093bJtyObN53RFVKnqKaLoEgNLev8ecObTqcy7AqBCCdFxwchhiP6JoZki4YLH7+pgQsl+7++Dzj2xK0r7GUDTYLUZXV1xh01kXHoUxOZJgJcukvf7jvNEsZkpC/ZGyLSyuq26dULmiCinMaiNAiVBBCKDhKSs9P/hsZy1KhSKBWh92UHEBVA4HsE/uuZGHSoVy9KAFIdvwBoEGBqCIKJKK2CTptFZ26eDXpjUPPL2ZHz6kkPIMAjwHJMDAk0CFEURYJtTaEaO1LNvTkvbuXzUrz8iwMtmUwNLft8WTkAQnBgkg85kS8A2x4Cjao2h2TCHgKotraG3QypOk3ET1vMBEWpZiK9WuLMGxo8jtGMqD3RuTYpxcwJcZudrn02jm9caxAVl24AQj6bhV4CJtWXlGfPiV5LDhDkYDXcabzA0/E/4G3qasjE+omY0ISVC9vz9AnXAQhMu5iiMEBQadWKqG7XGpGKHq1GKqASS6sNE1oNu5eoxBoE/42KxRl+NNJr2xYXJe2ggw46iAl2XN0sK92796CePXvR/PnvUts2bWg3c3xJ0T779KJBgw6jmppaGjhwIN19968lFzeVCiVGgZ58kK39zplnnkUvvfwS7di+nU04LjjauXMXtWrdinp0784WAuxMjY0N9OUv/RfNnDXDuZTI9mNgax7+lo5WgIMDXKt91FFD6PXXX3OzoBUDGGCuZFqDIFCoFoBgn3SLs+qL0oqG9NeoUhRS4hppCoCgE70g0txcAUK5wAF4GQcQGB3s27FXpO2kmI8GQX5IK4rKPykoSFq/5F+avAPs85AXn332mdoHQd6EpRnFAICgK+CSagXClB166KF0zNHH0tPPPE2PP/YEnXX2mUIlb+s74/QzqL6+gV58aRadfdaX6IgjjmD1cEPktm3bCFc/33f/fTTvnXeovsG+KTI+XiV+W2U2ryC5QRdl50KUkHrPYZ/fkuK0JglDxW2SPKnPySefQmecfjo99thjtGjxIjr33K/S/n36MKkFFelxxx5HP/rxrfT6G6+zvx/9haPprrvvYvyoq62ld+bNo1w2G3JExG2acALEDYgbNmzQUsmq1nqUOUF8D3WwkYP2du3ahm5zrDQTQ8UBBG+/jZ2OpgYJOgCB8zY7OkuZZ3Q1CPLvWKapitOScf8eFSgW/YAq2cRQzPBI1XcuPk8GEE6NzKQYL+xF+ePFWQVDGcUILG/9J/kSAnKuSsCAbL4y6QwhMk1TgyA/MSf3QZC3wyaGHVijJkMPOOCaZ2R8mv/u+3TSySfSv5+dSvfc81t2VfTct+YyPuA65zNHnUkLFy6gWS/OYg5tEKjIBon+v/rV8+iF51+gpZ8tdbNH/fd/f43+/e9nacOG9TZMCBwJQ7eXOQvDRsAYWAgZ+H9w6wgVpX4V8fYkNLrXXnvTpZde5l5X3HuffWjo0GFsrL/4xR209957s6upd+3aSdu376Brv34t/fWBv9Lq1avogAP60Xe/813Gr27du9NJJ51EF198EbsCGYhSLODZN7/5Tfrzn/9Ma9asYY/23rszIV/6P//5T2aaSVpUaW6ZbKtCgFCNICHJtph0nnXq6wAE/okUChCi1l2UQBf3KdX1z9UDEJpmxpMBBB7muMeO0hK2QxsgyIrwq6bJIVYeKYS+C1Tcvhwi3VutRCICBAXGpPOduIMuREspMs5pp7amlnL/ueW2pD4IE5FqecEngopVNYrgFKvq+1l49NFH009/8jMm2J6a/BSd+MUT6dYf/ZCppTZu2EjHHX8cjR59LrVr25a++73v0NKlnzkC325n39770vXjb6DbfvZT2r5zhwsEnnziSfre979LCxc65goXKMpWnLOCnDQIrIY7LD8ASDn/dBT5wmC8era3rf3I53NoS0v7Owl8KL333Zep7g7oewAh4cz9f7qP7vzlnXYjAgi79trraMf2HTTpyUl04oknUZvWrel73/se/b///V+a/+67dMwxxzA+dmjfgUaPHk1Tp05jJhhcbY10m3/6058JpoZbb/0hrVq1iplkrr76GvrOd75DK1eu0FrfqKQDDDg44JszNua2bdtUhQaBM6KSTA0+5VXETDWNyLCJUQEEkZfJAQL7mlg/cWtPBhCChxjV9c8GIMRvA1EAweVz0MTwsmNiYAugzCtUIkidnVlOCwcT7L9CNJq7oft5wzUY0iRNUmBSGh6ADpjYcQX38uUrkvogeNJIL8xRNDH4B+QKN9kJ2se7oOZB+LfvXft3JHfYp3cvev21N+iYY7/AfuvX70A66KD+NG3aNPbvBx54iC6//DJ3Ytu0aUtf/tKXaeDAQfTPf02huXPf9KRySI5xLnkAACAASURBVMALSZD8CMChWooOIr6UOK2AXOPiQmf3cfhDgX/AiFNG0Lx582jIkCF05y//19c/NA03jL+Bfnb7z9jvffbtQ1dccQUDRT/+yY/ovPPOpxdmvECbNm2ic0efS/v23o/Wrl1Ly5Ytoy98YRg9+OCDdNNNNzENwumnn05Lly5lQExX2HOsEhfeKBIcND9Ukw9CJQKEAFbUBnPlqhgHEIJAKz+AAHCgFjAiSIjScKq0CN78JzvwlIvX9lrweCGCmlLToA0QLMcHYbbngyA3KzgyJnh2cxzvIjMkKjQDSfngCXv+ph9d2FTav3naj8B6jNV45AMO9N7JpGuYHMjmGmnF8pg8CGKsqGtDd7McJvVBYMtQ4LMtRHGKtsQTuc+mbgN9AUT6Wwh8b1xWw49gwCEDqHPnzvTAg3/1ZWXkY3rqycl03vlfZfScfvoZ9MMf3EqXfG0MrVm9mu6+67f0hz/eS++++y57/vDDj9D3vvddZo8RxxBt97JD/GQmBi9wQT77eAchhOJC9iIMOA/jJxpmhG/ceBPd/Zu7qXfv3sykIgIE0D3mkkvorbfm0ieffMKGhP5gYrj00kvpJz/5MdXW1lJDQwMbf4cOHZjDCnwzzjrzbAYa3n//PZ+JAScpXLx1xx2/oP/+70sYmIgrukCi2sMcgzyoVC1C0g2w1PVlACGKd/kABDv3hj5AiKur0iJUE0AQx1kOnwklQGDMs80JI0eMpFcEgMCEK9OwSgRrkbBY1Kle/D0sB/z7c6xmwHcK8v7h7vk+G0KUCiP4u6ua9n+mQa2Lo9kQK4FyaA/AU2gQohMl1WVsuR1ypPOI0fdBCIIDW9NtC0IRYQVOzD47fIDpsoXh4LG2bdvSmIvH0PMvPE9Lly6xfxX6QktPTnqKAQREM0At/utf/4p27NjO6g4b9gXatGkzLVq0kP37xz/6Cf3hj7+n1bC1i9qEUJgip9EeB/t/0QXB1TYE0jCHNBTelMnMCwHjm1DZNjd88YsnMrUQ/Aquvuoa6rRXJ5+J4corx9Hrb7xGH7z/vnDXhsVMB5dc8jXqu//+zIdhxowX6NU5r7L2cWI/YvCRtP/++9OkSU8y0HDzzTfTX/7i+SAAmF1zzdfpttt+xkCErPD1pLM5xzktVqMGwRMUpRav+u1ryEj9xopY0wCEIjJToynZd1kRAMGzw9pRDAGAYA8t7sAU/SxOcPt8CXxgQ+8UHs3ygIyL1BJEaY9jNA6imJUCJEG74gMLntyCTMZhMJvNUi6XpZUro25zrMso7qvQ1SDgLgbPGOOqU4Tx+x3x41C9k3zHOfHKJyFF8LDHyRmOiPZJNTipKRp1xiiaOm2qdxdVxE4Z5ZBogw5vZGxuJGoqzwogG1fEIuD2KgmgiGpP9FXwUEyKBg0axC4+euedeYxdmNQ+++1Py5dBG+KpuTgj4J/RZ78+LEpgw8aNDGRg84BG4bjjjmdhjbt27SaooYYOHUILFy5kERM6IV86UQp8TlUaBgMQNHZ9jSrVABBUWpd8NAj292r78MQV6Qk18ALqqKIZ7P2iSMdajXlNUiVoXignrUoNAgcIEWGOwdO7K/Qj7PwiX5KFOUp8CDg28ZkJuJSW7O1RCoAoTYjbLhN4HhZKMrluXT1gg30da7kx28C+j+i7GBhA8EbET+CiVkFPgyDkQXAEH1dpuwsxoBGxbWB8ZM5p3Pm3t5gDH5tNWPDTFf4d3gnYAuGOEGJzsslw2/b361fJ+WmWXczExoaJT9vthDeoMJ1BJY7PLio2EtBoeKaJGHAiwygcaDodB/c1/JzL2m3W1NjZ5FDiVK264EC3XjUDBHvd5/WVl+QllZAsSaeKRrkGQYdPhQAEnJbgjIsDBUySvCAKB6D4nHPOYesa5rb6+nrmlMvvYOBJ1KCx5GX79u2sDtYnCurAgfe2225Tmt2ags/29qE2tZSKtkQAgZkYZtMeREhx9Szf//L8nvJR/3sfr8S0wT7uBNySHCoTvO1UjdrEhSsPpZ7uNv2iOaMmg3WbYuYFHCYVAIFxP/KorO+kKBuy44Mg3EIWh+iC3vr2IKLz9/t6lCG3IAiIQ2jBSXTqhiIYLaJMjRgOGNOoC+iiP06/70EgikFi+mE/QXg7IET63essXh20KpCtc3pCVkpV0QUHNjCpkV73XIl5EKSrX2ceVAwr0vMmlA+RIygHQEDntbV1dP1119Hw4cOpR48e1LZdOyYw9+zZw7SPXPhD5QpNmb3u2jC68RtAA3Km4HfUD76H50jW9re//Y3dJIp3Kq1ULEDw+YJLUi0Le5DvMOSiShzG+EEMh87ANc7Ovu4eFH3CPUK7qxToEe/FTbrQZuhQJ+zFPvnoOF06EtppXSJLpFoLW/gEwRHyHgAgMPOCZa9TPYDAcUrA7q+rQbCFuzjbkoH4/A0C3BRsEJz9EILZxhwNHTK0Ir43OPAhERHzuhTViZL1Ip6KXE7E7NJBoODTTHCtgdOolYOTY4YGHz64IvgCX4TFSxZT69atIulJAgx4I8UCCOlMmnmzjx07liV9Qs4HOG7CB4OXiRMnsugXnA6LWXROx8XsL3aParpDpJQsAIRJk57QGn6+GgQOEL5+zTV08kknUadOnahz166Og1aWCXtoAwAAoEHAH6wLAASmhm1sdLOswqyJjRW/oR60D/Dpwb/xDbzzzjt05513sqRilVYqDSC49AjmBfAMPgiz2XXPe3xO3GF+aghp3yFIoX7nAtw9GDqgIybMMpn5QrIiXPqEm3lVWu58FpbAB9ytgwRJyKrL/QtirnvOCIYPr2dx4LoAIazq5hMSN5Ei8nMRiv0Xx3YIgPDVc+1IhKYu69atozmvzSErlQvYDaJMJNyJIQBJXZbE7djeRUjBjxtpy3EqOvuss5uaJax/3AaGLI1RACEfcIB2I697fmEm26B1bnNctWolA646AGH69OnsBFnszbRSQEKlaRGSAYQGyjxTm9d6r6trRePGjaOjjjqK9unViyUR69CxIwODEERYS926dXNNDDAZYO1BswDhjz+oB6ddgIJdu3Yx0IDfuyEh2e7dzMywcuVK+stf/kLPP/98XnSW8qVir+kktMpMDJEAASYGpFqu36Pfhbu9CtJV6p/ggQR+suad+J3xPJnlmajl5ET6r0hP9byNsGrRpiwgD0IaBE2EL9MOO7+x6AVC9IKn5VoRlQehti7j7RmyAVlEyU0MwuBjBaEf0YXNJ7bvAAACwvIqoaxevZpmzZrlqGYcLQI3RgmRDP7kSDblng1IllTJYZTAEk/Z4k0Md/6EBgGb3vnnn18JbGH5EV566SVmt81k0j5nrnzBQRxAmDlzFjXUN9CEW25RXvdsAIJ/iVQCSOBrGwm+9DUI+QMEaAfGjR1HAwcNYrbtTE0Nc3KGgAcgxH9RB9eaZ3M5ygIUZLMs2Rq0mDArAERgfSM1eb2gacBvABpc87Bp40b66wMPlO67jJpABQr1OynyPal0ZIotxwEE24Tr7HFCHoT6PfWKzLsq2hUaA9XrCZ5LNQkheSrSI1MTCB363g2CiWiQoNJoQAbVZGopm7OjF3iJzYMguDgwxwW/8yAAwjCaPHkyS1OMsLotW7a4Dc+cOZMeeWQiLfwUUQx2sdevfBB+IalGQzgpwweh8gCCp5oOriOfzUcwqbgmGJE3oRBKobWQjcLjF/hSiQCBX4ubTtt3QBRaojQIAAhAwDd/+2a64cYbafHixW5XWJ+wAzNtz5w5lA9AsNexen0mGZ/RIoSFUlkBwriraNDAgbRkyRJat3490wDwOcZFbkkKAAI3Q4jvoT2AiYcffjhJc8q6jM4k65E7inOTZOBde48vn4NMJEDwmRdsepDGnV/WFOlcGDwh8wRJAa1B7Om+mMNnGowEgCSgUI5eAGpwoHTAFPqCeQF7NHNOFNaEGiBIrQB2gMPQIWqAsGAhBwgxm2qc/4Hg6W9X80wPFalBIAd9ec4FbI4jF6Q/xtOt69tcOK5i68yvNQjeYVGpAAHqVwhuvgEBJBSyD6kAwoQJE2j8+BuqAiDY60MpC8pSIYmsKTZBIg/KCRCuvupqGnTYYfTRRx8xHxSYGaKEJBf0wbFD+MeF5u7cibtPttMTT+j5VcTxNjEoUE2UeFgpczhmECD4zAsBkeHlQeCX50XIlODPzP0t7DcQeap23vcdWl0eBrTDzu/+LiV0uUBBmAyZqUMBEILmD1s0BGRChEnCF+0f2G9gXkAzCG8USyRAgIlBDEeUrTEdDcKCherrnvtQiroS0dtOvoR2KaLBFtGcGDMEeFsugACVIxIEBU8EyKzIHddkJgbpri9kcJNvQt79Cv0pTRmyiCWrThHtTUSHW0QvOoTYSobA0mwCDQJyLfCyYsUK2rx5s/tvbmLANdPYQBsbbQDFVFo1+WsSmhIg8MEVU5NQKQCBbTjFVZCoxJP0MyknQPj616+lwxyAgMvekIk07hQtm3eVuQzmCoCPp556SsmP4D7D/l3uSRGJSGCiSKp9iAYIQTZJohiEKsrTMt8z2aVOjnudBJSzdnz7qieSfX4AQU2FuykE7l0IzbZnMrE3Qh+j3X+GaVSYHnwNxfXh7w//cpMjBcwLGHnsXQz81CsLocSzo44cmtDEIOw8Amq9zkrRqFyO/itjM+GQ/9yd8FDWomNr0jY24qhK+EjKaWLAJUTf+MY3fFMNNeQf/vAH+uCDD9jvfoDgVcVERx4OJdoDT/gQ/YhS1C6Xo1sydujkcPClMUcH1qBFiT8HWJUtvw/CH//4R3fAuKPh1Vft7IsoIkDAv0WQUIi5obkBBLZXtEAtQtSYywkQrrvuenbRGDQIiDJANENSQReSA4EfcJAQAYIagChOx3FrRXKCjpJTKrqlz4VJU112peJjrAYh0LmdatmOYvBusBMqxZ2+Zc9EIS/yTMZboa4HRkQChQY06QiDGidiQYYF3N/kxMU7Vnp0in3yv6fS6VD0An8jVoMQfUKyidRyUnR8EOA850XkiXYL2z5ztEU0/j/2op+kie7JEo3PpGgZWTQpR3Rnimi2uyjtiSinBgGnizPPPJMeEByMYMcWi1SDEPP1+ZIdxZwOvpYjwnVTT6RTdG3OYnxpT0STGnN0ViZNOKuLmyw88utqy+Ok2L9/f+YIiD8oSDQzZswYeu+99+jFF209RxAg4DeYGngOi6Djou6GVQkAwV6HxTtuG4DgzX45AQJuNR08eDC7ewVXl++1115aAAHfcDAHCPwPZEKTmRi2baO//+MfoSUuNz8Wuq5UJ84AGYV2x73LnO9B1hzf88S9LxFAQKplRDEwgCDQH30CcyoJJ2qZ6V4wXYd85ILCXir8wz4GoYyO7ARgkyMK8/BNvmxXCdSJ2xX9nPbMJsJAmZObpA1nLCw5Ei5nckK72Z7m1I/xQUCYo3CfgGj7dvIhJDMx+Bes7Zjn9JAi6mBZ9FUrRV/P5eiKTJqWpoiylkVPWkS4h9ADCDYDyw0Qrr/+eubcxsutt94aARDCToreWL1Xwk6ZspVL1I1SdJFFNMrK0TfSaVpCFvUCQMhadFYmxQCCLaicfFZlNDEEAcK3vvUt6tevH02aNCkWIGABwtTAhStMDaqTRnB5qwHCLTR+/PiS+CCItBQTILCvoYVoEVTjLCdAwP0hCHPEFedr1q5lQBfr0faTkU8IQEDwGfdDkK2JnTAxbNtGTz/9tC4GjnToljeQZOEkQQNh4SftX6Hw4O8EeTNq1Ch67rnnwqAqkAMB7zMfBA4QwjArTFZAMPpP7PL9Npa34mEgRuAG25D7Ojh89QEOMeeBeIiOWjJxINB55tAc9qewJwy0YS+1kyN5iQc5ryJNDJmatDvlUR+zLkBw5ynAVNF08UWL6BsW0aVpopcbLRpTk2K2d+TfQ1ZfdnOUUMoJEPhmIfZ/zz330O9+9zt2WkbxNAgACPKJ85tqFAuAqVuIrslZdCQR3Z1K0V05my+4BqnGsshzJ7GnExOGD7DcGoTvf//7BACFq59Hjx7NEg0FNQhIGhNcRw0NnsdsUpAQDxByZDsplh4g2OAsyYarlg8q4aluoTg1ijwslyid8ZUTIOCyNtxE+vHHH9P69eupS5cuyrsVghkRWdh1TJbEoIkheoZ011ISQOCKZ82FoWpbk8aYavwRNAjIMRLUusD8KJ5kgwBBpoH1ncy50IlS9wcFMz9lcQ4Ft3AfS7x/2Ptu1ED99dy9ItRW2DwR1jL4NQ+sLSEE1JH28ctKMoZ0Ks2AML97IdiAIorBxhh28Rlh2C9DFD4IExHmuHCB3/FCMoSzKc18EB5Lp2gOWXS5laLjLYuuErMWOxzgmwtU6eVyUpRx/f7776ff/va3NH/+fB9AsMg7GfskonDBlOrz4zy/mFI0KJejZ9IASxZ9zUrRcWTRZfzjcQjjiwlx2fguWpUpDwLXIMAPA+lkX375ZbrssstYyGsQIECg23c1eNwUNQneiU1vD4sGCC+yjbqcAKG5goSWBBAOP/xwdvEYtIQwMQRNB1HRC3qrlZgzc7yToqbQTZToX0VdsE/1zuRvUZfmaGWIaGJgrWEPY3fVCD05wjx43XPoZJ7HcOTOjZIDnsyk4UtWFMgr6DYR0Rb72X/Kj7zjQYbvohQg/g3WY2JEfRa9QOHoBfvFFEUmSqqptTUIDKk5E+Tjv6V3myMAQty1kNiEbqIUfTmbo1OdewwOtYiezOboyJoU3ZIjejqdoo9cnGJTUU4NAiIYYKNEDD0vUQAhZwVMDEEEy/kZOHnyy5vcwf0nT/ztVora53J0Y9rOnHgSpWhSY5YG1qQZX36cItop0ayUW4MAXiCGHJvgVVddJQUIQKniZU4i0ONpjZM4LRqAoNr8C39ebICgozngVJdTg3DVVVcTAAI0CBwgxJm8ZD4DKg0Cohjgg/DM3/4WkHw685REcKtPszo9yusE2o7DB3Hab6HxqMuaZP2P4Nc9u5c1hUGE772Q9kCitRWFvMSEoPYXCMtgjy0y9YVfW+Cp/sW6Tp1I+gOIIUpLopho27xQyxIjIUGSDQm8icOaXrFiJdvPEd3DCw7FqZrAbY6i2pyrVFV5EGwNgjzM0baZ28TcZBF9iQEE+9+HEtGTjRYNqUnRk1mi/03DB4GT54ShlFGDgFSrxx9/PMutzgs++DfffNP1S+AmBp8GQTZBMoTHk5cE6t/+HwfNdlaObsqkmbqNA4ShtRmalM3R2Zk0bRIjO5ycKeXSICAcbNiwYezExQuyxr399tuEEFAU7qQIEwJIDd74CHbAYZGrZ/EcjouqUmkAAfQ2R1NDMUFCpQKEceOuYgeAD95/n/kgxIU5yhwT+dyL93cE1y98EHBfi8xJ0a6rcxqPAgo67wr7p+rjkj7X6ENXUAlNJQEIIR8EfgAP8k922ucsjmChK6j5go8aC/tdAjREnkXWUaAmGYsjsaE/bsHLHxHUSojKfz/d7t0LLDkS9z/w0xhtYgBA4EoQDmjwLv+7ZSkTJQEgIA+Cbyi+/u3GTqEUHZ7L0W+cK5B7UorG5iz6RZpobI7o+RTRYslJuZwmhj59+tBJJ53kgpqHHnrI9xmJAMG3VsQdNmrh+lrymPxfqRS1yln0lGNS6P+fuNRxjC8pGmdZdC80CIGPuSkSJYnZLBHiCHMDL26qZWiHHEcSGUiA0yK3Q+pENlQiQCg2SEgiUPPa8zVeKgZAyGccTaVBQJgjfBC4wAjaxoO2b5mzooytxTMxaEyatEoSLYROHzqbmQJU/CfXTUEAQSRTNF3G5DlwQ+Z1hhhbRxS2muoS0TwkOlD6AAX3OBeTOykApDaw8K+BGmS0TaV8F9N5At4W/vGJkiQM4pnw8F8dJ0U31bI4gcKA/HghWj3mpgzgYTRlTJSks5bkeRBsnwAGtKD4cAbh33QDH5oAwvBXdnVzcIfldjpUcBljLyK0XS4Tgw5fRIDAhmbBXBIOD0NbzJM2ZyNZ2yQRvalVKkAwIMG/KvIBB2ihnAABiZKQ7AsmBqhSEcXAfRDiHA9VyZFEToQBgsaJ3G1AVwDpfJG8TrEBg07ffvU63ogECJJDenwUg07/gmOfb/gB/ganxhM+8nBBiWre5TLf82UaoiAwEOuEaGBSxNvusdEH6kgdNzntbvIne6yoi/BG7LfZnGMWl2C++DBHe0d3JZw7Z44zXP4mBkEKyuZVULnb3XvZBXn1cvog6Cw9fxSD5A3meyDfFPzRDc67kc4mkg/bmQ/WRRnDHHX44poYam2zAbRJwAAykMDtuDYItW9sjCqwnbVp04qmTPkXq4KN/I47bqeZM5vGSVGk05ga3C1DZ4lI65QTICBREgDChx9+yKIYkCgp6KSYdCDBNcABwuTJupkUdQR4EpAh3WiTDivP+tF0ugAh64XYRflhMoDwspMHIU9KHGniva1is2tqiKoYMTaVgiX0XCYTJSgpqIVwkUjoL/JkUk41ZspNI7yxkR1CfZoDgbfRPgi1tonB2dW9VwQhp9IgxPkgRM9vYCJCPLLJKmcmRZ21KAcI3lgCB32nSUG9EEKDQq/Si7f9VIlOf5WoQaitc9IqW9CK2OsxTpPAN1iYG/waFJuntgahMICAOQMhSa571lkLbH0WQzfPPz/VJqZLVJHq6QwtX80BJ7G8AAGJko6gee+8Q2udKIYkeTmCJjN2KnPuHeHrwEuU9PeIWch3kpOAhHz7yHfhqGkryMSgbt5HOHeWZ06m/Imo6g8LO+cXj29xDvfxqCMhsT7KRfAQnEOpqiEsrwOvARyAD97dCzIwEmNiqHEBQvTAVAABtzn67mIQpaSgnZBnEhM4JJGu1QEQ7DEw5zxX1eQJD7YJ+bRbAq+jNAgRORZcmynyINSUJ5OizrbBNQgcIDBsgKyaZDteRmkSRNuv57ToMatYAAFmDPg/jB07lu677z4WioY8DqLD2cSJE1msNhxTk5RmARL4kpQrrqTsKBQcoNFyAgSYGJAH4b3585mTouiDEDXf4voUtQ08HDLou8Ava/JrEPIV2EmFTT79RPWRtK04WlMBE0P8uPLVIEiFum+ROv26a10uLN21kIA1/G4HrUODSusgLsao6Iu4DYoNyx5bbSB6IWw7sYnRyIMQ3aMOQECYowvWPBsFsbA+CaODm6ov8kRYm9zEcM011yTZs0tWd+XKlUyIAJEFN0h/qEwUCYHV4VujbtpJ/8sB/wTbJoo8CK3pa1/7WsnGmqThRYsW0fPPP0810CAEjp42SLA1CcETmxh3LgMRxQMIuOI0S1deeWVFAwT2aSfdm5NMlKyu4nDi268EZVih3ZYbICCTIgAC7mLgiZJUGoSoOwi45iDIA88H4cngDT0J2JUEGOS7WJL04Qkc/UGgfY+2aA1CmA6WByEyk2KYAkfXHH4g7q1xbNJY/7KERlG8iD0Ia/TF2nXZZxPuO18GBaoAIvir+C+/nCkqOZJIvzKKQbYEuBDXAQih2xxDDnceOfwGK7tK1Mw5jn9wUszmfPcj6C/S4tfE5oLESfUNe1z1cngccatAF5bG78S4rKlDh4501113FX+QebT4xhtv0L333ks1jg8Cb8LdgC1PkxDclLEJ87UWVOM2BUDAKTBJKaYGweVbDAG6W7tKdOi2k4QXqj59YIOILrzgApayW6c0jq6nmme8EGTVO+L4cMsoDhkwMUBzpJMHgW22kf5Ecu4l90FIONFJGBzVtO7EF6Mvh4ZIgCChZcSIETR79mzajbsYpCXwkvBP968Bpa1PyuqOX3NqXDEW024sLhAtC6pFneB5BncvML+t8LUALj8cwqJvcxTzIEQcXVSZFEMmBt3Z8KnX+cj9rOQmhnbt2iVgTemq4uSAS0QyTi4Hryfva+LOd/az6NnXs/H623W5BH+FnEVt27Yt3WATtAxVPfhSU4s8CPYcBoETNAn27+GdJwokVANAiBMkCVjoVk1y2IlrX7W/F2GfDHWv6lN8Af1fcMEF9KQmQMiObqTMM9EOrUFi+PhAU6tWrWjsuHF0xBE2QOBOiuJalEUyRDkxiutV7BfmKeRBeOaZJHcx5LNKivSO7om2wO4SAYSRI2m2RIPgkSpZuc5P7pwnWYh8mw4uTo0xh/qL4qfqdxW9OudKsQ6PXrByLEESK77n/sEtX7ZCnigJdzHI1L7uBp9KKVMt2wCBmxj8IX8qHsuzlQlRfU6Yo6qdcj+HIIxOeiIX6kwuOsIxuB6iT6F+5ZIIEJAfotJKUIPgpw+KumQgoVoAQjlAQlKBXiygkWSNqfY5d/06f0kCEBodgKDbh0g3AMJll1/OAMLHH32klSgJ7yMMV1bUtzlGOSkm4Wa4bocOHahnz54syROLgGMCwL5QioMZO0ooR0haxot4q6r9G+rb7yCRDkp9/R7as6ee5s9/tzAiJW+HAELMYkYmxSBAiHUalGgQQimcdUck327Vb8e9F3wmW8AqAKD6+ANt4u4FzCsyJ7LkSIr2IwFCtJOi16PqumeWKGnBJ/q2UxanFzhcs4O2Mwr+3FHxQRAOPnywepLKUAMqxM8+/4xS3h1XPqNxtOD3PxEBgZgHQKWutm35jkMkZejQQ5GPsunL5i2bWVZFDhCifErsAEgOEuyNyhUazLfC/sM3vGoCCKUECar9IWoFJNmLirWKVAJcHAsAAkwMOu9wDYKqrghCeF0AhEsvu4wGDBhAyz7/nDYE8iCIYxeTIomHJ1FrEPWdchPD009Plm/KusRHTMZpp51Go0efS4cccgiL8AFN6BOCHtpE0IvfYCbDmGtr7Rz8yHwKDUnr1q1ZXdCP39AGfkPZsmULrVixgn7zm9/QvHnvRC+HuMUYMT5pmGNEDyJA0IomkAEETkdoQy7WKpdcXyQ2zeSZ4EoQfCb+W1R1yX6XkaxYR+HohYjzrENntInBuYtBnujHpjwvHwTJoNw++DPu8Q+BEEyWw7r2rns+d/S5RZzZ/JtaOzo5pAAAIABJREFUt34dvfbaa5SzsuxjFBNKMXEXMXFBc4JYz5/4wm/3lN3dYAsieKjW0VlnnpX/YIr45vIVywl+CEGAYI8trF/zgwQ/UOAbMd5F2uvihDkS2zh1ohiS+iAE2agCeUnYLuNekvf9nNVL9Ju0/WD9JJoLHYDAV49oYlDJ2eCeC2F5+RVX0EEHHUSfffYZMwNE3eYYNDVwR0WdhEmuD8JTGnkQVIOQTATAwZiLL6bOe+9NHTp1shPgZLPsD74VaDzw9/r6evY2TxvPAQH+jT8AB9CCiO/hneXLlzPzy/jx10eH8OqiVT6+hJkUR4wckchJMXjZYXAfjjU78IOqLW7CJSnAyFcDIfuI4uiJAhVODhpoD2wHcMe8oBiHEiB4MttuiW9yEESqREmiD0L0ydHbquwTcIxBRJipik2URNyu459FXzIkqY9FGET4Wgg5JshXXKUnSvI5n4raIZwV2b+hSbDH5rHJW3t8U66rq6W2bduUNVFSoQBB/H4KFbbFeF/Yp4vRnLKNKLkn2+9UAEF8RxcghOGo54Nw4IEHsntDcFpGoiRVFENwsGIWUBkjdu3axU70LMxRJUjzAAjnnDOazvnKV6hL587Uc599mDYAwh79QlvQsWNHBg7wBz5Bbdq0cQEBfsN3BfME96Xi77Vv3561A74AJDz44AM0c+ZM5Vwrx+i0kCQPQiKAINEe8C1GTbxQo5gfSbCtJKBBB5DEtccy+SI5EoBiY/gCxYg1GQkQausyFg+b46c9n5CHBmHIMJo8eTKzfeHGJywiXrCIgk6K4dNy9KjjwhttpGJHMYj3ACSa+CJX9iVKCgAAzzlPSJXp9A+HQi4M/RqDQPZIbj8QLC5B8IYPAO1VYqIk2zeDlxgQyHACBhIECTaQ5OGP2PTatTMAocjLuOTN6exzIIIDBO/4IF89+FUHIEQduqBBGDduHB18yCHsDhHcxYDTtgogiNoECGMxOZKMiXzd6mdSTDYVo0ePplNPPY26dulCEOrtO3RgYADagN27d7sXqvF/o3XUA934DYAg29jI/r4Tf3e0D/BtwN/x+7q1a2nBwoX06KOPMFNF3kWYDBVAEE0JiVItx5kX3I1TMgJRc+DIGXeDjvIej1rUMqAXc8KPcxaURDA6ZEVn6A36wUN7gHXtRi/IAEVANRkfxSDyTxgYa9ciOuqooWqA8KnjpOiYBvQWlXobqdhESVyDIJOF4m4nWWx8U1Kpoj1tRHgF4t3KBAjyGxp9mhUxksHy6vvNM7YtFTbSagQI7NPRCVPR+1CqspbOoSwKIMgEfTCKQb172GxDPRbFMHYsDRw0iB1yEOYozk8UUBATaWWYQ5/9p1G4T0ScHIAO/MGhqRTl3HPPpVNOGUEfffgh7di5k4ECNkZc+FZXp0wdLY5z1+7d0jUKUL5p40aaMXNGYQBBYAADCNOfc+9gcbfNUIZDIi2AIFkg7k/sFK3BfRlICIXnw+lLaEsU/FEaIlH4quhQaZlUw5C0z+5eEM0LKjMKEemZGNxMhjbVfH/TMzEAIMiUe4IE7ZUi6mwRfeD81obIGkCUivOHyZVPgwAnn969e/umBJsIkiNxJB11FwNOw97ok816qk+KLGS8XurMdkciOoSI3gisDmHHbQqAgI2vV69eBB4Er7wN3sXgw5yS/E9e9ErQadE/ZvRZjSYG3wao+sib6fPAIUU6ShEg+HC1pHYcQFB9ca2dMMeBAwfS0iVLaN369ezkzUFC2zZtlLMAsMrrNzj2++BLzLk2laIHH3pQ2V4+FQAQRowYybJBQhtQ16qVCxBwa59POxkAqRzcYGOHAIm6oAqmiVWrVtLLL79cXIDwnAMQWPSFMGMBIacECBGT7cpuXCgbaN53oI8T2nFCPzhhgbpBvKGc36gPRAdZRzSO+Uf+g5B5QUFcTBSD6I4v71XlpMijGPjbYfTmqJGvsih3ukWp8x0OHERk3W9R6hThFOk0IvpAlOu6Z3g4X3/99T4mYBP585//zC54QVFe1hQwDQRvKgwfKi1KfZco186i1A8cPh1HlANfDg+cxoWX8ddyaxCgqoSa9sEHH6RNmzb5+OQBBFwtKiLuaDODPwuqGNngvd8UtzkWpFYNfEJNpUUoYI9R7mvFrBAECHFty/Ig6IAQtAmAMO6qq9hlTciDEPRB4CnSRWBnX27jFQ5qo3IgoCaENtbP448/Vkw2uW199avn0amnnkpz585lPgYw+0YVbu4Qn3NHy6gMkagLB85ly5bRq6/OZuMpRoEGARloc+JlTWhYIqylAEGFAPnxVJYgSWcASdRRwfYKABVuU1GgRXHmDpJih+VC+4rwRv/LDCPItCFxGgQ7D0IMBzXyIIQuaxIaDPH9WItovEV0c4qsiRalrkoTLSOyJuUodWeKaLaflnI6KR522GEsZ/if/vQnlwjR38IPEBwnRQnrZCGMIuDhr4BNrrnhMouyQ4nSDxClvmMRXZUiak+Um2RR+qwU0WZ/gqFc1qK6uvLexXDPPfewUKpvf/vb7LpcsYh3MeBSpKgSit4Q9YIhp0V+WVPrqnNSDG7KOntUMeu0FICgyzOYGL7+9a8zgIBsqJs3b/Zd9xza85mKNpxnRCZ0xXd5oqQnn9TLDqlLP6+HuysgQN98800mvHFltVhcLUF4QBLv6IBqz4mhhpPlmjWrWR/4+86d8FWIyManMwCL6PTTT6fnuAZBfEcFEDSAAZrzbSO6Sa51QUHkZiY8UNFZaF8imJL15bRfk6lleQ+Q/4AViZaDNRWgJ1qDUJPGjTq2oHIaw39cpxGNKAYbICywEYvTcfAQ6RLUiSh3HlHqEous/0lR6mN4HxFZT1qUvjNFqVdtVT0/GcAZr1waBACEa6+9llatWuXO/G233eZbHp4GQQAIkSfm4MqSrBLOmJ5EuQssSp/4H/3bj9JEH1tEPYmsJyxKnZ0i4n6hfI6a4Lpn5LE/77zz6Fe/+lUsQOChn2x9Kuzw4mMk94AHrriqq12DoMMDnT1Wt44M66v2Lt22S1GvUA2CLk0ACNdddx3BxACAACdFWRQD6kFVnxYSJOWyWd+/LaQGd3Ld86QkTNtgWbSnvp5FA7z22hwmWLEv4t/FKgAIyIWAREJwMjzggANYuCacDHneA6wBlvPAMZvgG9y1cyfV1tX58iI01NdTq9at3WRQzJ/Bslg9nEShJcQdKy+88AK9/fZbiYcgfvtnnH6GPkDAXQyzX6E9u6NSLYdJcU0IcYfdqO3YZ39wKsX9xtuJOI0nZlQ+7UjGyaMXEILPwG2c9oGDB6ed2EyKfkTh9cwnWM8H4RMfX0KRDGKegy9ZlHsiR+m2tsc7k5F7ExEu0asXxuVcSlQugABhBDW6WH7wgx8wEwM2FRQOECzHSVFmMoheIDZv3WiHQO6H3JU5om9blB6YsXEW2LMXkbURdyf7Wy1FmCMiRYYOHerrCCeI73//++w3hFDdcMMN9Pvf/z4SIOCyJtU3GgpxFV5IIfzRTYNmOdc9x2kQbqbx42+gxYsXu3RD6zNlyhTmiDZnzhxmT7UTyFhlyYMgm38VUEq8qUS8YACCnDEwMVx73XV0+OGH29c9r11L/Q86iCUc6tatGwsHRGFe/tks2wd4QiGYDCAweUIhPMdv0KbxTIs7d+ygbC5HSAmP9yBsoVV79tln6e9//1uxppfOP/8CGjVqFM2aOZPdOgqny8MGDaJ27duzcaDwEEaMiWsoQS+EBujjphKYT0E/gAWPYIBvEf7N38NhCRcn/f7392r7I8jWujZAsDSdFAWO5gUOmOCRNCKbKV31f6GzXMjHmyKWORGHLKn/gUhbcNwpIk0fBDknVJkU48Ic0aKY7IcJVACESTZACOdECAhCJ9VyU4U53n///exypvnz5/sAQo6pPTitUXZ2L+00rxmM+XdHCwXOFRZZN+cofWjA90DiWQuA2KrIJoaDDz6Yunfv7psAnH5ef/11fYAQuKyJvYhbHJ1WmXZKMEGwjSiw7JBEib+BdLFt2oQBwowZs5id7eabb6Ybbrix4gGCCAwL3UdC73N1m/OgkH2m6LQpGiyHBgH8gNC75uv2bY7vzpvHAELfvn3p0IEDqWePHrTX3jihEHO+heCEJz/+QNjxnAI4pfOC7wJrF6CBC1fUQxIinuFwzZo1zJRx003fYP8tRoEPwplnnsm+SYAZfLP79e5NPXr0oL27dGE0YwygD7QD6PCESPiNJ1MCWAC9oJ2DGp4/AePi78HPAUDn9ttvo48/hro3ukSC4LhESRIhrXRSjJDrkabyOCCg+0w27FKq5lSnLLaheCCHuXo7KbOzOcEcpEljbBRDOBeBuJ2nSAsgIMwxxjbC+Ot0ZH3J9jnItHNi5muIctdalHqWiD5tOoCACAaoIGEr4yUSIFgwMWhynwtHRXVr7H+0KAwgOHzBnnWdRdaviQjhyNxkiAyOTZAHQUuDIAMIip1RxFnsI2eAwgYJcQABm9uECROYVqPSNQicBUXXJABYZv7j4Noo31F0D0nFEF75tFFqgMDHD4Bw1dVXM4AAQYdsgfvttx/tv99+7OTdvUcPppKHEIVQRAEg4IIUv0MzAEAgClyYKVA4iMDfed4BOPshAmrmzBk+v6Z8+MTfAUCAnxSylgIgHNS/P3Xt2pX9wTi6de/O6Of04JsFYIFGA2PAeEAzBxH4HZoG0AwtA97FM4wd76EPaOKgQb3llgkh0rXWc4kAQmg7dSY7+CXIrAXSOSgEWUd1GjXZAVCfaE0E+oJY5Vc7M+2Bbh4HDjK0wxxdKm0KOCI76kiNPAgLF/gcH+IWTupLRFmmQXBOyrjBdZJF1MROikDhw4cP94X/AE1DTY3TAIpuFIMPzULgCWgPgp57SPuc9q4kyjoaBObOsW/Kdt6ED4J4ACkzQEDmtWOOOYaZGI499ljmvITNZN68eSxtLQp3UszUBKMRor7aGLTk+MPA1FBbUytNtQwNQjUCBBsnJwOWkZuHAw6wuFIN8vwT7DvmADXRLlSeyqUECOI+ygECTAwLFy5kQm/fffelfXr1Yusa5oIBhx7qClIIRghJAAKsdZ6aGL9xEwK71TWTYZkJUZ8nIkJ7OKnjN6jolyxZQnfffRf7Rgot5577VebwhygGtN+/f3/q1rUro5FpPxzNAfpBQiQIea4JATjg9y9w04h7R0ObNgTfis8+/5yZLsRSW1PD2kHY48JPF7qPtNexDCDECGMdDYL0LOq50dnyS8VsFSBIKvQDnbq5X4J0qPpV0S0+d4AGj17QdiYNbArqREkBjouCSxcgeHQrNsAhRNZNFqUudajEDa43/ccbckqKCK4MQufldFIE/f369WM2Pl7uvfde33RJnRRZDUlGROFN30kuInlS7mSL6MsWpb6FQF4iCzkjwKdfpGwNglvsTIPlCnNEKBV4ErxaetasWW74pzwPQsh2YI9AQ0DaDtUpqqvFXQwyH4RZ1NjYgjUIAjhg+1IMQEiy35S7rg5A4Lb/3V/aRenJGddEhXjvLp26MJIhHLdu30qtWrei9m3bM+GAzRKaKAhIuLVAmO7YvYu2bdvOhGfr9q2pY4cO1L59BzryyMHMh4BHLuB9AAHxNkcIU/yb35rI0y6jfbwHB0V+kOB8hGCt37OHJR2CY2ShBXkQTjvtdHYfDEABQrORmwTZDxcvWeI73MDvIknBnoIEUMHCgIBl0atz5tCnny5MDnA5QHg+nCjJ15cjNqQAIXDijgII2uONQw9xzn062F6mtosBG9oajpjB4VuwI2yyeieCAD0KH4QYRWTCMEepuSJWzxnP8XKGOeosrqCTIn8n5HgnNBZE2mJ4oy0v1TzgzYGV8OmAw125AIIOX3x5EGQvsA9c8XVJfC1qamqpXdu2kjBHW4Nw883VY2JQzbMOn906wJAZz3M11WiDymorOgABAr+G6mj9qHWUfjJFg/oOoiMHHEVd9upCB/btxxyzduzYSW/Mn0uLln9Kazfa2r4M1dDIY0fSsKOGUOvWrWh3/W5atXIV0xKs27CenntjOq3euJb2atuZhh0zhPr2398V/iySIe3XykTNH9jO0zAH+Q9QgZDgl196yXPsVR5tI2bRImIA4XQbIECDgNtcAeDhUwHTCXyIuIOhLDtkMHSTj0m8wTLYOzQK+AOzxuLFi5ItMWdNnjEqIopBbC0KIEhUYFKAEFSiJf0eYuWU5rCTAI+oJqM0DL7U/t7geHIkgIMcvNeFrVZ3qcX4ICCFn3eFsG+XcQgaomliCH5AwWuMQ5ENQh4AUe1u02M7r5Vbg6BaBromBrGdoNwLfrjBHAlxeSn4u5UMENwoDYZmhCUaaRuz6wQXM8bI7mKQAoQX2QkRPggtMopBAyCI4aaqdd1Uz3UAQiaVodbp9tR5bAe6iq6mJ6ZOogXLFrILabru3ZUO3Kcf9d23HzU07qbGxgZ6ZOqjDDym0mm66PQLqFVdG6rNtKJPP19An69ZTus3raPdDbto/17704RLb6ann/sbzf3gLfraNWOYw15UCWYe5Os8KiMh2sEpH1oFhCUGk4tJF32w84CQA0A4/YwzmIkBQAcAAWGO2JfgJwBtQlTaaNAbBXJUiZPgT/HWW3OZuSSforqLwZZqdss+DUKE0C5YgyAbRD4mBZ12hLHlwzvfO5L9lN+9wJIjyU4JGkAp9rImD3HIW1JlUgxGMegwwQ61UddkAKECL2sSPUX9At1W//MSSgwUdG100o4GfRa8D0bOpFKEOapnI7qG6IMQB3BCLYS0Bjb8ZS4bKVxpjdscZRoEAASYGIob5ggH1aANthC+2N+WxkLX7MQV+s0EIFx44YX0xBNPxI4+baWpc/tuROflqMvMriypece2Hal7527MPDCo/yDqf8BBZGVz9Nb8t2jaq9Pp3YXzGeA8+rCjacghQ2jokUOpsaGBNm3dRB8v/IRWrFtJa9avIVwutmr9KmpsyNLQY4fQ4UceFklLpAYhZn6xluCH8NqcOXKAgN6ijnmSZXPBhRfSiBEjXB8EAARoDeAM+cEHH/g0CKolJTuoyMa4detWljDp7bffpv/P3nuAW3JVZ6L/yfHm27eDOkgttXJArYiQWkJIBGGEMAhjsBkb2R8wxjyHGQRvnsfz3jfGAzZ+n40xGHvm+bMJtgEbJAvJ0CgQBEiggHJ3S53U8eZwcqg3/9q1z6mqU+mce+7tRlLxNbr3VtWunde/1/rXWvv29QYQaKLk2vIEU7LgTYBw/evwgx/8AOWKyjPRuiz90WEFCHtUDivQ9XNeSzfoe/1b8u0aewAYbQajnLQf8INmgHnf8MvFwGyOjsh3zj27a4Dgoiq2V9W/d1t3TQ1CvX7yZXPUAIGLzAbqXNCivu+6wbgISCfAsC1kk+DIPanfbo4hp5PrY1YOQqeZSb2i/a9b5J2gRYYwAIEahA/1zYuBm1i/Qi33Exg4gYb0ZcLdxNDuf7VLeZ0olzPe/Xo3jAaB5pPhwREUbl5A/luDKBSWkERKNAjcHAfyg8LipvaAzkXrxtaJGY4aTPZFvVYXUvDC0qJUu1AqYKm0hAoFUAyIZ2OS6GhsdAw7rt3hq0XQ7e5GuB4/dkyIvf1wdWR/3XDjjXjwwQdbJgaSLQ8cOCDxHdb5aBCsY6b2LfsCFA5CvTNi4tLiooDmxx5/HAcOKFJyt1egBsECEJhrghoX8SYJqUEIOpRYivetejfPtedCW9B22y89Pe9QyvrhyzAWDz5z8OCLksTMGiGXrv2RuIRabhfDs5uNfRmNIJyJwQyUFBYcmJ90ghMxS1jQlyQVqTclB8DJcBGp79y5ExoguOVacNMgtEIqm8GfbBuNdcAdYE1ixOu+ssxe9lsqmca73/3uk6FbREDfe++9iCeiMn/adlD7CYmaDy8Ni1tDaGLIZvw0CCcnQOg3OBDSqmVhOAECyEHoiAz80gAIyUhKzAHPvPpZpL+RFOFfXaqB4cYVHpfOkUuyKZrpbvV8EtU6DNeIhiwrkWXkxKiELb7hdTeIG2DQZSUvKnJY0/V0TLCpAYIzbHvQN9zuEyDQxPDA/feL0D7v/POxefNmHDp0CI8++qj8HAQItanB+pzOL+E2b2leoAbh8Z89igMH97cORLKWzY5vRzqx+OZHIFwpbmCve9312Pmte13DVzvbGQQQXA/n5h4Z4swR2O3W8l2Bx0poBwJr5XjAw3LrRV/g23KP/+eoP3990QsgJJKKgyALzTDauQF0zAIAl1x8qW+6Z52LwQY0XI1ELr1ghWwd7yiwQoDAaIYnw0Ui0Gc+8xlUaw502+5EWzW9+AZebbGfvl2GWwZY9Us+NyBhj0+GiwSmv/7rvxaA4K4zdXh5WCptA6SOJvuTFJsmB+Hk0iCsBDhoCUKz3yR7aNKCCHwAguwLQUesEzSJwmgQCBDOOu0sPHXpk4j+S1Q0PI1aU/hJ/J8wt81r49pN2LrhNGTSmVbgmGKpiFKliIeecqZHVVOVICGTzWDDhg246aabMDKsgia5XRoMWPtTq83dxp1C/PjkMTzx9E+xuDQv3+K7jXpD6k8BSjOHxP6IANVyXTQfjEgq7TP3RG1qveXmt+P6617f0iBoLwbyHJ544glx3WzzlDpzSeh93llXPx4FAYLEdJh7Fou1o9IGmmRYd4I0cjmF0CnR/CKIsT3qQ7J3sz5DQyN44of7sTBVDZxpLYBQtYRabmPAzvd7TdDkUxMtijyXTZB8Ww0Q0Q1nIkDNcPCAlwYhobI5dmwgemICoQIl7WagJJdN349a3SEMLQPdWhjmJPPLWhY44/r4AAOQUFUYi2sORZ9mgun771pVFzWbnAKa6Ih82MemdlUUCVPsFwUQurv8QJQ3B0HHQbj9pDIx9BMctE0ynXPMCRCohjcJzNZVaBuIkxEkBAGE4bVp5GrjWD+xAbsufwbFL5cweXzSc4Kdc+o5yKXziMeZ10MtHLrD0j47X1TBRCq1Kl48dhDJGAOwALVmDelUGps2bcbNb70Zo6MjpsuYe7Im5xj7EfwIEGbmj2Om8RxqkaLUKRaLoLDImPJNRONRAQhak0pzKjMe1qpNpFIxJNNxlEsM0hQBY4xcddGbcN6Wq8SjgECJoaIZv4VeDE8++WQoDkK3c1QDhMnyLkQGZpHOxXH04KLUh/MwnY2jUWugtFRFNE5tjNrI2S4OAbWg4nlVB3749UP+m4MBXP8608SgAYIfOBDhpYrsh/agu53LfLrbD/dJZPg1OlQMBks9vE0MibaJwZX1bAAXXxwiUJIVIIQgZSk1dHs4OoWEuqeRc08Dt4IvCepfrl+ZGzy1TR5HJ0mHmP1iAqcVbGJPRfcCEGRxm33h3Ly8AMK9990nG2m/vRiWw0HoduP162C7Sao/AMHazz0N7gq8NLI+hTMuG0Y6mxBBszBdVqdmA0gklbmq+vRGZNJpPHLOTzD/v5awWJ5HLjkgc2apsoDTN56OC7ZeILXbf/QAdu/fg1K1gIZEOwWyyTxy6Rx2XHK1/L5YWMT3Hv8eYlCZ7+jRkIglsH7dKXjL296MkdFODYKfR4jfuBMgzC5MYiG2GzUUUCnVRDvA03e13BChplW/6ZwynxQWK4ykZmoWeEpX2l2aQS4/5/W48PTX2CIpUvNx5OhRX5KieHWYvAM3oOjGPdDDTfMC/y3gBSzUjqBebSKejCKejCOTT6C8VBMQM7omi1q1gXKpjlq5jngqruJR1JtIpGLShr2PL+D4PltQF/uscgIEy0HVc/o5BHS38jpsub7bfbcf7RUk+GkN9D0XE0ILQHnYIDwBAtM96w5qySuHK0UokqIGCBZw4IYTutV08lRE9H/O2eeswPbUfZFc8IcOH0Ikas+zoNrlgLIuJpPALzoYj3rz0X9uqw+ZhDOKbWdsCyxyNR4g05n9IqcKq/uq+XFl92zXxJqfQ1lN3O8zipsbB4GBZzgvbv8INQhBoZaPyAmMJ733ve82fP7znwfr+9xzz9lIWV/4wheEad0LSXElwIHgQQ/XtGANgvsOdLJpEUbWJXHqRYNIZRIyb6iyjsR42lQogfVN7jtT1P73bdqJ2b9dFIBAgZ5KpAQcrBldg1MmTpHJtWv/bjyx68kOgJDP5PHW698iz1SqFew/fAAPPf2QmArpO56KpbBu3Qa8+eY3YXhkuGPJcBysvAPrA37ZGjmX5hamMGPsQiNSlPZl8klE4xGUCzURqLnBFOrVBhp1Q07nFLb6OXH/bhioVepoNAy86oxrsf2s62yBkhginp4SQSRF9iVNARooWOdsEEAoECBE92KxflTWkiSyahoCaAgWKkVFbkzl4gIgWG/Wt1lvIpmNYXA0jcJ8FVMvFrHnJ3OoVdzNH3yvpUEwQ177ylJT62zjDXhteEHC1eVDYgF30eDqT1gt5K4qjF6BQNg2BG3uIb/vq0GQb/icZoNyMZCDsGuXPZujV5H29rgYjxyoQnMQ3nbL24K6YlXuM4b7j378IzClpvVStsX2X7S61yngVb+oB/2EpvmA/RuWD0iMgHgSb3rjm1al3UEfIUnqoYcfsgEE6wbkNCe5cVmdQpbPeGoQ7r0X9WZDAMJvf8g/WRN9xNnnCiC8r68AoZ/AgH3cCs5jkhLDAwTm5wgapZOPi0CAsPG8HEbX5NCgTbveFBs2T50UnnJy3n0aTt18Gr694W5Mfm5WAAIvCv0bLrsBuWwOQ4OKWPjUnqfx06ce6QAIg9kBvOvNvwTEVYTF2ek5PLrrMZCfcHjqECLNCNat3YA3veUNrgCBZRMgKBMBNQDtzvaz31Owzi1NY6b5HEr1JTHBJRJR1Go0ERpiy9fayGqJQtYQNT01KgQF1DgkUww1KzsHLr/gBpy5/jJxc2QGSZIUqUEgB+GZp5/GKRYOglu9rHuPX72tM0mbGOaau1GKTgpAKBeqoglJJOOKO1FtKHJo1JBxo3YkO5AU00MsrvqLkSoHR7LAwVcRAAAgAElEQVR47DvHMHXQRYtgCrNuAIKfEtb1UO8GEryYfX5aAT/B6wMoglfoMp7o5ruOZ8MDhJbxXx2I+Wu4dM8mB8Gm5nD2orsuqPWKkI46r9VK9xxmaHSgJO84CKoUp6uf28mNQr47jYrFo+GkjaRo5yC0N6TO3nUoS2xZHhWQ8gEI990rp//bP/LRwGyOHDMKXm6I/QYIGuiFmTtBz9gi95kLgadbNxCiNAimLp59VQ8HEKwANag+q3F/dCyDDeenEU/RZTGK/FBSgALXfCqbEPv1s3fWcdbpZ+Hx8x/F8c9NC0C49uJrsWZkDSbGJ5DMJJDMpiRV/O69u/HkricwPTfX0g6Nj4xiKD+IG69+PZAis76J4lwRx44fE3fHnz73U5SKJaxdtx6/eOstGB0blWf8wJ/fidvaby0OQvNZlOuLsr+RVyAkP9EYJAUUVco1JNMJxW3631nfl+ZLInx5n7sihTIBxJbx83HZ2W+QEOfkQ+lASQQI/BvBQhBJUc9ZP+6EJ0CITIpc4FhRCxJPxIVYWa/WZcFS28F+y+aTouErFWrSVj6fSKl2L0xWsevHs53Tq1eA4KFa73r+OgVsPwCCdHbXNVm5Fzza5EtStPqli7uK9SRMkmJAJEXRIOw2NQgeneEUhDKJW/Yl9YMbafHnMZKic3SdfAvn7/p5p0mmE1S0O5fPnpShlpOKwWxba9ojxjE3WmYGr/skOnmEWqaJgXHjP/Kfb8eHA9I9/zwABGdYX+vacNvIBSAk2NHmSbYRATOQh71OFlPD+EgOG87IAENNEZy0sxNi8nTKnyk8X9gJMTEceM0+zP7tQidASCaQTKfAF+fn5nDw0It47JmfYam4JN1x6fnbsWZsDbacukVcQcldKS4pgFCqlLD36D7MzM8im8virb/4lhYHwQ8ghNUcaYAwWX1GOAgRC3WJ5jhmK1UmBdrp49IHlWJNTA6pXEKAUpKndHoOVBuIxxK45tx34tD+yRZAYKAkmhgIEJjRcTljy3Y555vmIExVd6ESnRSNADUbYk6MAckU60kiqCEghnwDRaqMoLBQVWaiTBwG3VIJLuJRPPejWcwcLpmnKfus7VaD0GEGaG2o7XLDPOMmy72UC7rkwPv9Ai9hF7bLc3rb9dSoGD5xEMhB8DzFmjeCAIIzkmKnoLPXOhQ3QavhzdPEe9/73mV0Uf9e9Qy1bOlE2TycwjAEiaWj3xgTwnpZyuQ3TkaAkDABgj6l2KrvAh6DNCheAOE7NDFQg3D7R084QHBrazczrgMcWHYqrVNzbtovJYCw8ZQc6uN1DA5nkcyqE3a11EBxqQZmqjz43Tiy6TRevOYACn9fQaGyiKsvuhrjw+OiQWCsDCYmiqQiqFVqmJycwgMPfQ/zi8oUccNV12P9xHrkRnMwSk0RujQtHJs8hnK1goXiAo7PTKJu1PCWt/2CK0kxzHhyTTrV9jQxzC5OY7r+LCqNJeUd0TCQG0opLgDV9cUqmPuB5gc5cdcbSKXjEtyJz2QGEqhXmnL65mn9zE2XINvYIIGEqEGg1uDggQMS6TBsoCTdHs1JsLaPmgnrxTYI0Kk+j6XGUbmVGUwpLUI0gmKhqkxB0YjwKcrFGoqLVTGTcD8g+ImKeQbIDCSxOFNCabGGx78z5Xq6tgKEoMO35Zwp9XLjC3Tosc1t1ZPpH2awwzwThB7ClNHrMy7fth3AHeUGmxjckIfZs+FMDJ0chI4iByeA4VM6NC6RA4/aHrUiYLHTrVIkReZFJxq3CzVDUsMyMQovV4DgnKWug9qeptp9rfXY8AZgcK0t5IgUyX7xWCEnAiBs2bKlVWVmpuPJQl86kqIbQPByalHj7L0F8D6z4bmRFAkQaEs+GUwMug/Cnir18xTyrbnuQaCyGt2sIEEAAk3T0d40CGozDYFae92gQr63biiNjZuGUM3VEcvGkF+TFFNTpVTH8EQWxcUKXtgZwWAuj4NXH0DpH6rijfCTpx+R7I28mKtj7dganL/tAgzmBzG3OId7HrwHM/Mzcv/m627GxomN8vPDTzyE2YU5HJ+eUoIulcb5287H9Pw05orzvhwEZ5PchCtBq058xP7VJMXFxPMwEmVlWqAankNH0mAsIsmmqA2rVRoiZLW2QII4CeAm8FCHDp6+s8lBjEXPQaSZxKmnnoozzzxTAiWRpLjeYmLwGgLrPNWERT6r+S5sg5XQqAMlzTb2iBcDyZQEM3TXjKXiaNaU6oomBWoX6J5JTwb+ruIkKG2CBLgqNaQPqGU4+NSSq0dDtwAh5FQL2JUtWs8eyIyBdVhNTUIPppFAgGATyo4dPYwXgzMOgp5wto7bcRtw0//Z2ZcfPd2zfzVJcTU0CFxo73//+211IUP57/7u7yRTGi8nQHDXhtgFn9tGbFukb/oIjGvt35X+u73dL7YyzBDUq61B+NSnPtXqm3/8x3+U8LFOgBDs5miZvdJNnQDB2lYvgMCojfWTDCC4zvmAnYPCQa4TABDksycYJGwYSuO800YwiRowEEViSBE1RQCZ/567s4EBEyCUv1DDTTveiG/96FuYnlPpk9OJtMQ+IFnRQBPFalHAQa1ek/vUNKSTaWSSOSwuLaBar2KhqLQLuWweOy6+GsdnpjC5MIm3vv1m4SB4XVZugnPPdLunNAhTmI/uRqW52NIatNy3DSVsq9WmMiFQkApwiIpwJTeBAjmTIz8hKrwEho5ORgYQjcZxzpbL8aqzXiNxEBga1xooyQ8guJmt3DQgLEOTFKdru1EwjomwZ/0k0BM9FWgeScakfpzHhYWK/J2/p7NJCaSkNCU1AUHKfBTB7JEyXnhkXnk9WC4ChO/rUMs+66frqduvE3035diIVkH6kECY4f6AX31CAhNPgGCNpOi1wfUCELQAbPMbXDwWtmwH3vvXwMevQuQ/fhXG3Z8Adv/A1gmrCRDOP/983Hjjjfjc5z7XqoPWHOg/2ACCp+bAPhE6NAYe80D6KhKFcd4NiP6Hz8P4+NXAb30Vkf/3jQCDvFjNGKtIUjzjjDPw4Q9/WP7JhpxO49d+7dcke9wDDzwgf7PmYnBrXous6LzppV4wn/PyYjjZTAzWZoXRJPAZEQQBAEHWpKllsXo0dGgQmhGgM4y+745zosEBK0eAsP3UIRypGGgMRWAM1pAbSEkAoRjd6eJRPPD3h7Bt0xmiQSBAoLvind+7E5OzKmASXRRTiYz8XK1XUK6btm1L6yORKAZSg/IXeiAtVVRehoHsAF532fU4NjOJY3PH8bZb3+oLELy8Sihw3YQuVfPTs8dwrPw0Ko0FEZo8ebMcCnsSE1PZOKqVuknoY+RBFZGQQpRqfHoF8NQNI4JUJo6aaWrgve1nXY9Lz7letJyMpLhcDoLbhGl5MRh7UE1MiZAXoW56yMejUUQTMSEqMrJyOkMuSQylQkWe4+/UJtA7I5WJoVyoC7cklYvhifumMX/cEjERys1xRQBCj/LX8zWvk7p1+3d1s1BcDLug67FyPWgL3L7ko0GIiQO6F4kjrBcDNQi6X1xt8E57Omv5m18EHv26/CNAaH7TDhBE/pqhlldDg0CAQA3CwYMHW334yU9+0tafLYCgGWEdoNDuz8+XbXNEslh6hwaLjGyAccv/gwj75cBjwH/8KnCSAYQPfvCDYIjXf/mXfwkECE4h1Nld/v3lBxBONhODnihBAEHfXy5AYKIhI2aevroECC1gYgEgPW5Ry3pt82gGF20cxHSliVIyitp4DQk5KcckHoLY7HdvkTX01IVPrChAODp7zDNQUq+N1CTF+egulGoLqNeaPAMgkYi1WP0qrXkUlXJdPBgIFujaSA0K+6FUqIrHQ5LBhszIhHQrJIi48LQduPSc14mbo46kGDT/rGYFJ7B1AzlM1kRzYiG+D+X4lGgHyLXQeVVoViCYKS1WldbHjIUiphSzPfwO3R4JbhgmW4eSLi3U8cR9ytyjr2UBBKcnQq8D5/aelbzvxTHzUxJoQeBHfuhFydCNRsOjP7wBgs7F4MYsNP8WRoPQ8mJw0Ro7T9CRs68D3vUp4HO/DMwcAOpVGCObgMVJoKr8Y619uVpujjwZj4+P27qQSaK+9KUvSaYrXp4kRa+JGFYPxhPl9l+Ecd37gX/4ADB9QLQJGNsMTO0j9dr8gpoNq8lB0BqEj33sY3jPe96D7373u2B2tscee6wDIIia0XK5sQzCdgmL8fRi6MrEwEBJdHPsfxwEr2F326Sdf7MBBJn0ltKshFQPDYINIPD5WnhOwckCEE4dy+JVm4cwX6phIRpFdbCBSDqC7FBcWk1yXmTfqVg/vg7fOeXbAhDe+JrX496H721xDFKpNEYHR4VLQFPEQmEB33/0+5hfUmaE1176WqwdWyvamid3PynchSnTPJFJZXDx2a/C5NwUZotzuImBkoa9kzX5CVe3uALkIMwvTqGU24dGtKjCEceUCYWnaApMxkEgSODJXFx7TS+A+ekSBscyKtzyUk22A3IRqNoXrkIkgrNPeTUuPvM6MD7L4489hrXr1gWajdy4E+wnggM3901NUiwmD6AUmZS9h+YC0YaY651ajnQmIXVfmq0gmoggP5TCohkZk26s6UwMlbLKQUFemfZQ2/fYAuaOtYmRoQCCY6p3zPyQqvWeghv16/TvsXnYFBABQKV1W0747vtHGIwUDBCcpVgAQyiAwEiKLupiZzwArD0TuOY2YHofcL+pyueBmixYqwq9tSmqUJ2roUFw68i/+Zu/wac//Wmx79kAAjUIjuh/VmDjOygt9KOfMoCzroNx7g2IHnoKxkNf9ni9PQNOBEAg54AbEe3/HA+CJqeJwQkQbGAhvPxqTSUy1ElCu/POu6QobsJ//Md/JHUIy0E4fOSQ2jQNrFgkRbcBswICN8DQARCsIGEVAYKKd9LL0SXM1uP/DAHCFWeMYb5QxmLDwBLTIwwA0TxNWXGkcklMPTiE7edux7fW341jfzWNKy64DE/vfRbFUkGAH0msE6PjOHvrOchn80JS/PcHv4XZBUVS/IUdvyCRFmmueGrXUwogzM6IMKSGasuGzUJSXKoUcNPNb2wFSnIzwXgBBL9sjnOLU1iMP49apAAqUumpIBEjaXWNRcRjgafqRs1AKhuTnU+fzvkzzwbxBNNZK00DnxWzQ72JC7ZeiQtP3yFeBs44CGw7gzpJ1EMX90W9noLG3spBKEWOqWBRcRU6mXszuRP0XqD2oFSsIskcDLGogCHqpnP5lJhISsWa7PEEPJxz1JLQXbI4XxMtArkWvMIAhI4tdDm5GPpwAl/+Sgjc8jv53ObpS69c14NXyGXtb2JwkMWce0UoLwYPgGATEGfugHH+G2DsfRh47A5CVkXaicVgXPVeRJ69T07L9o119QACE0LxtEz7l76CAIK1fXYw5HZ2Vk/beBmc2Be8CcbWy4E9DwJPfatdZGYIuOq9wHf/FqiVlJAzJzPRdyKewq233rpic1MXrDUI3/jGN8SVanZ2Fr/5m7/pChBUVDjn1TlLg1xhdQn90CAcOaoAAk9pt73vN/oaSTGo87U5yS0EmBtAYGAkazRFmS8rrEFopxMPuZsENbqL+1vGsnj1GWMolKooVOuYpQTNR1HP1yXOP0+lP/7KJN684824f8t9mPzcjARV2rbxDOEPjAyPIpVIIpvNIjeQFcE7PTWNBx52d3ME0xxoN8fjdHMs4+Dki5ianUY6k8Jb3/FWSdYkWM0MTewVNEnU7AHASpsYZo1dqBoqwRE1BQwGRZOB2hAgwpRBkXSiI9ru1d5o2lnNvDQ0N/B5aiFofhjMD2PH+e+S2Al79uyxBUqy702d8Q3UXqQCG/ldVg4CSYqagCghoIVYqQiVAm4E3UDMJeRIMP4B28GokAQHdOFk3QkS+N1KkQetJvb+bBGT+4sy018XgoPgFIZuLejiPLKynIB+LKtutQNdajkCvRi8J0gkVDZHq4nBqyzj9b+LyGs/iOb9f60WIF19OJ++82kXkmJblb5aGgQChKuvvlrQuL7y+bwABgYi4aVNDAYcm4MmLHYMjD9LXwr9xY/D2Ha14h2Yl1iWf/xPQlLEn70RUTO8bOt+w0AyuToAgWYX9gv9rvXFDZkmhueff17+1CIp0i3LqSNz0bTocvxIvqJujSdk81+OBuGEAgSytnzs/KLutegGNRjQGg/ru06SYr9MDLbAaKusSdg8lsW563JIJ+MolKtYqDZRzSdRH6khno5iZDyLH3zpGK648Eo8edHPXCMpJlIJpBkoCcDkzDT2H9iHp/c8g0JJmStP37wViXgM1135WiBpj6S4WFrET579KcrFEtatW49b3v5WjIzZkzXpfg8bedC6/2mAwDgI1WZB1PgJnqDBoEI0GzLcsgoSxYtxDhhqmgRNPqdDuDMQEU/qFMTpXEJpGBjiuFTDWRuvxJax82UtriRJcd54HvOVw0jnmeTKkCBIOvgRTR4M7ERuBWMg0LOBWoYYtwPGsuG8Ik+GmgMJiAXTpKJCoM8fr0mOBvZFKIBgsWR6ulH7wh6Pm10KVi3IAg88/QAJ3bQnDIHSUl4oLwZXJGlEsH17iGyOOpKisxEWMkHkkrcrG7vjivz5m2G85b8i8vA/wXjxKdtdrcZaLRMDXR1vueWWVh28SIoECM7LzXbkZne2vsf7kWtug3H5L7X/bBZkfP7dwM1/CHz1Y0ClHXNAhIYBpFYJIOiKMXOivu6++25hTevLBhBcOsZKzFO3vbUKVtDQD4CgTQzcqG67zV+DsHPnzp6SNbmtXSVY9B3vHYK28ZaXhxCGlYeDBg5WDYIaeybqIlsNMOImSXEZHIQTCRA2jWZw+mgKQwMZVOoGipUqSok4yoMNGKkmsvkUntg5j/O3XIBntj+J2f+pkjVdce4VGBsew6b1myTUcjqbBj0ld+3djZ899zPMLsy37OljwyMSH+ENV78BkRRQq9WxOLuIPfv3SKjlZ/c/h0atrpI1vfUmjLgka3KOr5Vv4HcCZxr0xeIM5rAbpcYCsmbGRh0jQEiLppJA/VdlcGX0xHKpKmYHJnDiIYn/JDkSOQsNpdonJ4En8x3nvgsvHjgqHkZBF79B8woBv84vESZ09Ex9Nwo4LqCAQj07kJL68HdyEiSBHcmI+ZRsUGJ+oOmE5hQTJBNIiNmkru5T+0CtCst79sFZLEzXcP311+MHP/iB7UDiKlZchLnTFB/UF8u+71EHliu3vBXJy/50Pws4cOCgaIRnZpRZjhfN6pF4gr4q3soYdvglYdI97zZzMbR6Rn1EWS8cmfrEm8/yTXNU3bZQTj4uptUCCEGdbtUg6M1a2uliANIbRwcPI+gjNjOE+8Msc7XjIPhVuwMgdMD6MAo/ywww+9M/m2MDHwmRrOkIOQiSzRG4LSCbY78Agl1okI3vn0lJgwSBB2bf6UBKToDQwldWL4Y+AQTrnA4xTZf9yOaxDLaOpjAykIURS0gColo8jhmjjma+ifRoEj+96xg2jG7CzOsnW+memahpIDeAqy+8WkIkDw4MyKn66eefwaNPP4pCeamV7jmfHhBzxC03vFWEcblSweTUJO750T1iYuCVjqcxsWYdrrvxWgwNKXdIt0ubG6zpk4OEa92oYKr2jARKiprkRO5pFJC03XNlVClI6ZlA18Z4BLWyOoDwdxHC5GlRa0iXQSE3qsiKTIlNIT+YWIdYZUhIgpTAmvyoyxAOAvfSmsoxEY0DS9UZiVTJrZj8DNmnmxT2dSFRkiNAs1zrShVQqRdFy8Hnuecl0+3EWuSMKPBhqJgO9NRg3gnJVMnfSc6MC7hhrAS6bDK8NEED21JcqOORfz8eHiCYFRPx4Xdi7lY97zX4PWoXbMW1CAOOj6y2hkF/3mzTgf0hAYKcThwuieFCLe8SNNAxTtQsWYSFDKSbl59LimB5dBUjKYbZ7by8GNonwHYpndqDMF8I9ww3w9UyMYSpUVAchE4o7bKiXf4kGoRMptPEIOmeQwKELjgIBAilUtGNbxumG1rPWBNxUfg3Wl4o7sUQDAiZzAIQuE5svBMr6OKGsgIahBMBEM5bPyDEtmg8CaNWQaVp4EizgQh964dreOq+WWyZ2Ipj1x9uAYRkLCnpnjeu24iJ0bXYvG6TdOzuA3vw5O6nOtM9p/N4w9U3yjPMv/DU80/hwJEDMs6VehmJaELiH1xyzVnID6cFbNBWTmEs0Q7NPZG/VysNIFFBOaoCNVHIMeUx3TOX5stYWqhifN2AymBIvsNiRdTvDD3Mkzb3NJbB0zNzGfBbjIkg5gYK06Y6WeeHM1Ieo0oOjWRMoGBg9ngBA8MZARIEGjqrHtNHazdDuhxqmUMhTj4AXQtjku4ZSKRjAgRq1bq0kzELWAfOQT5brTCokdJu0KRBjgQvtrO4wEyOUQE3nOf8V16qCtmSAIj5GKgVGBrPYHGm3NKKkE/CPZEAQxMVlYt9RIAL+Qn7HlvEBdte7atBsJklHcupAyh4qRS6EdRdnm1cV7iXJsGt7NUGCxHAEyAwF4O1QdLBDn/NsF4Muq32w6O3Krnju5Y/KNdIpX1YLQ5CGAlgBQidpESXEmzo1d4XEuxGBIL9PTc07HzmRJgY/PrHDSAEaU46292JMPsCELQGoRHOxECAoARlmBnh/YwGiAQIcoLz0SJoc4LM+3amJincFSSsIEBYTZBADcJrtq1BqVpHlYmJYkC9aeBouYFGKob6UA2JfQ08fzyCyRuPI/rVOBaKc8gkstIvxWoBm9ZuwrZN26SvpudmcHz6OKrNSqu/k7E0kvEktm1RkUmXigU89PSPkUvmpafLtRKS8QRGxgew7dXDGBhJKj99CjO6HiIiAlGdwBvI0EwQiwgDn0JU+/2LB48QCCOS/liFGCbHREYRxaUqGnUlPKmep3AXwqLpnUBBTYGtkzYxpbJktcyQ9R9R/ATTRZJl8z0CAhIFdfhjiR8BQzQMrD81ESpIURQZZseMRVUshohhAoGGxF0gKZI5HyjkWT8CAj4n7phMcFXn/FUuigQmrCP5BtQWkDiZoiYgpgjlwpuIRkXgMzkW1xFBBvuLQIDkUzmEmnOY40hwIzEfFusYj1yIB+77nqeJwXV/tMkO8xfn+nXTJIQV0GFAgiycHveMLjkDPX5FvdYS1O1SAkwM/p8LAgiSzXHXcx3fDSPolNuQ4/smMGBfC7flJDQxcLHoK2jCaknjZ4bodsBPfg1C56C6CdzOvrO/x1DL/XJzDMtB6BUgdPIsTL4AOQamqc0LJFiJim4LWIOEllbqJQIQThlOY8fZEyhUG1haKmIgm0ITEcwzWVMqgmquiY1LEew6FsVzrzmExDcS4mqr4ziwPwkiqU3gdcrERpy2/jTROmlvECZmKpVLePgZFRqc7xTLRVsZuVwOo2sGsO3yYWSHE0ISVIKXApqCVaVhVqmLIyKARWDHo3Kfwo/7FIW5cgOkgFTPMGNjLEGBrsxMVh4BNQoEIxS23Lm5HvgN/uN6oSaBwl3eJe8oGxctgAQcEu2G+pltTaai4LYk/AbDEI0Fy5HwxlTvixlBBWLiJRoSAgl6RJkpqOkNMbouL5oMCdgk5MmI/My6SYKmGESroTgQqg7sn/xAWh3oyI9gzgmms6dmLKY0HTpAEr/N+nBNsI8IJgRYwBATyaaB7fjXL+3sCiDY9s+wwrwXge5nrggLNsJs9i5CPMxroZ9x1DXAxLB8gLDbykGQ4tw1B06B4C402/XRGoRf//VfD932lXyQ3gz0wW9aSIqtvjabrLKw2WvRaqflGdksupnMliI1QHjXu961ks0NXfbevXtx//33m6cp95Vi8q9ClGlGm6T61isOgpnu+fYQHITuSIrfFpKim8nIr+LKVqs2RC3M+TOFEcP86h7h716ktg6QEHQC4iEsYSEp1tsp1IM62RooyYuC5Ee+Cyo/7P0Ng2m8+swxVJpRLC0uYWQgg0gsjjkGFMpGMVmv45QmMLVUw48unkLijqQJEGJIRJjv2n6NDI5izcg4kolky1TK7ITVWhV7D+3teF6EHgV0MoGB0TROu3gAKdrVhSOgtAX8WXFYGBpbHcCq1boIYIZKXpwtir2dgYFIyNOhkcWGX2tK4iJGEeTvDeaKWKiK0OZzuYGk7JRUv0sgJJO8J6GbqSGIqw9Wy8qmT86AmCZMrynuNZLIiSbHjFnvmtESyql0Ao1qXQRwqVSTOnPT4YlfiIURIDtIUqES1tQayBxtEuQQrDBUMgGQCo9MDUcyq3gF9GKgJoMmDIZT5rMsgxWWJE1mamtqGQyaWxoEGEobU6vSnTciYIfmDIIk9h/NE9s2XIG7vnqfK0BoabjDqPfC7q1hTv1+ZfmtUz3jwnwj7KJZgeeCNQhmB7SY0xZiYag4CDaAoJi4tst1QNvaA6/x1gDh85///Ap0S/dFPvfcc/jsZz+Lak25/Lltol5C39OUEKqvVF11GfzvQH4Af/Inf9J9I1bgDQZRYswIHSjJDvyCV4fX+HsBBMnm2Gzg9v98O377tz+MF154odWq+fl53HnnnRKf/oc//CEOHzlsMsWD4yDs3KkAggJvag4H70W0w8qTHQBB/VVdXWkRXMaow/ywwgDBa373c/pogFCqM2piBYPUIJj5KRqRJl6sVLElnkCx1sD3L5pE6cuKDxCtUn3dnldiV48rV0Ha8HlReKqog8ruLifbZlNY/9lUEnXa7xn2mICAqvNMBFsuHkK1XkO90hBTDwUsT7WsEosVgp+o99uRAGV+0LRAYW6Od4wf5DdpNkmZsQBqdTN0vGL98yVJShWNKiCpzQaxqHxPog0ycqLsxWZuBvIO6iaxMBYVwc12DY1l5ZRPEwgF9tJ8RUAF60TBzovuic2qMj/wGRJnKbx5Rfk/ScKkJiq9JyS0s2FgfqqETD4pezqBC98leJHyxZzA55stwmFtiS6qMSDB+AeMDqmIl/TL5LP8TgSS9HIAACAASURBVL2iwA+BwfxkUbQQ1I4QWFxy7g7svOv73gChlwnoIeBtZlCvcoOAhtf25qIZ76XqHe+sQLmeACGRinU0j4vK2nHhAIIl3XMY24LrscVd68BFRvfDk+Gi8Dh8+LBMdKsQsTXHS6KEURf4xgxozwxuflzUW7duPRm6RTK+UbsSnM3RXl0nj0OEqIWXERRJ8SMf+Sg+HAAQjhwlQNCBkm7zDZRkBQjW8fUGCWrOara3U4OgW9ua2T5cBJsGwewH699sZgYWuEyAYIu54DGLVlqLQDfHy08bQaHaxEguhXK1JlwEAoVyrYYXC2VszmcEpe26ah6j387h6X1HMZRJgkmC9BWPRbF2dFBAAV0leVWqNZQrdeSyKTEZLCyVMV+sCCHyvC3rMLtUlOfZr3O8Vy0juSkFykye7rnGtZ8/T82Nijoh0+2Q7+kshCqgUkTMCNTsUcgx4iHnxNJcRQSnuPLRHJJQWRCVRoAkReWxQBBCNX/5aBnxfAzRbAzlxZqYF+ip0KybwjUBNMzTNxMklRYUT4FaAKr1qfUgEOBJnEI8lYujVlZaq+xgEs35OmozVcQnUqiBGgED2Ty9DxSA0uuXMRoSGRXIid9gmQRBLJc/89lqsa6IjQQCZcZ3iCHeAGqHyoiNJtDIRiUxE4FAbigpP5OUyW9U+HeaPZJRlOar0k56aBCYbT9nB75zt7ubo+cWutwTvnkQCMICbua/ZW3AXh8MPlOZAsjl62HeDWti0Nkcbe4sjm8GAQRyEHbrOAgB4ECRDzuJeWozNj/soKna6hYWrXXszF3G4nT7jqVTW3tTKDDkY0twkTwd5D6XbwiB0+qC5NZe6dTOCRS2yr1MfMueHYp8yUHvqKLF88XXxFCvIxxAYCRFtWEHuzm2NQjWk78mzTrgTTtBmTkWXgCB7ylODee+u8tjWIAgZfF7PQAEq2ZHPJaEA+S/La4kSFAkxQkBBoO5NBbLDSwsLGJsKCen/WPzZawdTEmgo12vnsW67+Tx6J5DGB/MIsVsiPEYlkpVlCo1jA7mJLUwhRfjCCwVK1golDGYTSv3utw4ilNHkIwa2LZpAtOLDFykRnmpVMECTRFrYqjRvMAy6FJYVXEpSLJrHKmgPltF/IyMEClJqBuZyLS4BuLyRzV7ladpJVwZyIiBnNjF5CkwZoP+u3AbEhGUl5icKSbfKz+1iOiaJKIjcSzNVAUc5EZSwmXgOAi3gVEWTRdIAg3WlcK/JryAJjJDSRHe1BxkhpMSrZDzhSCiOVNDfaqC6HoCIUNyXWRHkqZ7IgmXai6QfBmXKI5AuVxDOp+UMmqLNaSGkwI+qClIJeKI5Jkroqq8OcjTOFQGmEsjGUFjvoZoOobU2rQEhpLSo0qrg3ITWGpgMdaQ76azcRgLDVxy4XX49nceDKdBCJTo5ooN2M9lTfk6/HexG4Y94Yepexhh77HPS43DvO/nxaDiIHhf7LQwAIGRFN02GldrdIjB8mpcWNdBd3V+JyFyWZufjy3BuRFLe8RuaG+8s8/c6+Mm5V3GLFgXblajXV77e64j1fqILtpblnS+3ybtWerqUkDHerK0wzNQ0gq5OX7bYmKw9rCqo7Wm9uDJGqz1GyCor5pfN9XWYQGCdW65gY+wAEFtnmF2mi42UfNRAoSLT5tAMtIQE8FCpY7CUlE0CIlEHDNLNWTiBobyKTzyqmOIf83A9GIJF25dj2w6iYViGZNzBcwsFDGUS4GaBP5LxuNYLFWwWKwIr4FBxSIjG1GbeRExoy4ApFZXIY+paaC5oYwG5gfoxliHweyJQwkRlBTAEj3waBX1uRqwJQWjZqAxV0d2C8M7K9u9dg+X0So1ReNQiTRE8EeNCJoUloMKIDQXakiOpRHLxrAwXRK1PZ+rPVuAMRKHkY8DRyuI5WKIr0spoGIG0RLPiEJDvl9KGmhEDeSGUjDm6kChgcgpKRgzNaDSROb0PJbmysJT4Ckesw3Up6tojMYRpSaiaCDG5yVcMlNWU0oaQrys7SuhUWmgMKgyMUbIbThaQ3NTCpFyE5HJGhITKWAkLnENSMYkJaZxtAojE4URA6ILDSAdRWR9SgABoz82Y0CKth3Wdb6B+bRyJSWoShYMbL/ktbjnfhcNgtPJKYyA1VMyxPQNQyUIPcP9NANh6x2izh318d/GPasfzEHwfDU41LJNg2CTBe490bHX2PbdXnol3LB5eRF4cgOCirUIu6AxdxPE7id51X5rXd20O61YFQEbt9bYBDVFCQH/p/wPmu0e0M+5CpUOvoX/Cl5tgEATQ8HkIHQCBO/+sWrFhJQom5l9VnjlVGip+j2e118VYqFZZFuDYBrA+R8HSVG0Ax4MRB1vIYwGYSUBwjkwcNZlpyEbN0CvuFLDQKlYwkAmgXgshjK5CfUqhnMp7LpyBhvuG8DUQgHTC0URZqetH5W1Qk0BtRAJgoNEHMVyVYQ+x+WUNcNIJxOYLdAnvymCkBqDLWtHUa03cHhqXkI9R1JRHI6VBQREawYSGzNSJk/lomI/VpMTcX19EpFqE7HpOuJnZVtmBa2iJ5mwcbSC6mIdpZwhpL4ETQRTNRhjCiBEpmtIbsogOhDH3GRRNAgUsM29JRGuSEUQmWsA2SiM8QSiFaV1bSSBZB2IlyOIFBsoxJqoC1cihmQViNeAYg5INDKIGtSalJSHBQzEhhLAYgOR2Tpg5ngwmCdhKIpYDYjVDNSHKNWBxFQDA8mEzJ7ZUkVMKDTpDCSTmCuXEU1mkRpch0ZpFtXirOLgDMZgkMcwU2/zQ6gNTEZQHYoiPdOEkYqgPhxD8lgdqXgMuWQCU0ul1p6XTyVw0auvx507v9uhQTB5mZ0y0bLMfA8yVpWgtRSXfU8seGE1AWE2V7dnVrp885thzuM9AQTNlL04VCRFk4Ng9qongOpkPAR2b/DpNbAIGW1dp7Y9uPNkFIYmoL7m4p7prIb5IdcBsh9G5U050TmCVPHvOtCUDeC4SHPbfUtjw57+lgOUvMc7LC5vP2cdb99QyzQx3B7MQejFiyFsrVvwxmE2c+ZYkPF1SbqkXfGUS5j9ciZ4cgpzASWJ1QEIKwkS3j6agbF1VDg1S+UKUskkqNgsk+WfSWGhWMFwPoNnLz+O9fcOoFKrY+/RGdEAbF0/KoKVgKBUrikNQjyGUqXaMh9sJEBIJTC9QE1DSdnaYxEMZNPCC2CiqEwqIXbwI4UCmpE04lGq4BdRr9fQjBqIDMaB2ToiBbt5qDQeRaxiILlooLYhgehSE7GFBgbSSRGqC6WqrGsKQ7pwUqthJHJIjqxHZfoQamUVQt0YiKE5GEPskOJPCPmPhEuaIHJAcol7A9AYjCG+CGSNGDKJKIoMaNQguGogn04K0JkrVJAcXotYKoPSsX1idqH7RWkkgnjZQGyRc03N8CY1/WkgWgOijHUwQBZhBMnFBAaS9NowUKrUUa7VEY9GMJRLo1CpIZJIIz4wDqM4j3p5Ufq9nDRQixpIF4G4SUjkN2jKWEIDMZoUYhE0UxHkUmuRMCpINssSCZJjObdUQi6dwEVXXY87vu0CEDzyL7hspa2FZNvPvQBCaxGHNEP3+wzLBgSV2SG8Qsg8l0e8uiAYIHie7BAuWROzOVouaXNIMBD25NqzABN5boWZjopaK+6GRjwGz1akfkbUgPbLS3PhHL/2c9YS3MJTuh/3NYlN7ThaIHmI7qBOd5tcZrXcQIxdCRQ828OAFvYvOQhM5+tM1kQvBoa4vX2FAELY5ScnjRa3oP2WENc0k9X8sxdAUO6QSoXsbcRQhcSiTAes+lcAQlyphOVPfdcgdG4nYcYtbN/p57bEgCvPHEctk0KlXpewy7VaDbOLJQzmMmDCP54sH73wRWTvjOGMU9bgZy8cEVBAUwSFk981PpQTDgNNE3OLjJJpIJdOilAiQKNQ1WUQjFCAI5FCszCLWKSJZjyCxXhDTuiJGuMbME204hjMoYZogwLWQDMXRTyaRSKeR9ooI2nQjTAiAIdufgQIkosgGkc9mkK8WUHEoGBPYbZSxkylhLXJLKo1lUqeV63ZxGKN3zA9w2irz69BMgKk6kvCAWCZB47PtQACTS+M1EwnjVwCyGdSMmeeOTKJfCqFkXQalVqtFQVxoVRRHh3mFYnGkNuwDcnCUSSMOgbzaew7Oit1IkAYHsjI8+R4EFjlsykMZjN4cXIGM4tlrB8bQKVal3/ShnpDkUPjDOJkzuPh9Yg3Kkg2CvI+2zyzyDgYaZx/+bX42j0ON0eJtGsZ5aAtJuwk9BK8QSphm8wI+7FlPOd5AnMBNT30jTdASHZ6MTgl3PZuNAjSB+F7N4yboJssC3/Sd1ed24SpKVB9q27rdC0WOgdc2XWdf+/sD23/dT7pyrFw4S50ftkDhroAP69N3vqoBiv+5g1VC/c2ey+Gbpw8Ekzl6xJq+UQBBM+158w3EggQ1KSzahokzr8v00EBBPWmaZNeFYDQXtMrARCSAK5Zk0F0YgjcjkYHsiiWylgoVpFJJxCJp5FORAQgpL4eFYGo56UIl3geC/UEyjOHsW4wifXjQ8JNoGagzNMu7d5NYGaphCELoJhdKomAPWXNkDxHcwOBA4UViYq5TFKEOiMCPvfiJEYHcgJI5pfaobinFpRLrL4SA6NIDU0gUZlFulGUMo7PFVCp1KQsCmteNHGw7gQaa4byeHFyHgeOz2LbxnEBPlq4sk4EGKl4XGII8Gom8mDQxkyEHhlxcdukyYVcC9afhE0SNymY148PinmFAHTv4WnkpU1pzCwUpJ1ci9QOECRlksr8wTGeLVQwlE0KcBIPIAZeSsaxaWJEyqHphdqRscGsil3BqJalivQb2zk1X8R8QeW5kNlqAGMDjH6p/jK1WEImEReNgfWaGB3A1ouuwt//67/bTQwaIPQg/Dx3Ijcx5aY6DKNO7Ge92svNXbMQXrzafax1R7jUNRAgtICUi4dBEEnxi4yk2MrmaJYUwr7iLiQ7ay/s0m46xTkjHAdydbsdjEc/3gEaWh3qNvqWCtlQaJjZ5D5lw4Cl9pthZre5PENOXh1v3lq7FkBoDav6ISxZ1K2lUh2XOnWMcSSi0j2fYIAQ1H1eGoQWYdHsBBU0ye7FwzZrTQO/o7gMbU2CUx8VjapTWAdA4DeoQXA4SDi1GO09wvyOrxeD+7xfCZBwdjKKzVvGMDGRE998BjZaqhqgM0AilUYMdTz6qiOIfy0i5ER94qXQqscyKDTjqC1MY2IohXWjg5gvlsXkUK3VW1wE8u9EIEUg9yjY+DeaIxg7gXOdvAcKWApEah7oKUHXxsm5JeSzSWRSSRw6Pt8K41yuNQRkDGQIcyAho5m2miYGvqsvAgMCl6PT85ieL2KxXMX6scGWgCRA4XdHBrNCuqS63XoRmPAETndNfoMXf1emiIjUf81wXjxBDh6fFeFMALB57bA8y3ayP5MkA0YNTM4WUGswKqTSviRjMXH/ZJkEBYulqgoKFYH0CU0YBCPrRwfFVEOzA0/89BBhv/CqIY4mokiihoWlkgk8FI+BF8tjGex3lkcXVPYV+4b1V54sGZx+8Wvwj3faIykua/933269z7FBC74lMMwfQj4fWjKE3drDyETvs6xtD/aOg2DRIFiJVtY+DQ0QXFl3XqPj9fdwvR1Wq+DlwtXyW7d1csiR8ZqtZqWsdfP6fphNtk326+yrznK9+61tNWm3z+37LYDQMk/wuy4mDjMUdodywkvoh9RiuAGUuA9AaDTquP0jHw0RKIlujvRRD87F4OXFYPaE52RmHzv7VJMKrWmb3daY0iKoS4EEkut0eit7pxIg6CclXgk5CDQx8PICCC7TugVEThKAkDEMXDuRx+gZ46hUGyJAjGgCiWhTBC0F6EMXHoLxz02cvmEMi4WyTS2uB2ZUTrRZAQgqkRHEk4EdunXDuMQ+IIeBMRH4HKemeDPQtdEwkIjFRDhWazXhPUgQo0gUlUhSTAYxo4Fjs4simKleb10MXJZjzgcVaahQrki5BDAU1HxefY8n7Som55fkZC+uhLxSgzDSg4jMvyjtp+Zgw/hQq/jFYlnAwfhQXupMLsPcYgnZdEKEPNtDjQS5FvlUEkdnFkX4qvrQNhVHfPxUNEvzaCwcl76jJmF0ICO3aQIol6tYOzbY0iQcODYrbaCJYX6pJJoKtnF8MCdlk9xpveKj64W8WJvcD6NRFyDHNvA9XrtfPI58Ji3AiBdB0PHZRQEIEleCoaoTMWy9+DX4yl332jQIywIIIbd1z8W9nBseFbfuFb5y3nFT7wuuVbI+6ydGXT7oGWqZcRBkU3LzqTdN90G5GESDQA6CWSlr4wfyg2JH1mSs5fT1K+++NHpAzw+eEotF+qKbMepdJi41CBm3bI7kIKwSQAgL1IX3YUGHVq+DdmKuzhggChhZSbQqQ54GAtZRdwIExA0Y2lPZDSBYA1NYCmoDBJ4SvWz43pqzMAC329l6YaOB868+DTX62NdrQDyNVJShhOuoNoEnLzmOgX9THAQKLwp6CkWq03mqHcwoPgJdFwkKhvIZjA5mPAHCzGJJ1OHnnboOhUpVyuOJmDwFuk3KuBMfp3JIjm9Bbf4oGosz0iyq8jesGZZn6EFxdGYBZ26aaDWZgo9ClCYGaiuo8SHhkkKZWo2j0ws2T6X44BrEhtaicuCJlnJt28Y1qrxIBEem5uX5daZwnS+UMDm7KCYKghhe8rNpElgqlkW4jw3m5J4RiaKaGoJRLgqpkHUQL4KMcidlm2n2WD82ZOaFgJQvfAhA+lIDeAITPf7UsjD+BC8STKkF4WU1k5A0yn7ec2hKwMC60QF5hmYUPqfrns0kBUxsPv9KfOWbToCg9GbLurwW8jKLDVWngENlmDIC9Nhhiuh8xuwT71wMBAhy/HF513w5CCDoZE26BOtpiADhtttuw2tf+9qWIOitJa+89VLpAcbcZzTKP/r4f0fBARCs2hfOy6BIiuE0CIdbduugQEn+cRDsI9CxZBwAwc2F0F2DoACCyALTfOANECgMzKcIIvoCEPSKde6gqwsQ2P5fHE2hsWWMIQwxkM+JEKEnQc2I4elLjyF/ZwwTI3kRXBJNNEKVe80kAhpyoqYtnXZ7CsxUMoYK4xoYBgZyGVSjSQEQ1aV5FMo1sclTEBMgFEyyHvMs8JLAS0w0ZERRpvq8UoLRqMlzPPDwO4zSSG3GsZlFnLHJFOjUWhTKLeFHkEDVOi++y7pzbvB0TaAhApXfN4WlVbhS7U8hfmR6Udq6djQvz7OO+nkR4AMZlTiJGooyTSZq7DavHVFzn7wCgh4zOR4JhtRScMQJsorluqj4x4dzCmQ1lHeHDltN0wpNEqyPJINi0KR6QwQ+hT/NEGwDQZZ4kdCrhB4W9YbcG8iRu1EWbRCJjnxOklnVVF+zXuRCUINw7mXX4uvfesCuQZDsj32Q5CcSJLQEpAfY6aJ5HeaKZeInXy+GIHV9EECgBkGSNTlUHJyUBAif/OQncdNNN2FmRqHvV66Xdw8cevGQ5Hv/y7/6SxQLBcmp4HX55mJoNCDJmkLkYtDEtiCAsHPnTjD7nxPsetWvtVBdtGd8x6o506cu53qzm1bIUVAaFfWc08SgTosa1BsMXcc/EZw0Iog4OQgBGgS1OdvjbgTPTrXQV0KLsDkRwSVbRlHLxpAj2/5/e6qI+2IyiWcuO4bsN1T7KfgodElGpBCieppCdHwog1PGh8XEUCi2T7Tci6gxyK49TU7ZqaUjUg7V4HSDJECg0KTgqtXrwguhiYHf4Ltaxc/x5AlaUjU3GqBJgwKfrn9rR/IiUHlPC0B+gyd87flDlT/7jcKT3AXeyzPEdKUmLosUthogUO3PUz4FOM0LFLx8n/2hgjy1B3upXJXyKGCppWAZfIYgiQCFwIEqfXnGjDJJAFCpN4Q/QQDAjJLCSTAM0YqICcucDDS7UNPn9GLgbQIKghgBc3S3zKYUUZKRLEtVuU9yKPkV+iJYsV4cP4I67eZ4505HumcfNV4YDZ/vnPbDxb2q7bsQ9i7+zcFL0PlEELYPABD79x/Arl27bDL6Zz/7GROnKf2kq8ueWYkwHITdDjdHfQIiQPjEJz6BG264AceOHeu+4a+88ZLrgf379+Pe79yLr3ztKyjQ79wBEOQ8bU5IAgQ3E4MkawoNEA6JoA4XalkBhF42HS34vcwMQQBBmSEUKGg/6w4Q5Kk+aBAUiOmmtZZnNeemjzM0axi4ZDyLoQ0DSCYTwgXgaZhpv5+7YgqD30wKEKBQo7DjKZzCmCp72uV5wl43OiT2cdrNKbgpnPgsT9m8KFhps+fv5WodhybnkaPtPpMyXe7qIrDZvdrGT2GaTjG0c1zK5embQnNsQIEIPseLQpLCUZ/U+belYlVAxkA2KYCE48zTNqMbcpwpOPkeT/C08fN9agjmimVlBkgn5R8BAi/REFBbYAF/x+eXWm6ObIcOEjU9XxDiIgU/v8EhI9eCKaKVFw2JwIqgqHNbcMbxWXImmDmS15GpBfkvy9LRFgkqGFeC5g6ad1iWFvRsL8HMQCblSTAnAJsYUeYGtlkCVqXi2Lb9GpuJwctDXeRW2LnnJ+i9hGs32oZunvWq8zK1AOE7w6yAZWvxBAjuoZbbrSWGvOTiS/G1r30N69atE5TBbHn6uu+++yAaBBMgOFWorwCEsDP45fOcFSAoDoJdg2AlYAZxEMLkYmgFSjLCZHMMBggd6j293ly0CE4zg+Jb2HcTLaCdZEYBAQ4VhU0j4QQIDabhs88jL+6P5iAsCyDYK7hcC3Gr4ufEIzjjzDE041FpP+uaTSXw9OVTGP1WFi/OVZCNNsXVjwKLQokqfQIEnnAp2KhZENdFpmo2T7mnrR8TYcbyCBhEENbq4jWQzg0gnckhVi8g0qT5AuIKSJIhAYBoDOp0f1RBiXiipwCkcOXpXHsDcHwJaMTl0HRpZPmMOyCCm2p9pltOJgTokMzIvBL6srpNWv/u3B3ICVhrClfe23XwuIAPagd4Oue3KNz3HJrGxHBO2ivgolITTgYBQVpcJ6MCdsQcw3TS5pwjH2HT2hFpP69DcxXRIGRijH9QFrMBNQXUSrCfJ4bzqqxaQyJdkoCp32W/UZtAMKeFPUEZ20BzEa9qM4q5WgyRWgnbLrwM//rv97dMDMsiKOqOW44A90MhQcSAbjQJQSIgLIDQ9fXaqKzfMZ/xBAg6WZN+x6092191SSBAaLs52luZz72iQQga95fb/W4AQjwWRzbbGSjp3l5Iil0ChDBr27YWvQCCxRNEEzKtIEGr+MMABCvg6NAghAUIppeK1lL0rEFobRr2ngrTb35zPgEDb1uTQWnDkAhUMQkkk3jqskmM78yhmN+E2uQ+GNW2KyBPtQQIFHQEE9aLqnqO06VnbcL+o8rMuWXdqCRr4kmdAjM+PIFYZhjVqf1IR5U76uHpRWRT8ZYQm10kr4Dkx7SAAv6jXZ2eA/wbL2oaKAzXjORFAPKaq0RElR+vlwSQEFxkMynMzNNdsCYkSX09f3gKI4y3kEtjoVhCqVzH8bklbF0/gqEc3TINiSJJE8jEiCIH8lpIbxDvBKO0IBoSBRBimJ5fwsaJkVafsL4EPiQ7cpxoSjg2u4Q1Q9mW1wQB16O7D2HTBENUm8AidwoaTIM9uU/qwH4WU0KZ2hHglPEh+Rv5INQEkLxIDYPEoyhXRUvz6nO3tDSDDz61D8P5tLhm8momsqhm16E6dxhnnn0+7jBNDH0BB9bJEKSK95qYYVQV3U78sHXpAtwE4RWv5oUCCK7tMwwEcRB0Lga3eAUvR4AwOzuLkZGR1liQezE6Ouo6NnNzcxgeVr7KL5dLA4Sv0sTgokGw9oNvqOWQXgxHjio3R2Vi+I2AdM87UTI5CF7r3W29WukCNhcmaz4ECdij7cbtUpwAQTZM5Vvk4GXZsy92DRAsDdJxFPitZQMEFmIhVnS7T7rN+3MbdZx/yUbUVEJB0HvjuSunsem7w1hoplCYm0K9WhOBy9MwyYYEEkx9XKk1kMsmW+x+CieaEujSR2BAuz/dHecXlcAmgKCJQbst8r8UdjxFU9AN59UJn+6NFP48WVMI8/7zR+ZEA0ABzoveDAeOzYn3wGBOqd2rmXFUGNth6qCkQKBGgqBC8wTO0N4KAA4cm5FYADkK11IZhUoDR+dKOGPdIIap3jcMvHB4SrQUVNFTSyDExOwpqMwdQ70wJ1oE/mM7qVnhyZ0nel6SW8LUhnAONBDFdDmKgVQUowrPyDo5cGQGUUl8FRNPkCUjhVqtjsLctPQJ5yzrwLL4fZpJxIOCvI5UElNzS6YXRwrVSAIzGMJ6TLWGmloOjgm5EwwOpSMzsk/Pu+I6fPu7PxQNQt8Bgq5Bt6fxMJtztxN/OZoJa31cvtstUPAxMehIit6tCwMQdu1iNsfOXnw5AoQvfvGLeM973iOdsbCwgG9+85tC0hwcVP6/09PTGBsbk5+/+tWv4h3veIeElqU9/uUAFpwaBHIJrJd1HjEOQs5LgxAyF0O/AQLr6goSrALY6e5oNpDBktqXKkW31xnUSIdfdvaNNsEIQIgZMPQSdtMgeLgw9g4QrDuspWYuTOdu90vn7nHLeBrYpMBzvQnsfc0cNj4wIKde9o1oDYrKo0C4AtEoI/6jEYkiGyNZsCEaCHIFCNp4ylV2fOZ5qGN2ibb8hvAcqClIp5RHAcEOhZ/EAMilheSnBSft9AwQxDGjoD9UzSEfa2Aspdz7SIxk/Sjw+K2xoSwq9YhwIei9w99pmiB7n99gvdaYbn98nzZ7Cs/ZxaII3XIkhVljACORRaSNiuAwekIQqBSrdYkpkEkpswKFLdtFgau9JaTMXLoVSprAJJNI4PD0vIDVeCKJpUgWSdSRMVTkQ36Dgponf841ki91nAKCGmoySNBkHZRpIt5ysSTRkeCG70vAqaYCISUkkUO5uM6hRQAAIABJREFUxbJhPQWoNJoYySuORCapAmBtvuDKVqjlUADBE7F3yiNPO323ElUXvdxJblvc5i9hyvQyI7g0WW0yHjeCTAzxBHcX9xrpNR9EUvTK5sgqvZwBwuLiIh544AFceeWVeOaZZ+S/JN3dfffdeMMb3iAb2z//8z/jne98J44ePYoXXngBV111ldcQv2T+bgMIPXoxdGNiaAGERnCgJKcXg996c9e4aRnTvivZHc2C7ABBrVwvgMAS2hoHVYCV/HZiAYJj11kBgHBqOoZXnzqMhVSMXo+iQcjdSe6AgY1r6MUQE28FRiakQBXi4shaJPKjSBWPoVJUKnxeZNLrQEk6CuNMgaS9JqLNumgPKDx56aiG/Fnb9WUvy6ZEuD5/aFLWLk/pc0ZG8hVkUJF3a3XFVdCujNQi6GBF1FZw/GjzpymCwIOBmcg1ZMIi7Q1A8MAy6DlBIiOjE0YtITKFP2JKcs0x2bphrMXX2Hd0RswtrMtp60fkWxTwBDs6cidJjxTijPegZ6qmyGqQoP9ODiszXwq4MoC9R3So5QrGxBySkm9ozQXbyH5j/gmSG3WyOb8NjM8T7BDkjZ6xHf/wdRVq2TN8gKMwTyDRjRpQGr5MUOF8vVtBvtK7vAdQ2L/Pw4vBnaRodzkNAgi2UMtmBYSRbRgvK4BAzcBdd90l3hqbN2+WTYSmhXK5jGQyKaeVN77xjfi3f/s3AQJcSFq7cPz4cQEJ11577UpPkRNefpAXg7WC/YmDED6SYliA4NuJLlEVNUjwAwgi/B1Q36lFOLkAgh0kcL2HNauGmYQ5w8CV67JYc+o4ipW6AITEv5hAycx2yBM9gQJPsnIiRRxGLImxDGMFMHwx8zFQMKMjkqIGANrNkQK5UKyKcKVyhkmHqFZnuQQHWnPDSIIk+x2anGs1g+PEkzTJjHyez0qK5FgUY0O5VrwDxksgsY/vKzt9QrwiSFrkPwppAgfGWKAgpsBi2dQ2MBcD1fc82cvpP6ZO7/yO9gZghfYdmRbOA0/va4ZzrZN8LkueBGNHQAJC0dwgLps85bPezWZLSL9weFrqRuLiOHkCloE9Nr0o7eapn9CXcIXEzUiMZo2YJKBiG9h2umSyXIIuEjDZ5jM3rgE5COQ3MAMlA0xRI8Hw0JxDWy54dcuLoUPwm/XwColgez7oJN6FbV+h8y5jNXVbfphF0S/A4ahb1wDBWtcgE4N4MTxvz+ao/bRfbhoEennccccdYjYgD4GmA3qAUEvARU3TwrPPPovJyUnp4qeeegrnnXceisWiaBeuv/76MNPk5/qZIIAgc1dWOt3b/E0MzOYYHAfBBAhdkhStndzNQcQt7LIW/lbVvrV8TT50AgT1fDvmgBUgiLsZFYAnxMTgdVRSf9dgIWiPDprIF8QMnHfJZhRqBvZceRzpb8REQPKEzYseCzwZU5hRW8CEQRRIG8aGJPAOT8m0w7OrSLrTcRMovIqMcCgp1qMYyqWEVEfbOfkFBPe0rUtQIIlUnFCneMOQ2Af8uwQ3YlIk/lyu4sLTN0jOhsPTC8gmE1IvkhUp/HTYZ5of+DNdOOs0M1D4MyQ0BWs0jqhRk9M3haeOK8B6MlokT+pb14/juYPHxJRAIU9+AdvO0M36ankxJGKYa8UbiKARTSBqNGmEkQBP7APOIfYRzQUUgGdtmhDg8cQLR8R0Qe0HwQf7UnNr2GaCDJVmuyZmHEma1VBeIc16XZJsEbgxGBLnbCIeFXMQ68pkXIem5lUY62bT1GwoQMXLChBskd59bPatcPJBE8rv/koIdDuGtn+9m8URlq9gfS6ofMuzPgDBmc2xs9RuAYI1MuPLCSBwsjMAEANMXHTRRThy5Aj27NljZjuM4Oqrr8Y111zT2kD5w1e+8hXceuutrYnjlbthOfP+ZHvXDSBwrjrTSEskReZiWKYXQ68chF4BAt9zzYIpfIB2jIOwAEEJXJ01s22SOJkBgjnJ1X+WOQE/tHEAB9YOY+9Vkxi8K4XnD08LYY+nZyZAohChzZ0XsyZqgEBNAOMAkIRIIazzDvDkS+FtJSlumhjC2uEBsc1TcGmSovL5j6IRofCuI2I0Jd2xXqcUxhSK5Dlcdd6pAg5IVOTJmGUw8JG1D6iR0FEOKTAJdDZODIuGhP+obdQAgb+rwEdMh6wiDjIsMj0HeGnziQAli6skf2d/kKzJLI/nn7pOBDazMBJ0kA/B5E/UdLCvzt40Id9kO45Mz4tpgm205ruwhlpm+dp1UWI+RCMCLAh+CJAk4FGK4fUjEiiJ39KeGtTSHJleaMV+sIZaptaB/aoBQrWqxrTj6oZz4Hw5SICGFcS9zmmPgJCen/WrT9g6hDCbrDhAoJtjOylQu+YvJ4BAjwSaGb7//e/jzW9+M5544gmk02k88sgjOPfccyXYy/bt23Ho0CFs27ZNFoPmILDH9u7dK3879dRTww79z+VzToAAEvc8FkI/3BxXEiBwANwJi505F4IGy5r6WT9rzeZIYbUcDYLaJ9q7RbCbYzc6VfcB7Ee0xTMadZx33nrseu08xr6VFQ0CT63seaZXpkq7UZqXDIOEYBTM5BPwGdr7edKlNoAnWhVkyBAVPAEDXQ4lmZMZ8VBOwhT4xYqYGrasHcZQLiuue9Q+MJMigyNRa0BBSFCgL8YioLcAhTGFOE/5vCh8CUpUtkgVxpindtaN2orzTlsvZgaaHijQmb00lU5hdnZOCHynbRiXcnjKZ36EjBmeWTgNpheKNrEQfBBQWEM6UwPAE/zx2SVUqjUUqw3kBuhCWkOjWsJmcWdMSH0o4GkK1RkzuafTU4LeIQQUBBfrRvMtr4NsOoVcOi4eD+RdsN3UdiQGxxCJJVCZPSogZ40Zs4Hfp1mDY8H5zv7gGBCHzRpZzMWGcfH55+Dee74JT4BgXXTdoM9uNAQrBRR8TCTLAgnWfuimnWZfrqiJwZqLwWkzejkBBPZ1vV7HP/3TP4kXAwHDPffcg/HxcZCwuGPHDiEjEThQm+AECI899pi8f+mllwbJkp/r+24aBKurnVWo+JoYQkZS7BYgWEMtB3W0n0nQqknT5XDMvYQmvRicGiRnumcKGd1XHRqEZgRQMql1+WmkwgGENlTx7wv/o85ygcLrR5I4/O4I1t47IIF6VCKsCEqxHFCvApUlEUwUdHR5pPqfbac2gEJI70tyam40JX4B7fN8RpMWtWsghRj/piMQsp8pjCl0KfRz67aKYC3PHBGzhb7IL+DYKA1EtBXpkKdt2uLpZUC//0QsqgIkDeVF5U4+gk43TdJgcngt4vkRFF98VkwNOp4CT/88gfMbVP2Ts8CLv0+VDExObEcpPiDprhmPgGWuHxlslc9nWZdKw0B8YBxGvYJmcR6ZJHkMCsCQl6BJhaybTgRFUDa99iLM5zaKxwiBA/tIIjCa6aBzj/2rzG1qJSLxtJhumtVSK1AVvy98CjPLpu4rga2GgXIij2pqBKOVo1h88CuS98L16laDEPYU3pUdMWhncLkfxkTifMbn9G/lYQSCiwAg1WUkRbNx5qp6JVBSd5OBbo7vfve7hV9AXsHpp58uESgZMpi8hO9973std0byEc4++2z5AMmN1B683ACCQYq6x+UJEO5jNkczF8OHPiweIPpipM8777xTeB4//OEPwUiK7VwMwXEQwgCEMOvYmd2R9ROBbUunbRfmTqKiEyBYu0nMDkz1zHwMsvueSIAgrfNfKJp9391ykqc3xyMYf98AJh7fiL1HpiR/guRiKJXFzm3UqygWipKHgCdopjvmyVTyDpCXQD9J0+WP/6X6nBdPxwwqxOuFC98n/6XmgfspXQ61Gh71iklYbCA+sEaEV6M4J7wFfZEQqS+GZNbRFWlW4Ol83yW/ASOqAg85r9TBnyK97+EeeibcK5HKElIP/X3ww92cyM3SenjFtR5OsO3r4tgNSAgCCGEb0I1Cza+ng+pjfdenbiEsB8HjbT5xQgACN7tcbgCf+B8vr1wMP/nJT4SDcPDgQWzZskW0BnTZefTRR0X4EwjQ1ui8qGWg1wM9IF7KVzeBkk4IQCiaiWTcUEDYxW1Zvc7Ts68WwSO5kswHs0yChlb6aAIEFSEXwqZzYK0wGgSvZ8I2tZe5GnZP1mXTo2Hx2uuxNHCd7XNaiMSPPYfEvErAtBJXfP+PEam2Ewz1I7FgUD3dzOXdaI+7Gb9uxyOo7su+H6Ly3WAE1idEkR3V7qVfwtbLS/vYzRgH4RBn/b3KDg0QWkFYLCsgFEnRkayptbBfhgBh2YvjJV5APwACkzXVzUiKHw7M5tijm2M3KkeLAHcOnxtAoIDvdHm0Z3/02q28AAIzOTqVMScrQNBt62UDtvZLqEA6XmPTi8QwP76aACHIvLyck+Ry+3+ltiq/ce1HncMOfdhvhS1PT8XlgoggYOB2368tB7yyOTIOgmwilhpLABbL1StAeLnFQVipxfJSKzc0QKD2POHu5igA4X+nAqab46oDBL/jiMcqdAu/7Oby6JVcSeaARYPQnhMGDFNr3S1ACJpX3Wx6QWX53Q+7CbuVsSyAoAvsoaGrBRDCnAB7BQjL6ffljLe12z3rYI5Jv07TXvXtR/k9TB/f7vMChN2Ol1+9nGV5AoREyu7m6CRWcSEEBUpSkRTbcRDEt9is3cuNpNiPhfNSLyMYILSVb14mhlUBCD5aAV99pctK9srPoHMu6DFfFkAgJyGApKjrEcadtt8bn+u8th5Mut0BHWnqQ++6rkiju1W3GgAhbDV7AQg9dHV3HbTcpy3zws3St9zine97qfv9vrOS64PjE1R+2DEMU44/QLAEYnGb+GEAAnMxWK8WQMgPvuw4CP2evC+18rwBQudW4BUHQQOEj3YTKInJmm7rgaS4AqYGa94Fq6lBB0xyHfMgDYILQPA8OYU4egdtLH2bl44PdSN85dUwFe3Xbmo2ups69qufujntdvNsv+rXt3JcKm/9U9ihDFuf5QKQbk7qQdO1T1uNZ9O96hqKg+A26bmPBJkYOtwcLZtPPjeAX33Pr4qr3y6LliHs4L3y3EuvBxp0tSpXcP9373PJ5mjfCoIAwoqaGKxd3+0xLcDUYM3PwEeZE0A2D4ZbtqwfW4bUVQYIQZtZ32dmD9oE24bXT6kYADpOFoDQzbTst2DtZfzZrYH18NEe6G8GlhGickG40su8060QZ1W6fSfo+X63PxRA8OrTIIBgy8WgdrlWUQQIayfWirufG3M/xDi+8shLrAfIceGpeW5utud0zytmYvgO0z2X7D3utxq7PH7YTA2SqEkVoBLwqEBIGijov6vKmH8XX/I2mBA3SHox8LaLF4Pf1AljZtDvB22mfZ2i5sfCCmHXuvXzyLkMDUdf+yVkOoB+Nr2f9Q8FDnwmnNs466XZbZvDzme38oNASq841a99vY5D2H7Zv2+/uOLPzMy0PsWIwBGvZE3mLiX/6SoOggYHZs/aNiGfHugmkEoI7WirkX4uZdaN2DoAfvYfN0Z6a8J47GjtCJNmB+h+8NkB3bxJpL5mvHLnhPEqyi1Yj5Y32iffWZZr/5pJY7wmqpuwsXJRvN7T/WkL+mGZJ6seatkNIIik7mGJeuyI1jnkNDVY+9E+d9tZGjS5UT1rISn22cTQMS966IKeX2mtEf+u99zow+6MYStoKS8scAlbdNjnwgrYfjc9bP289wZ1J3S/+Uhvr7b5Cfyg07jn3uRyIyywCOqzbs4cvWw/QfW0fp/byL69vQAEs5XhNQghR9YyW0JPGkuPBwGEjmh0YQSxY0SDOthtAniCHF+fne4kTwsgaHWzl2RtoRYRISYmcAIU92ncwnhu33D2kxTZ7q1OAOW9VLyGxdpd1DxlM1nceeddUhDDwP7xH/8Rekr3TA7C+wI4CF4AoddVGmhqaGdwdAZFcgO3rfgHZudJ3CXtxbDCAEGPZC9rI2jDdL3vkIjdqNNb5YWVqmEr6BFLP+zrq/GcBVutxudaq991fHoBVgETzG9I+wEUgnZk5zdswjagx4PKdq6xsM/3ujblMOwHEGLxqGsdrJv08gCCfxPbNlarq6Uh4fndLj9Z66Uy7UVwyyR0kWB+alm3BD0iPj1O/dK+LhCS9JXK99N5WTtGC3YzoI4nictWjqNQifbnNQZqidg+2XSP+dctNnK63IoGIZM5OQBCGJDgt3s4utPqUaAFv9/+ojQyjoRP/J4OzscBc3gxeJXXjXnBdR2uiuhx/0g3G/JKVLPbTXsl6nCylOkFRtzWfeitzkPKewn/XoDjaoxhF1vBsoezW9DubL+nicENIDgHNxxA0G6O4bveKQx0LxEcdHMSVcLK0UVmNehG5imk3ISq3/Mu39Gt9VLle7WxNSMCVo3zdrcCV9Kluq5WH2nnAQ7Yw94mjnZyotb3WlDffU54ml4sy8ULIHTDQWAuBmo5yH0I9GLw0yB4dVnQ6gzQIqj56478FChQH7ACitb6OEEAQeq87G2t9wJ0l56IOoTf4Xpv38/Dm9a+t4E2j0EJBRB8BjRorOU03EXHrcY49luB5Qn4Q7bbq82hAIKX8AkHEOxujkH19RScpsuljb0dVJg6z9o2Uf2KvznCPXGO9zv2gFLWavUEEHxWTBj1u7NbvLxQ3EwAXQMN82PWpEr29pu/ucJmn6UYYC/qB0BgLgZR1/cDIGiQ0M1O5IfFLINmBQJeP3csBStA4E2P/DbO95arQWitr1Br86X10GoIlpO9x7xOx17LORQ4CIk6u116Xn3Z7Th6AaKTaax6MbGw/r2RFM2W9x0gWE+11tOqjFi3w+avpe9WEDrt79bBDwI1bhPF9cRtJuvxHUyXbgjiXrRP5PaaeAMH723eyyyjAULH/W472g/BWdquSIqdJoZuNAh9AQjd6rVDTmNnACVZAS1+QRv0epJt+Yj2YjgBAOHlCBRCDu3JJDf6Vhc/NX+vW4Ctcn2S/t2YI/w6J0x1Vns+dGO6CKvBOKkAgtrs+oXrOgFCS5CHPKHbLA1+h10nl8BSvveJX2kdnOGrBSz7zL5goR5+zYfRLDhLcxNc7WdCoBdL8C1fYNNCZHazkj7hnlCA4EnCCOj7sDuGOf7WuWEFAl6eLB0bag8AQc2/MNtfuHnWv5LCfe9EPhV2eE9kHVfi275jHDABQmkQ5ODYFS0rsJnLOfV3M6d7mRNhhbftkOrT4l7qoIvzBghJS6hlj1Hshwahw97s2tBemmgOo9toehnwewAOQTPRyyQSaCrw4Ae4EySDauF+3xe8dAOfW8PjLTnD1bs9WH7urRRgJyVAEOna40r1eM8NQGohHugCTJKiLjekicG26fQBKHSzmfY2i0+Ot3rZoU6OmvdeixaQ9JPyfQAIMg0t5YQCFb03K/DN5cxpv3my0tqNXuZoMEBwGQ3Fmo90FwchgJjfeWrppTmWse1lc+vnzAuAvJ6nd1/1gUXNrE96+rTZQ917AgiugEv3e5uQGLjKzAe69jAx231SAYSwO0YPu4NnvIowHfwKQAjTS315Zpm7VV/qsJqF2NZtx4ErfE3CbFvC03W5wrwbvibdP+lrVuninNCP7cPtc8vRkujy/AGCh6pcq+q7CpTkAxCUTOxFseIxCp7sfC2VPN4z27tly6mYnZ3B/PxC60FnkVu2bMGv/sp78cf/4+Pigy+X46FkPCHNqlarlnIiSKfTKJXKGBwcRKNRR6FQaFfIk81jfkJ3laMJgafJkAusPRZefev8sPq9m++HUWGf1BoEaXCX1GjdbasJEl4BCN3v+j2+8XICCJ2eYZbWh5V2Zj+HEfJuACHMe9ah7MY+3+0U0GW7zYEuuyPw06s9z0J5MThrLQQ7g7kYLsHXvvY1rFu3TsIxzs/Ptx6977770BFqObD53g9QqPI7+/btw+/8zu9i48aN+NM//RMcPXq04yXdiWedeTZKpSJqtTo++IEPoFAs4n/9f/8TU1NTnR8yfck3bdqETCaL3/u938O9934Hd9xxh5RhvU7fejpuvfWd0t5HHnsUP/7xj1wrfua2bTjj9DPwzbu/2bofj8dx881vxZVXXolUMoUf/eiH+PI/frkTIJiERSV91W1vT4F+Txv3aU3woLIMdscZDQMIrB0YBDZOuIlhGfPYt+98dhMvU4NvVV4BCMsdqdDv93sFhv7wKj7ouY5bduLuKxNK0PcoZcO+tlpjF7Y+3fTiStc9NECwTg69gQdlcyRA2L1HxUHQ7zBt7Y4d1+LSSy6Vv19zzTW47LLLccGF52Hz5s34xtfvwI2vvxHPMQukYSCbzaJer6NWq+F977sN//UP/hDv/Q+/gqeffhqzs7NyzznJxsbGMD09jWQyibv+7Zs4cOAA/tv//YcCEBYW5tWJ3/HSyMgIZmZmcd555+GLX/gS8vk8bn3nO/D444+bCXPU8L7zne/E8NAIbrrpJtz+sdvxwQ98EE8//RS+9OUvYWlpSZ75/d/7fXz2s3+FX/qld+Edb78Vb/6FN9nGPJPJIJfL4dOf/gz+4A/+C/bs2dO677dglgsQbN4WFrJg54RUbXVTZngFffKb1GEAQhAocJbPSIq5bGckxVX3YnBWTK/YsFyELnaNrkGCFSAwUFKXu0mYcQvazLpoXlBRJ/X9Lrv2pG6LW+VequBAt3U1x6/fa8JZ936YFnS/+AIEt0lh3cjDAgTrOzxB77hmB665ZgcuuuhV+KOP/3f89JGf2ubkh37rQ/jCF76A+fk5fOD9H8TDP3kYBw8ewMLCggjWyy+/Alu3ng4K9Z07d+LBB3/Qev+Ky6/AtjPPxB13fAOpVEqSTFDob1i/HldccaWo+z/1Z38qgIMXAct73v0rOH78OO7593sEGDz80MP4wAfeL/X6nf/jd/Gtb38bTFv94d/+MBaXlvDM008jPzCAd//yL+PP/+LPsXnzJgwNDYPZK+fn5vCXn/4M5ubmsGZiQrQExWIRn/yTT2Dfvr3yzfXr1uPzn/9bfPPuu6Sehw4dkjq+7nU34i/+4s89IjXa2eW2SRFAEnJd3D4AwU8w8FNehEPfariaTrrjLFiLiMdPMoCwCvrFrvkIrwCEVRPEqylgVq1R5od8gaJ10Xcp+VZCe9BlFTq6Msw49sNcsdx6djsHwrTLrUwfN0eLF4P5plMwhAEIu3Z7B0r61J/+Gf7hi/+Axx57zFa3WCwmJ3yCiY999L/grz77GUxMTOC3futD+MlPfoK1a9diIJ/HF7/0JQEO1DIQGFxxxRW45Za3YfslrxIAcMPrbpQTP7UNv/+f/hNe//obUSmXsXvPbgEYl19+OW666c2iifj93/89xGJRME3w4MCgaDDOPedcPPLoozh8+BDuv/9+nHPOOVLWddddJ5koL73sMlSrFXzsYx+VtNUs55RTTsEf/F9/iBdfPIhnn3sWc7Oz/3971wEmVbGsa9klSRREn3oN5ChxyZlFoggqXAVRQIVnAq6ogChwrwQDhufVa+ICCihKUvQCgpKUnBRYQOApILBLjhKUsO/9NdMzZ870Od3nzMzOLJz+Pj+B6dOhqrvr76rqKtq4aSP17NGLxo79kM79cY7e/uc7tP7H9XTwwAHKly8/AxNc78qVLU/f//C9dShnS68Ya/ZbhnN2DRCs+1K+zLBY1XKHTTvLHpEdQICGaNDAQdS3bz/69ddfA73CJPT111/ToUOHaMWKFeQmDoLUR9P68YbTfRxaX9KuI00LnjkKBy9PgxAZLxRfuz2AYzqoKDSu1CJJN69ex9EECNEWuG63tJt1YAc4oj0vcMbJGLUBguxgigggJCXRsKHDaMHCBbRsWVADIEaP/ubO+Yb69e9HO3aIcM2+hXfvvffSTz9toG3bfqZcSUlUr359uv3222nq1Kn0+utvUPv2oSr9kiVL0mtj3qB7Ot/F32PR33P3PVSseHH2k3htzOv02OOP0lVXFaCyZcrQho0b6LtvF9Kvv/5CTw14KuBEiDFVqXIb3X333QxeGjZoSD/+uJ6WLFlM/5n9H267e/cHkKyXfSRq165Nd99zFwHwDBnyPE2aNJHefOMtevqZpwKCq2XL26lB/Qb04oh/2KZfsAzGxBx3ABBsTQs++oY7IYm0w/oxGpw8IgmYMGW5KSzmZp/NMfoAYYFNqGXbg87tDrdgqWuAAD9aizwmVse5UjjoyQHfmnJQNydWdXLo5pT52fM/NO56mGVNg+HRBAixWmNugEIs1oLl3TCCvaUzTgVACDYhY6YbgFC0aFG+tRcpXIQd9USBo97aNWsJwrxAwYLUpEkTmjJlCqv2RYHQqV+vAXXr1o369e8bts9weM6ePTcEIMAPoXXrNuwfsHjxorBvoH0QAAE/XlviWnrhhaE0fsJ4uqb4NbR4yeKAOQK/d72vK1WsVImBgWDayJGjqHKVStz2c4OH0J69e6h4seJ04eIF+vDDD6hypco8Z2gQ8G/FihWn++7rSrfeeis7Oq5ZvZqWfL+EypUtp69B0NpdQWHvRLAEAlZlhSdaciL4tQ9Cp5GhyDoOgi+bY/YCBAVGcy8dIwQJSVDECQ1CnAFCrA5w7TUW44o6h22MhxDV5pXggBe9r0u7uWdHiGXjxDVwiSM6qfgq1Sg66sFXWTson6Ft49gimbfdHLUiKYY9c8Vo8IqhZqrjVwyw8Tds0IhOnDzJHvyiABjAX+C+e++js+fO0dKlP4Soh1GvRYsWVL58Ofr000/ZH8FYhAA0A4QWLdLojz/+4JcGgeeIhg/xYuH116BBeIz/tVy5cjTw2YG0cBHARBZl7MugRQZgAYBQvUYN2rRxQ6AVaAcEQKhatRo1a9qMvpz1Bf8OVXi3rt1o8iefBHwQ6tevT+XLl6eiRYrSVQUK0Jgxr3K/aWktbX0Q9NZdNCxk1koJu4WsAg+WJgjbrJbyWVvFQYgVQPhuwXd07uzZsMFo4TS3u9dm5+oAPiNASIJfrkMNgu/gcjt469Ua/Rbk70NZAAAgAElEQVT1dkYsa6kESSz7jmbbSn4bn75Hs2OrtiJYLHZGSl0fYt0p+kWibvWQeo7vRxq9WDkqqsiJdWyss2vXbn6hCNksysaNGykpJbcv3TPWg9UE3EdSVA1TToFChQrSuXPn+OVCoBifAxLxzf3I0SOBn+ErcPDQQWmDOGSRLa9IkSLsVChK9erVqWVaS0bGa9asYROCUPHDlNHq9lZ0YP+BQH34Mvz13i6SPqznCdMCHCcnTpoYnIqdqcCWZNFe7pIw1X5hAZpYCSeVLLH2UTAluzKZQWSHlj1AuECDBg6OmQ+CFigwrgZ3y93XQgQgIVKAALrbe4JonFSOdoW79hLhq8sBIEQTHJjPCGXbMib6F5+bNWglIFXb0g0fo3Ml0zff6q53O9Cia7JQAgSrweCQdGNicK9vNY3EoP5WCSaxOMWiDT3g7UhlncbY1mHAhcVVdSOUxn7yr2YtdaDuqjLVYxFhIJHVKwZ8puKD6pWDNfAI5xF8QGTPHH0ahOgDBPjKnIUGwckJEgkwEHyIACCwgyIcFVFcmRj8GgQNVbLL5eVip7jtKXbfOVkSsRtFZC3rvlTQmavqLAsR0opDQxXzzgZXhPykM243FLSXHm5aDD9HHV9IHHZrB8B27dxlr0GQ9sVhhB0GSvJ/42jsRsF0ycYRz+FBfPHCJftz3uBxk5JbnLCGkRvVbKZhqZCyk81jFLoq4Sqnq4NtYdiJtvqIsNu9PkcDzoiSDnTnJ+hnFQch5gAB07U1uurTQ7umS5AQokG4RJTlD/ip2y9rECRXMQerSqsrh9tXq83srhRtmmTX+FXnlfEipJqj07PNao6qMclEiZM1pJqHG9pHX4cb/QRVlvQ2ijZTJfcAgUgvF4M/UBL3q+KMBZVV779VN1czYS6cv0SfffYZde7cmS5dkhtmZ82aRcOHD6ft/xv+TNMuYI19DAEVAXwjtdMWSBGz7BTXXeWSzlSbLVoHgXmI8ueOcn8Ie4AQAydFoUFQrWMV8XT5YqynWDaWmpdcRFl+fJsUDYDgn7veKnY20ViQzdkIIqsNmmBNIq4KfJ6iUeBgDU0ZCs4pmFejUTBOnFMiFoxlmw78DXTOBKuzUfWtDmBwShc3a1hl6oimNkHHROJ0zlLZIflHI22cAwSDQNHKxaALEGxOCCGQWb1to0nQJRgWJABCgwYNwpwdRRtv//NtfjN/8LAklLNkdakWMZ+tJgnIUw7Q037J2t+wdWduqmeBrJRo2IHOy1jVKZALkZEm8sQVIGQDSAiza7rQIiCGfSQAAdOURu+Mkckhp4IEwZoqVapwvBZosaJR8EwasVdQEBl29uzZ0WiWatSowflgVq6Uh4jnTqIMDsTAo3OBsl8pqnPGKThwKvhVQELFROX5q2rAwe+qPbfTkYlBUN6vZtbyQRAAgbliwRpbN86gYAU44FcCzZo5IEF41X/96180adIkgjOi0TvTWPOVl1+hZcuX0fETQe9N8XtQVa4ib2jf7BRpysIYKgTl9FHJY2vyoTeb7aDaSVZUthiQ23HamR7MNBd/v1wBgsq8Y82ScD7HGiCocJLbTepsV7ntJXrfgfJ4lg2BvnfvXvr8888jbvyee+6hUqVKcbh4FLzAQpC2OXPmhDppO+wJAhrnZ2pqKgeoQyRacxHnlI4gVd3+VcMzAoZotmXZr8vF5URou779GwiuOpp1eKOivfl32RwdAQSzANACCIEgR5rgQNxOJNIGACE1tTa1bRsaCMkpIUaPHh0BQHC5whROfHabw7ng1Vyi5lWoI6lNtwvJX633pmFYVuYEXUwiAMLw4f8IHKBTp37O8Sl04yBk7s/gb7GuHn74Efrwww9Zo7Rt27aQQxhhvwNOiiGIzjRa90sjgOOUB4PYRqa+pGY4g5OiGxMDZmenQQiAN6cbUKN+JKTUaD6qVapWq8YxXRBNFesHCeWcllOnTnGUWIRlh/CGdhNh5Y0FdXbv3k0wf6J06NDBaTdcH5Fo8R8uR8gDYwQJToS0qi4cnGFy4T2Gi4rpxZn4HiAhlz9lI+oZ27WqY9WW6C+wNm1Vr87IF8matBXoLu9wsQAJoIhxntkEEKQ6+eCC0ZypE4CAsMcIqQsEjoBExhINgICES0Dic+fODVtlso2Dg99SvWbaOOYGrZ8HippO8K2xdRtlmMIRQgVanG09X21jl7JojoFMkn57L14xlC1bLtBVRkYGHTx4wBFAQD9IQPXwQw+7AwhuTw0XhwLT3M4UxzY4A+WzCSBcyUChadOmVKFiRUKCuEgKMsxOnz6dn1vDN6pMmTKWzY0aNYp/e/755yPpkr9FbpqlS5fS+vXrNX0nfI6rOOPsAIJR6FsNkr8X56LFfhCh2vg8UJnZ+MFVkg+MKIoK3Kie17jd9j6wZFFcnAmx3nvaAEFmS3YcB0EidHR8CsRnOMhTa+lpEKDq++WXXzhPA1R/0QYI93e7nypVrkwvv/wSnfr9FDdvnssNN9zICBp5GQRAAGApW7Ys31IRGAkofvXqVbbL2d6Or1qqdptFEyCY0EAswIEPIJi85k1UMWaSBF1By1tuFuAviw4dOkwnTh5nhy5HuRiyyBlAMJJURX4Xh4EZLIXR2w4kGH10UM/n40ZuNQhSntgd1KqT2cXvTkmswFEuRmD9SZ26dQm+B0hFH0mJF0CAQ+WCBQsoPT1d7bTIezRXiOwUwtjo7K0DDnyL0oZiOntMjQN857JBJAcjewT7NmstpKOSjNXputQW5rJ5+TtT9Wn+VFOXbMkI506Khqa0AILRSdE0DCtwYKVmjT9ASOKU1FWrVqUOd3SgqdOmUsWKleibeXMJhBRewXAs2rFjBzVq1Jhat2pNzw0ZHNAeIHdE23btORPkddf9F33w/6GYp02LxGapu8tka8AGINjtXaOtzLDRRcwEJymhbbUGNgBB/NSsaXPfIZCVRZu3pLMzF0rUAcICfxwEM11UO9YlQLAVNlZ9ms1zBoDAZ6QhvpiuMHMKELQPQd0B+Os5IbOFFcZhj/rVa9aqxYnikF0WId1xOXFaYD5AArHTp08TIq2iPWgpjQW/IfPrtGnT+J/hp+CmlChRgjUeCPOOZGbwa9ApwgxgvaRDxZNMGAe+dcJQncFpgAUVUDCOTWbmMI/dzRQ0hunrRgGQVKe+6ncdkqKOJUDInceXzdFOFRMJQBA2U5XN1TiR+AGEJCpYoAC1a9+eqlevQTNmTKdixYpRhQoVOHdCu7btaPfu3+jLL7/gDY6EURs2bKC0tDRO2rRkyRJ68UWfrVyUJx5/gg4fOcLpns+dCw/hq8tAIwwPeyWhXMHuAIKxTxn/VADBiufaJhghCIkoKgBBxwch2gBBMFj7xDCtCLDOSi0b8CUJahDcAwQL05jGuDWq6C9zf03lkpaQRecb2UB0NRGoh0sDIqpC0EfDSRFOj5UqVQqYLhCka9WqVfzyQBYyXjb+sHn7Nx5Mo2gbba1bt07JAx9ItFNb+ZrwmQAtQIJf/c8VNRliCzBMmgHbSfgtb1lhscb9PQTGY/57sFVbwGDoXINMSno7qSAjpY7yRff4yXaAEBBJLvTU8QEIx3y0TCIaPGgw/c9b/0NTP5tKTZo05TfKv/32G1Wtfhul1kqlTZs2cbQ9PJE8dvwY53Mocc01dODAAapVK5Vef/01bqr7/d1pzJjX2PwwcNBAmjTpY8t4DDqLRe2jEN4Km/80N6r5a9WTTmiGrISDXZ8qvwPzi1D0YQUQBg4cRP2imO4ZaliOpBhGDB0O2dSJhRQ1Avvchr7POxyr3z4sXSaa49as5nBg+tpp0bCbpa5z0Brr4NaPC8GMGTMcz0f2AS4YtWrV4p/2799PEycGw7KrOpDO17+BGjVqxKbXefPmqZoJOBmqKlrFk5F9pwQcfNw645jK78Dp+PjI1zggVe1KXblUxHTxu91VT0VJuz1qCxBUjhy6GgQpytEECMZqTpwUo+eDEAQI4Bs0ByVvLUlJuXJRm9Zt6MSJ4zTrq1kMFFBaNG/BeRzOnD1DefLkpUmTJ3Ha6CHPDeENXqtmLaqVmspJmQ4cPEBdOneh07+fpjlz3b1xdhIfwVxXY/1Ll6pq47gFCAEkJski6duwhuH4bwVGgJC+GSaGw1xp0KDB2QMQeGAudrT4JFYSVIAENwDB5FAbCUDANGM1RYWlRb52HbDKzp6bDexzMNLwqlbag4AgVTBFR4gzb7OypJcb1RkRAG6GTS2+cQoOZIQyAgaVQ6Xx+3AtrI+SgbEpDk2VpkF8bnmB8g8mFntGpW2Q0THmAGGHxAfBigm84Gxun4kAEO7scCfd0f4OtgUWLlyYbY54ltS+Q3umLzJBrli5gho2aEjJuZJp1Euj+P/I+Dhp0kS66aabaM3aNfT8kBf4nfOc2bOpdOnS9OKIUBNEQFgqjlf5c8HgUrD3NHZ3BllHRPO1pwKWKmDiRCPStEnQByFuAMEOJOjoqWNxGjgECGE8NZwmkQKE7AYJOuTUwXSydszf6fTlbpdF9pVUGNiYpYy9MTgw5WCRCmELcGCuy63l8rWpcggUfg66AEOHSuI80ulbAAsrUGEclxI0BEyhvj+4ORdjtb40l4K1D4LI5mjHAB0NghVAsFoAdvZrJwDBbtzOnjlCgxBk0333daUL588T0v+KsmzpCqp8WyX+a59H+lDt2nXom3nf0FX583M0xn79+1NmZgaN/fdYroMXEOmbN/M75zdee4Nat2nFmoggKDCP3nqZhL5wCD8WYg0QZMLczUYwztgaIIQvayNA2Lw5nQ7HQ4MgAwg6108x6VidAli5KYbGTSYG5SHsX04RAYTAlcl/SOqc6A7ruBXaKpBgxxY7la7D4cekumuaCHAQLuVD/sVKcyADB+bYBMFlHxobwcoJUrlObShodRaxt4TBJ8Gq70D8BtZqWq8Io8YlMF6L6mInODknpU2Jf1Qt5AhWmMNXDMEDGoe4TqAkARD8T16V77iN/lVCp8zzT0I0MTxzTI1roKS7776H2rdrzwFLRGnbth3Vb1CP/wrbHjQCeDYE+xRCr1aqXIkdFUUpUeJa6nDHHRysBAACde2LzlElb8G546LuarJelZH2GYzXpFYiZxtAQC6GMxbOpCbTh5SCqk0cI5AQAhAu+G27OuM1gJ6oAISAVFBZi3XXX3g9N0Lbji0qlujewtzPyP2XbmgheuO7vo2azyqYkRNwEDYzQ2px/KaKseCGMrYC2QGiYu2CAAsWMWzMoMjObGLeEZbjtGOq6nxxQzC7VwxBDUJoz8bBqwDC5E8m0/btwWRHqnfuTHObiQIg5MmdhwoWLOhyur7P8BRuypQprkIto2/8d+FC8M1Yvnz5ac+ePXK5wAEQgj+JPxYsUJBScqfQsWNCc2A3pcgAgkqlb9uzRdf2qF51tKrYp1rtwfZDAMKWdMJ7cpRo+iAsXryYbrvttkBcfNXovd89CngU8ChwOVAAZvDt27eHpCTYuHEjJaXk9j1zNBe3AAFHPuxQdm2qVElIvChDV04FINI9v/XWW1SkSBHau0f+ZnnNmjWWuRjCaWK9FFSgSO2rqRK2kdyB7JewvQOk+nbvZIOoTCWhbVkDBIA/rJFoAgR4kN94440cStcrHgU8CngUuJIogOiexgyllgCBhbMhnGWtGqn8pAdRxIAyEHhDlEWLFpFRg4AAQfjWSn2iAgduVU4y8Xrhz4scjARagBPHg2M2Mv3CxQuUmZlJ5y+oU7faRTpUz8sk+kxS2R78BIV0NICTU+ATiX+6O/ARvi2bNvEl7sL8RaCkaAOEK+kw8ObqUcCjgEcBOwrIAYLkwqhK9wyAEHBStJEI1l7xqtuzbxqy70MEpknKXrqo1y7a9ucasaRX0F4ur6IDECJxJHTyzDE4Qj0LpfyFhPvNo9aWGEZo4JndqxcPILjnh/elRwGPAh4FnFIgABDEwcxCzgVA+AQ+CHjmqJAMRiGq8uyUTUZ8b+3cobBpO5FcDqmpAj+qrlXmE2cAwYEnjiElvGoMdiRRzc/qW9BNR2vkAQSHC9Kr7lHAo4BHAZcUgJUAib2SklNyBa7ZVr4DKg2CCiC4iuYnDU1loxFQSTcHEszNjVol6JwJ+HCuRqaql9NNCbispbrvF3j2OqCrm7UqxmgECE7jIGRm7mO/GAy1RfM0evLJJzm2BWJcqCKkuRmz941HAY8CHgVyMgWQHnzr1q1BgCAFB365UrNGLVsfBAYIO4KvGNwIWCambYBrhbkgAoCgI+NUzasWg7kPJ+2pxqcybxh9CJRmGhUoMP7uZ0msQQK6jCSSYub+fQHzFBxgC1xVgNq0aaNimfe7RwGPAh4FrmgKsAYhxLQgkcMqgGB+5mimqK0w1JWUkVzBLb5VCV4xD90h2q0klQ+DzrfWstvetKIav1LAWzWQAwGC0HwULlKUqlWtRrlzG2MUX9FngTd5jwIeBTwKhFAgyRcHwV7ARA0gqCSVFXNUklzVLgJe6PsrBkahala5lkzR5ZT1LSqoxh6uFQidrErDEG+AwGQyDFnGKisNAhJr9VUkazJqEASJc/1/eOzcKXm0ErW45Zv3nUcBjwIeBXIyBWIKEAIC1q2kZUmhIdml/gru7eNuh8sLwanvhMbq0QcI9r4G1vjLpfkmQg1CQHMlJijakww0LJvj0SNca9DAQdT3yX6c714UONggcuWhQ4doxYoVJAMIRpoaAYrGatPgmBXSk/97Ui77JvX5b8lh7TEnZamCV1k3hcRm8suGHlUxT12fENUoZT2qvrGmnt74+XtUdduRfwAqfhvHqQT3hspOovzhs+TkFEqWLE6Rb8FMLysftgBdjB84pNEff/6hvTa0F3uUKuIcw4UjJTmZ81CEXMichK9R1DXzmuM8Xgpdm0jFjdDSlxBe2hT90Yr/tqGlrQIlCTmHnAnOIykaV6XmSjDeIA07RE9Y28cJ0FkHev1YtKT62MmOl3QR9rl/uoFEKw5ej/AZZhLsquGrQI/29ESu+LBHFqHIQKVB2LwV2RwdAASDk6KMg4H52wAUnTVk13ZYinpTZRlI0Kar5AmwqzDYPH/5MaJjIkvCJCwXk72QNc5VjF1H+LkJ46V5IgU4pB00WkzRaQeGteCE5769rA9enGRPhJBD8jlb7aPYz3gmnqxAuWKOLmh08eJFOn/hvKO5ut2v0fgO4ZcF/ZKTk/WadAgsOQw0Jzz0p7u16AVAQYSMNoMJHUCclDuPPJKiWHxYfzoAYYfBSTGkY9OBUbRoUULEpsB6MSGgMFRqudl8P4gNcvXVV9OxY/6UzYZGChUqREOHDqNBgwZy0iRkZcS/de3alaZPn06NGjYkhFCe9dWX9Oeff3J4ZdSRFTA7b968dMYYq1/nMDBsYjfOisHDWf4MVWU/4exqFqmVWSSo5oAKNgeR0j1E2YEftVgIaGy2kGeOLgCC3SSjDRAslUg2ZzmTWO8ocVVLxQLmIRsbfYvBXD9M42KFlXNZHYjy2dmtHV6zGgJQtnxVtFQteeP0lADB3JmTxk101JiulPI6dBIfqoCCmC9HhyXcjnORVZIjtGnMR2D1VD5k0EZ66dDK/1oK47pw8aLvhgxv4wQvuVNyU0pKiv4oHaq9jAI/kJ3SQp5ifZy/GJrFTWcdWAMEqPv8q1UFEMyvGEAROH8lp6TwAitZqiR7jt/0l5tYwG7ctJGQkc8n4O3pZzyo6tSpSwcOHKQjhw/TjX+5kSMgnjp1igV/ixZpDDx+++032rnTp24uXrw4dbyzI3Xu0oUeeqgXDRjwNKdbBkDo/Ugfev+D92jt6nW0ZcsWeuDB++n06dP07rvv04Cn/kbHjvvABhZ/wYKF6OTJk5QvXz4O7YvokYcOHaSMjAw6cfIE/eUvf6Gbb76FTp08SWlpaTRp0iQ64leBi0lazVN1cKult5qITmgccjD6eaMco2kIobcOSB2NUwCDjBVA2L8vXO/Lh47+3tWq6USdqNVglCu5kKQm95DAgKxxuwavHUzLieBz0GzCVk3k+frCycv4G/5v/C9O15vD+hcvXUxYPgrZofL/sgRO5plJaGN/fpkON5bnzkGVJUDwoXffKN0AhGLFilPXrt3oumuvZcHbqlUrFsRz5sxhAV62bFn6/fQZbj+tRQv+/4kTJ+nVMa/41pVkIULgr161hiZPnkTVqlWniRM/pq++/opaprWkjh07UZEihWnBggU0bvy4AHkHDx5MXTr/lcZPGEeIDIU4+2jn+utvYIDw0/oN9PY7b9Nbb71JPXs+RMePHyOotDZs2EDbtv1MefPmo359+1GRokW5zcaNGtOKFcvZvj33m7m0ZesWKlr0arqrUyeqV7cenTx1kkaNGhkIR+1TA1mX8GmaVoLOeauQdCpBaHdbtGCFaUIKyagCCP4B2o0zxAfBqEF4dpC2k6Kx/WtLXEuNGzehPHnyJPQh4w3Oo4BHAY8C8aDAjh07KBwgSNJa1lTkYgjVIARVlFD7Q5Nw5swZ6tTxLvrmm7l0/MRxOn/+PAvVb+bOo9lzZtOE8eN5/p999hk1btIoQAuzwKhZoybVq1efpk2fSh9+MJa6druPzp49yzf7n37cQI0bN6Sjx45SgwYNadmypfT4409wLoa9e/ey+QApmpFy+eabb2bw8/7779KP6zfQfz/ahzp17MQageMnTrCWA6mcZ0yfTvPmz+NkT9AilC5VikaPHk33d+9Ou3bt9I3Tr/UH4Bk5cjQ98shDrNWA4Gnf/g5O/ywyD8qYrESYMQQIRidBpZlAukK1Buenk6muwyBLZidFJ9kchZOiUKNfdVUBNjE1b96cee0VjwIeBTwKeBQIpcDq1av9ACFg45Gf5XoAYbuJvsF7c7Nmzah8+Qr0wQfvh9QZP24C9e37JJ05e4ZKlChBA556moYNH0q33HwL1axZkxYuWkQVK1SkX3f+ytqFl156iZ588glq1649FS5ciD77bAoVKliIHuzRg3o82IOQmfHzzz+jYcP/TuP+PZZNG7lz56XFixdR3nx56a5Od9PKVSvpFj9AeO+9d2neN/Np+fJlNGPmTAYzL7/0Ms36ahZ99dUs1nwARYmyfNkK+nnbz1SlchWqU7d2QMmBFMEjR4yiqwoUYK3De+++Szt37aThw/9O7+LPO/1gQrICsx0gSBwFVc4roQoAHVBgnKjJTuEQGIiWIgqUZHBSBDAF//r3789N24E378DwKOBRwKPAlUqBPXv2hoZa5gux5Px3DhCC4AD+AY89+jjf+nfv3s03d/QBwQjnwalTP6eyZcsRQMS0aVPpp59+4mdreKq2bPkyKlWyFB/iUN3DdwAC/qm/PUXfffcdpadvokqVKlPdunVZyD/11AD2R3jgge7M08GDn6Obb7qZ1qxdwzd6BMbB9/AXwEDee/89WvDdQgYWL708mrp1u581CQAIx44epanTptKBAwcC66NP7z6c0RLv7ktcW5znUKZMGf5u/vx5tHLlSh7jG6+/Sb37PMLf4RWIXckOgBAwBlrIdjuAoByf5u5xY1s1rsWmTZpzT2jHaajlDAAEf86HtBYt6bHHHmONEnxWwDOveBTwKOBRwKNAKAUgd0NyMcQCILz6yhh64803KTMzg3uHjBLvZT+Z/CndeWdH9juAMyBMEn/7W382P8AsUbxYcXr44Yfp9TdfZ1MCCnwAYEJ49dWXWVgIATZx4iR2Hrx08SJ99PFHbPcfPOg5GjZ0GPsUoMB3AQABIAVaBACE7dt20KeffkoDBz1LjRo15v5mzphBm9LTaevWLewxKwr66tmzF5sQpk+fxn3D8TJzfyZrPObP/46GDx/GpoWOHTvQP/4+gv0cENfaqlgKYCcXdadOBqbBmAGC1BM5Qoc+JwBBBlKjAhAuZVFamg8gYPGvXbuWgYJXPAp4FPAo4FHAAUAwyhw9J0VhYvBJEgSOaNe2Hd/e9+/fHyJkhQCoXr0G7dnzW+BNu6iEFgAWut/fnVavWUOrVq1kDUDLlrdTaq1aNGLEiyEz6dy5M912W1U2OaAcPnyEb/7PPTeEfvnlF/rii5l0/fXX05DnhtCjjz1K5cuXp3v/ei8DhDmz51LtOqn0wAMP0q5du6h3797Us2cPeuGFoTRlyichwr1w4SLUvXt31nowuvJPBI6PXbr8lX744Xt69tlBnLdizpzZ3ObcOXMoww+OZAswDCA4AQYBgjl4CiIbhN/vxFZbkA0Awc6XMRYAAZoj+MN4xaOARwGPAh4FJADBGCjJ6panBxB8yZoEsIBGAOp23LaNb1Zz5QqXgGH9JiVRyVtLUuEihfk1AQpMB/BHWLtubdjrmSJFilK3bt3omuLXcF28LoCDRa+evej0mTMMEN76n38yWJkwYTx17tyF7dDQXEyfPoPatWtLN1x/A1WpUoWaNWtOz78whEqWLEnn//yT9u7bG6BakcJFqFjx4uygyNoLxBegLAZDAB333NOZVq1aRYsWLdQSPCwQVR7+qlWr0h7ge4s+QtJ8K/sJr2Dkm8oUoaNB8ACCigne7x4FPAp4FMgeCvAlWARKsrOV6wIElawymhcsBYaGwOS32YobrZ1AUsT9YeprDEM5Bis2hrSt05G5IdXkzfWNfUicBG1DpAa0FL4/WNFVBRDsvhVdxBsg6AbmyZ7teWX0IoLseLSPH7+NgY4wipwQhCh+1Lp8ezbHuQgCBENQJNn0owEQ7A7/ixc19ddZRMkp6pCeMiGmeutvJ1OtloSunLbFALoAQbcz6WB9WhtL4S7R6oQ0o/HyQAUQ4qlBEM8cAYKFkyIWv9nEAHOUCOF8+R4DiTWzihUr8vNjvBZCMDKvZC8F8MwXT7TBA1GgffXKlUUB4XAP074oAYBgDuZjPuxV2RwRB2Hbdp+JAUVX5gXqUzKNGjWKGjRoYMkVOCC+//77dOBg0J/BmoX2gEMla3XHH5V2JJ0ZjTA6glW1lNXjlIRwNpiW6h8AABnfSURBVAfiUjRiXjNuxh1CClNUxYieOe73vWJQAYT169fTddddx/4qXoktBbA+1q1bx/FGEGcEDqMACzBLeiX7KLB48WJKTU2lwoULBzqdN28ePf/881S9enVPmxBDVsDxfs+ePTRo0CDuZfz48RzITzjVx7DrQNNw0sYYnn32Wapduzaff2EAAQen3Q1QBRAmfzKZLHMxaMwyV1IKzZw5k2rVqkXnzp2TfvHuv96lSZMn0cFDBzVaVFTBU0uJIkIXGIjW1YJXY6j+Tq18E90IWnOv6nEaAIIFttIZh3hKqDFryyoBHsQJIJQrV479T7wSWwpgPSHqKcKUC4DQqFEjdk72SvZR4PPPPw8DCN9++y2NGzeOKlWq5L3yiSErjh09xr5yw4YP416g0YQmxyoXUCyG8vup33kMQ54fIgcIVtkcjYNRAQRZLgYnkxEA4ZZbbmGnRlkZNXIUx0VAsqdICoh/+MhhStEwVdj1oxK6+FYFOFRqebRh70vhc5JUZfmxGmtwfOqnE3KzTeh3OiBCxTsnAAF1Bw4czKGwddI962gQPICg4lB0fvcAQnToGGkrVgBh7NixdMMNN/Bzc6/EhgII179wwULCBRsFqemxL7LTzIl4QxjDhI8muAUIWaQXKCloYnBKTicAAWqvSAqeXCLaoY4vQyQAQQUOfADCuWAOi1Gg4R9gBAjyLp2NI8ypUdz2dVCTgnk6AGHzFqR7PswtDRo4WDsXgwcQItk50f3WAwjRpafb1jyA4JZykX93GQAE38mf6AAhf/78ITY02HCAjGRv3HMqQJAGL2IVgzonPLhoDwHUAIEXgqUdxLdZVC9HfHXsN5aVH4I5F4MHECI/oOLZggcQ4kn9YN8eQIgfH3IkQJAd8rqvGNySOhINApxrEO4YtkxRAAwQ9Ojnn38OE1pOAULVqlU5C6S52Cc34oeYSnLoaBAUkt0aIIQ8bVSNRSH5feoO6/lINAhW1VUAwaorY6AkT4OgXFoJX8EDCInBIg8gxI8POQYgqGzHiQwQqlWrRsWKFaMffvghwOmCBQvS7bffTl9++WWYFsEKIAhhbaZFmzZt6cYb/0Ljxo3ljI4N6jegJd8v4UBOU6dO49wMTZo2ZjASIsw1JKGO578yRoFRg+BaKoe8m5DvGE2AoLKaaJBFikU8gBC/gywWPXsAIRZUdd6mBxCc0yxaX+QIgJCckkt1vaRYAASjcEyiZH7FoOOkaPZBwN8BEBYuXBjgG55KtWvXjts0mxmMAEF2g09JSaEa1WvQsePHuD14WCMK4+TJk+m999/lcM+P/vejlJmZSSNGjqBevR6itevWsEd2SNGQhFagxNiOCiBodKPW6+useBVAEBhDY0CqKrKuPICgw6ScU8cDCInBKw8gxI8PHkDw095OlY6DIhITg1uAkJI7WboykPK5Tp261KJ5C/69S5cuhPfxY8a8ylkEufglWO3U2tS6dRsa89qr9McffzgGCDpL09Ih0Ph6IRrXdtVgVH2I71XS36kfgr9dGUBAV4MGea8YVKxLxN89gJAYXPEAQvz4cMUDBB0be7QAAgIpiQINQtu2bW01CFYAQZgYMPaRI0fTiuXLqUWLFvTUgKf82CAYM+Dtf75DQ55/Tv40U0NQqpZmiGOinTOiSnhHYSzKN5vaACHJ1pnRgL9CyGMGCIjyheIBBNUqSszfPYCQGHzxAEL8+JBjAIKQLyLQjVmeuDEx6IADsCZSgAATAJwU4QsgCswK+/bto61bt4ZFAhMmBhVA6PFgT9qXkUHr1q2loS8MDQMI1apW43fC87+dHx75KhoC2f8MUuUfYtRohC11Nh4pLUiaO0QSbVH2pWTuIWtBEdZbFyDgFYO+BiGD8c2lS0RpLdIC6Z7NoZahKfLiIGguhwireQAhQgJG6XMPIESJkC6ayREAgZM1BezHOETDBUqsAIIQfpGYGMAXOCUaI7DhmSNumAgjaS52AEHMHRoDZGhcsmQx1atXn+6+664QgNCyZUvC08rFSxZHXXugjlkgWYkhLxYACUKDJ6kUDJpynlT+ENyOfwK2ZqVLPELLouuD4Agg5EqiSxeRiyFnAgQErAFNjWtaZEw1EhL5DOBHY4yt7+LsivknlztAQBhd8Ae5DhK5eAAhftyJBkA4evQopaenBy6pt956q6NIsMpASbnzJgfO6qxL8rfsTgGCUnvA8isoIiIFCE5YLAMIYiTISWEuSCONNNNDhw31XdZzJVGrVq1p/vx51t260CDIPtEW7KhoY4LQbkfhH6ALEFT8N+f+MBIyYFYxESQyH4QM5ltOBggQ/IgCikx7QvjjcID2DEWYXAAkkpOTwwQT0qUD1CZKSWSAgLEhoiueUF+4cIEFPf4D7UXmQxEvH7QWRdAev+HPaAcO1MY6ZvojtLyRp9nNn0QHCNAGwy8MZcuWLZxYCn+HkzjoduONN2qRDE/VEToa4DlRSqQAAesMWlDkcBAXh9atW9Odd95J2O86xRFAwAEqK9EACOK8D9r4gz05AQjFixfXmbdlHWz8Q4cOUrLESVEGECCwcAsQOSJ0haTOIFU4QlewR9aOfabHEOFtlfXRAE5yYdCKuEtYA4Exc3WLbwwTs3rFoBdqOecDBByIEDQ4FGFWQ4EZTQCE06dP8284dKBNEwIMAi1PnjysZUukEk+AgL5xoIq0xvgzgADCuIPG+B20Bd1QB2fAtddeywBNHMT4P+rBzCjq4O+gP9pAe/i/CiCAJ7i0gGfx0DYkOkDYu3cvHThwgPP0IGcA1jOSSwGAYey9evViMAdBBxpaCUa0k5GRQXXq1EmYbRApQMB85s6dSw888ACvVRTQBHN9+umnteapDRD4VufHB2bB5DSSIt8C/UJDBjnM7eOZI1BQ/nz5LeNQf/XVV5yLISopYZOIciWb8ghItAcyCkcLIKiEOvqODUCQS28dXwfj3Lm+hLl6AEEZ2tFHeg2AACfFvk+qcjHkbIBw/PhxOnbsGAsbvJbBrQrCB/+VKFEisEyhRQAQwO/iVQ2AA4SYuIVpnRrZUCmeAAECHUJFJMUB4MLNEgLal/XTB7Tg7Aw6gnagqwAW+D9oDBAGUIF2xHNq/Fm0g+/z5cunpCb4Bq1QPMxCiQ4QQLxXXnmFMx5u2rSJgUHdunWZpsjui3g30CyAduBhkyZNpCHssYegRcDviVIiBQhYfzBlARQJrW1MAILVYS8I6RQgqIRfmODLykX9+/enQwcP8X+ycvrMafrxpx/pzNnTIT/rxAbSEeoy7YF5HJbhjs0VVQTQeOoXG4BgfbXXBQgqOrECQYFstN0mPYDAQmj37t0saIQgA0jGjQH/hkMRQAEHBW5aN910E69GCDmACty4cLOyU3PH48CMJ0Awzhe3d6TYFapnjAvaQgAraCuRBOzmm28OAVigLWgNrQLoCh4BcODfASjAJ/BGmCMOHjwY0PoASMA0BA0DhBraAECA4MOfwdfsVIPnBIDw8ssv0+DBgwMAAaAYdJ86dSoh0m3jxr5Adfh3pGrHDRq8QFwdgIcKFSowPz/++GNCxtBSpUoxPwR/4rH+0WekAME87rfeeovXUNeuXbWnpNQg+LI52h/ZTgCChmwMuxlfNJs2bIZjvPlrRRPWEFh8WdXQIOgADfPN14pTbujktK0gfdS5FqwAgk60R+O4ZAAhrG0XqpHIAiXlXA0CBD98B4SPAQQMhJEACLjBQhhBYEHoQKjhFgtBBcElbqU4EBNJi5AoAEFoXcRNH3QDsMKrKBzgoL3RPAOagr7gCzQEQqWNdqDhMQp//AZBBp4JzSf+ju+MgA3fQusA/uE/o1ZI+6R3WTEnAITp06dT586dOdsh1jsEPAT/2rVrqXfv3rRt2zamHxz0ALTWrVvHpiA4m//4448MFEBvaBCgTQNgA7CIt9ktmgAB4AdrGPOqWLGi9mrIVoCgI/R0b8Y6bbElQ5n8R20TRyOqdnjcVjZ4kagoS88soNOXLp0Y3BhoIJe9zgCCKrCV3eoTAEGpkdABCToaBI1sjhmZGZQLToqXcu4rBggRHADY0EKY4c84LIXGAAcOAAJuRgIkCJ8d8FSl2dE+VaJQMREAAjQF0M6ImyQEiQBRAAoQJNAeiAKhg9spNA4QLgASAGD4HnXhMAeAADAG3ug6hhpNDEZHyCiQWdlETgAIoDsA8YwZM6hTp04BcAWh2KNHDwZgRvCLfSD8dBYvXsxmCPBDmBgA8sCzeO+HaAKECRMmsCZF+CQpGe+voAEQ1KGWdTUItoJPOKNpvsu3aktLa2CgjqVQN3SgLbDNAEHycsCh3LPlo05bAiDY19UDCDobRiX4fW1oGBEsbUPBlzTGKpFoEDIy9/m90HMuQICGAMIDKlQIJoAEHIrIHY8bJw481IHwwp9xY8XBib8nYoknQAB4At1Aw+uuuy5AHtipcUMVWgSj6QH/hm9QX9z+xasF3PpxgxVOilDzOjETeD4I9isUAGHDhg0M1oz8gnBbvnw5gzVoevBKQWjMwEtoHBo2bMivUS5HHwQj1eCfgYSFxuf+Ovs+2wDCtu3bQsYTImxCcgGphYf6RuzrSkewBwCCTWWddnw3+qSwGANmJiiFOtqwcPAztqVsR4f7gTpq3wMdcOCjeSj/At+F4AI1j0PsTOLZq+QzQYcrHSDgtoGDDoJIAAQIONyGILDAB9jTARbAI9xocXDim0Qs8QQIKnoAXEHgODXJQJBBKwETgu5+wljQn3CyU40t2r/nBA0CzDkAZwDHRtMMADMEHMAb/h3gTvDsl19+YTORMAGBL9gfMEMkSommBmH06NHUoUMHuu222xxNL1sAwuRPJtN2P0CwdeTTlcQaU9RpSlfIqtrSMWWIIVv2afghEQCCpaBX0B7f2fOYYYSag4aXLnaVowUQfFFCL+9IigHe+IGcEyGlZlh0ayQyQIjuTBO7tZwAEBKbgu5HF02AIJ7aOt3z2QIQPgFA+N/takrpSGJN1YBdU7rAQAxY1pa5DdXQpQDBYiBaDpFqq4Ca3iYNgp15QHthqcalEd5Zl5YYvgcQHLA5B1X1AEJiMMsDCPHjQzQBgttZJC5A0HmfaDNrIWScggFZk2hL1Y6OUOM2VA1pvJjQdvTTXBV6Y1dJfn9nqmoWAEFnDLLpWAOEI1x90MBB1LevfRwE+CCwBgFOimktvVwMmusmltU8gBBL6uq37QEEfVpFu6YHEMwUjZYkjhanHNgOtDQWGuCAFSSSJ5U+bBH64kLlEKhLBh3hHCsNgk7fdvPwkTSJmjZpxtVAk81b0gMBtTyAoLsKEqueBxASgx8eQIgfHzyAwCe65s3Td/oHuAWnHXgJu8EYSpY7fQohcYiUYgEFQBBzEgBBVJeFGnYLDuCUg6AgxqIjpKMNEHT6VPFJgAPU8wCCilo563cPICQGvzyAED8+XLEAAZsfT31yp+Shffv2KrMA4llW6VKladeuneyNWrp0GaperTrHmT5y1KdKFkUI1cKFi3AAjE2bNqo5bCe4bSRZ6dKl6dix43TUNAbLDi36KVSwEL+RRmbIL7+cSSeOn9DKV6CeGNEtt9xKR48coTNnz7CHbulSZejY8WO0Zs3qwOc6T0aVAwowQD4qHb8K1XzkIAWg0dMgqGiX0373AEJicMwDCPHjwxUDEPCKYceO7SFP4PDk5Omnn6ExY16lU7+fsuUCBMMjDz9C69evp/T0TdT3yf6UnJJMK5Yvp0OHD1O5cuU4yEXX+7rSgAEDqEOH9rRi5QqaNnU6Z1n8+eet4e1LhHXBAgU5gMa+jH1BwOFX7YvELcaGUPe77xZS7dq1+HkZNABnz56jc+fOyufj77NNqza0ZesWQlro/v36U5EiRWnzls20cOFCWrZsKa1atTLkezzNadOmDe3cuZPy57+KXhvzOo0fP44++niCcvXCpl6mdBn64MP36YEHHuRALc2aNqNnBz5jCRDkOEblXOBvLuTJqjz7p3LQpgr22gsPIDilZ06o7wGExOCSBxDix4crCiCIZ46C3FB1AyB8OPZDOnBgvz0Xsoj69O5D6ZvTadmyZVSmTFnavz8zkEzlvvu6Uvly5eiHpT/QqJGj6d57u9CevXto2NDhtHLVSn/qZZOAk8i7ypUq0513diTEbJg5cwabNJo3b067d+2mX3f+Kh3jwQOHqW69OtSxY0cqXqw4vy8f++8PA9kdw1Qb/n/o+0RfBiILvltAvfv0oa1bt9K3386n83/+Kb2sI1748OH/oKysS/T444/xW3ed0qB+A2rZ8nZ6ccQ/OIgIQAyAhvOiBgj+l4m2qaWd9qs2bdgDhIEDB1E/z0nRKdnjXt8DCHFnAQ/AAwjx44MHEJ5+hsaO/ZD2mwBClcpVOIDF7l27ODTk0mVLqXfv/6Yhzw2hnr160uLFi6Rce/TRx+jUqZP06aef8O8vjX6ZWrRIo3vv+yvt2rWLypevQMWuvppWrFrBv6fWSqVJEyfznwc8PYDmfjOHNQG4ceNGD4Dw2ZTP6fEnHuObt7Eg4ASCa2z4aRNNmzaV3nzzDapUuTKPe9asWQTzw4oVy/kTmA7eefsdypc/Pw0d+gLNnDkz0FT3+7tTgYIFmQ4cRtXkiIiK1//X9VSseHGqW6cOjRg5ymeCoCyaN+8b+ve//83fC61D/foNaPy48dx+v3796PTp32ns2HFMsyeefDxkDsLpUSfugsrEILQOHOMpGg4G/pG6BQgiNwGyOXoAIX6HnNuePYDglnLR/c4DCNGlp5PWPIDgBwiHDh+iRg0bUcECBejXnTs5t/fAZwdSrdSaNHHiZOra9V4GCJs3p9MNN9xINWvUpJGjRoQ428FkMeLFkbRy1Qr64ouZrOofNnQY3/zbt2tPX3/9NX065VP6x99fpLSWacwnhOc0C03BwLx58lLr1q0509err74Sxterry5Gr7z8CnXs2Imu+68SVKdOXWrVqjWNHPki13344UeoV8+H+M9fzvqCxowZE9YGorHNmD6T2rVvG/hNBhAQlhU34R4P9qB/vv1Peudf74Q4bL76yhhq0KAht4EEJX97ql+gPaFBmPDRBHpp9Es04JkBdOjgwRB57xYgyEwR8QEIcFJsznPGXKBpOnLkMP/dAwhOjqTEqesBhMTghRVAeO+99zgqp0iJnRijvbxGgeiQy5YuY7mF8v3333N4dACH7CpI/IYxfDzxY6pdu3ZIKGtcwpJScofnYjBfEGvVTOVEGQhduX37dg5vKcqiRYvIGElR/LswMYwd+wE7zl11VX5atHgRhzAFAMjIzKQL589T167daNToUdSnjw8gwMRQrBgy0p3ijFwovXv3oSKFC9OMmTPYebH4NdfQlCmf0jNPP+M3Mcxnh0UkXiG1ppzjpHfq2Ilyp6TQlM+m2PJi8+atVLlyRU6ju2fPHsu6ZprBr6DV7a0oMzOT1v+4PggQJAmfxNuNuzrdxc6MZoBgN0ABEEaMfJHD6mZRFmf7MxYnAEH1UjNHA4Qs5GLw4iBk1+Fj148HEBKBC3ITw/x582no0KEMDnRNnYkxm5w1CoSIPnzoMP1nzn944BM/nsjJwFiOZVMBIMEYvp79tRogWGmOnQIECBkAhNdfe5PatWtHTzzxOM2ZO4cuXrzA0/aFvc2inj160ZLvl3DOdSNAELTJnTuFcHtetnwZv2hATG581/mezrRw0UJ68oknAwAhQE8rgMD+Bi2oadOmlNYijXODj58wjtX+dgWg6LnBz9PevXvo5MkTDIbMzwjxvZl20DBAg7Fu3doQlTyyCopiDkgM4ALfhSFDnucq5SuUDTN9mMeKZCQt01rSi37NhmwuegDBH4dBsTBVAMHpC1K1g6JvQKCNoDHyDwgzh44GIXO/L1CSL5ujPUBAwqN454nPprMh7t0gyVG9evXYcRiaMSTUUZuc4j7sy2oAuMikpqaG5OyANhZ5PnA2RtOceFkRLkqTAX2xD1BweQbNVTIpSl0Hm8kiunDxghwgJKeoszmqAAKHWt4RmqwJB3qjRo1pw4afpCi0ebMWdPDQAUpP38wDvaP9HbRr9y5KT0+3CEYYLvl79uxJGzdsDLmhh2kQDJI7X9581KxZM1q1ejUdOxbqc2BFdBxY1apVp4oVKtAff/xJS5f9wI6K5mIGCPXr1eeXFuYCgKCRqUAvExURZzCrW6cufTTxI8t1E02AgMFfMk02kqCY1k8bw6cjA7DRBAi4Lclib0R9Q3oNBiiAjIlI5Qt1K25UXsleCuCcLlasWEhiqn37gq+8snc0Xm/xogDOYawDkUoe42ATQ6QAAU8TkTmrfv16juaG53xnz54JCEuo+52iJzgFnjtr8eTQ0Wgir6wl9PlFf5RLEhGAz7k/zlk3rDs4zaEZm7Obj063Tugha69ihYoccwNaKFFgAsMtCLY8pHzV1SBoTt+r5lHAo4BHgcueAlEBCDiEIdjheOgVjwLxoABMPkZbqQcQ4sEFr0+PAh4FLicK2AIEfwh8nm/NGtZOipcTQby5XB4U8ADC5cFHbxYeBTwKxI8CUoAgSxpUo3oty1cM8Ru+17NHATkFPIDgrQyPAh4FPAq4pwBiAO3ff9DngyADBcamPYDgntDel9lPATwt/fbbb9nxzeyD0KhhY4JzK8wS69at43fHXvEo4FHAo4BHgSAFDh06TPszD1BS7jzJSl+ysmXK06hRozgnwm+//SZ95ucR16NAolAAwV9E8QGEDP/LGDyvJcqfLz/VrVuXjhw+lv1PihKFSN44PAp4FPAooKCAFkBITk6hQgULcz4CvEHP9neaHhs9CjiggPGpYhAgGN9LJFHhQkXohutvoFy5kh207FX1KOBRwKPAlUOB/wMnyVqayz61ewAAAABJRU5ErkJggg==;" vertex="1" parent="1">
                    <mxGeometry x="10" y="10" width="520" height="322" as="geometry"/>
                </mxCell>
                <mxCell id="3" value="サイズ: 箱の大きさ&lt;br&gt;オフセット: 箱のはじま位置(いち)" style="text;strokeColor=none;align=center;fillColor=#FFFFFF;html=1;verticalAlign=middle;whiteSpace=wrap;rounded=0;fontColor=#000000;" vertex="1" parent="1">
                    <mxGeometry x="50" y="210" width="120" height="50" as="geometry"/>
                </mxCell>
                <mxCell id="4" value="" style="whiteSpace=wrap;html=1;fontColor=#000000;fillColor=none;strokeColor=#FF0000;strokeWidth=3;" vertex="1" parent="1">
                    <mxGeometry x="40" y="130" width="120" height="80" as="geometry"/>
                </mxCell>
                <mxCell id="5" value="" style="whiteSpace=wrap;html=1;fontColor=#000000;fillColor=none;strokeColor=#FF0000;strokeWidth=3;" vertex="1" parent="1">
                    <mxGeometry x="30" y="100" width="150" height="30" as="geometry"/>
                </mxCell>
                <mxCell id="7" value="" style="whiteSpace=wrap;html=1;fontColor=#000000;fillColor=none;strokeColor=#FF0000;strokeWidth=3;" vertex="1" parent="1">
                    <mxGeometry x="30" y="50" width="150" height="50" as="geometry"/>
                </mxCell>
                <mxCell id="9" value="" style="whiteSpace=wrap;html=1;fontColor=#000000;fillColor=none;strokeColor=#FF0000;strokeWidth=3;" vertex="1" parent="1">
                    <mxGeometry x="264" y="80" width="196" height="160" as="geometry"/>
                </mxCell>
                <mxCell id="10" value="ストラクチャーの名前" style="text;strokeColor=none;align=center;fillColor=#FFFFFF;html=1;verticalAlign=middle;whiteSpace=wrap;rounded=0;fontColor=#000000;" vertex="1" parent="1">
                    <mxGeometry x="190" y="105" width="130" height="20" as="geometry"/>
                </mxCell>
                <mxCell id="11" value="モード(保存／ロード)" style="text;strokeColor=none;align=center;fillColor=#FFFFFF;html=1;verticalAlign=middle;whiteSpace=wrap;rounded=0;fontColor=#000000;" vertex="1" parent="1">
                    <mxGeometry x="190" y="65" width="130" height="20" as="geometry"/>
                </mxCell>
                <mxCell id="12" value="ストラクチャーの&lt;br&gt;確認(かくにん)画面" style="text;strokeColor=none;align=center;fillColor=#FFFFFF;html=1;verticalAlign=middle;whiteSpace=wrap;rounded=0;fontColor=#000000;" vertex="1" parent="1">
                    <mxGeometry x="380" y="230" width="130" height="30" as="geometry"/>
                </mxCell>
                <mxCell id="13" value="" style="whiteSpace=wrap;html=1;fontColor=#000000;fillColor=none;strokeColor=#FF0000;strokeWidth=3;" vertex="1" parent="1">
                    <mxGeometry x="200" y="290" width="100" height="35" as="geometry"/>
                </mxCell>
                <mxCell id="14" value="保存ボタン" style="text;strokeColor=none;align=center;fillColor=#FFFFFF;html=1;verticalAlign=middle;whiteSpace=wrap;rounded=0;fontColor=#000000;" vertex="1" parent="1">
                    <mxGeometry x="212.5" y="270" width="75" height="20" as="geometry"/>
                </mxCell>
            </root>
        </mxGraphModel>
    </diagram>
</mxfile>